<svg width="577" height="448" viewBox="0 0 577 448" fill="none" xmlns="http://www.w3.org/2000/svg">
<path d="M569.21 375.059H11.5859V375.335H569.21V375.059Z" fill="#EBEBEB"/>
<path d="M513.334 392.943H489.157V393.219H513.334V392.943Z" fill="#EBEBEB"/>
<path d="M395.971 387.181H357.936V387.457H395.971V387.181Z" fill="#EBEBEB"/>
<path d="M503.536 382.626H453.88V382.902H503.536V382.626Z" fill="#EBEBEB"/>
<path d="M204.535 388.228H192.118V388.504H204.535V388.228Z" fill="#EBEBEB"/>
<path d="M182.182 388.228H139.368V388.504H182.182V388.228Z" fill="#EBEBEB"/>
<path d="M116.427 383.535H85.5342V383.811H116.427V383.535Z" fill="#EBEBEB"/>
<path d="M252.564 173.291L253.061 158.684L244.059 155.751C243.685 150.803 242.882 145.897 241.659 141.087L249.264 135.486L244.082 121.765L234.654 122.524C232.408 118.09 229.782 113.857 226.807 109.872L231.688 101.741L221.637 91.0561L213.236 95.4611C209.446 92.2364 205.402 89.321 201.142 86.7431L202.504 77.4155L189.129 71.3083L183.001 78.4736C178.267 76.9229 173.411 75.7687 168.484 75.0232L166.176 65.8222L151.485 65.3161L148.577 74.2871C143.611 74.7124 138.69 75.5511 133.864 76.7944L128.198 69.2266L114.465 74.3562L115.215 83.7527C110.771 86.0182 106.525 88.6496 102.521 91.6197L94.4432 86.7546L83.6879 96.7262L88.0039 105.168C84.7653 108.928 81.8544 112.957 79.3027 117.21L69.9438 115.818L63.8391 129.149L71.0632 135.267C69.5129 139.984 68.3739 144.824 67.6589 149.736L58.4269 152.036L57.9307 166.643L66.9319 169.576C67.3028 174.524 68.106 179.431 69.3322 184.24L61.7042 189.853L66.9319 203.574L76.36 202.815C78.6114 207.248 81.2407 211.481 84.2188 215.466L79.3258 223.586L89.3772 234.271L97.8129 229.969C101.589 233.203 105.63 236.116 109.895 238.676L108.476 247.969L121.862 254.019L128.025 246.865C132.762 248.403 137.617 249.557 142.542 250.315L144.85 259.459L159.54 259.953L162.448 250.994C167.41 250.595 172.331 249.795 177.162 248.601L182.782 256.158L196.549 251.04L195.834 241.632C200.27 239.357 204.515 236.73 208.528 233.776L216.606 238.641L227.361 228.67L223.045 220.228C226.284 216.466 229.191 212.433 231.735 208.174L241.094 209.577L247.198 196.236L240.032 190.071C241.575 185.354 242.71 180.513 243.425 175.602L252.564 173.291ZM153.482 220.607C141.981 220.218 130.855 216.438 121.51 209.746C112.165 203.054 105.022 193.75 100.983 183.011C96.9442 172.272 96.1917 160.581 98.8208 149.416C101.45 138.251 107.342 128.113 115.753 120.286C124.163 112.459 134.714 107.294 146.07 105.444C157.427 103.593 169.078 105.141 179.552 109.892C190.025 114.642 198.85 122.382 204.909 132.132C210.969 141.881 213.991 153.203 213.594 164.665C213.064 180.027 206.434 194.551 195.161 205.042C183.888 215.533 168.896 221.132 153.482 220.607Z" fill="#EBEBEB"/>
<path d="M503.363 124.985L507.056 121.535L505.579 118.636C506.7 117.337 507.708 115.944 508.591 114.473L511.822 114.967L513.911 110.367L511.43 108.262C511.957 106.638 512.343 104.972 512.584 103.282L515.769 102.488L515.93 97.4393L512.826 96.4387C512.686 94.7332 512.412 93.0412 512.007 91.3781L514.684 89.4344L512.907 84.7073L509.664 84.9604C508.881 83.4399 507.974 81.9859 506.952 80.6129L508.626 77.8295L505.164 74.1261L502.256 75.6098C500.95 74.4976 499.553 73.4972 498.078 72.6194L498.551 69.3991L493.935 67.3058L491.812 69.7786C490.177 69.2587 488.502 68.874 486.804 68.6285L486.019 65.4771L480.953 65.2931L479.937 68.3985C478.227 68.5256 476.532 68.8027 474.871 69.2265L472.932 66.6042L468.178 68.3754L468.443 71.6188C466.915 72.3944 465.455 73.2986 464.081 74.3216L461.265 72.6424L457.573 76.0928L459.05 79.0027C457.938 80.3067 456.934 81.6992 456.049 83.1662L452.818 82.6831L450.729 87.2836L453.211 89.3884C452.683 91.0163 452.297 92.6863 452.057 94.38L448.872 95.1736L448.71 100.223L451.814 101.212C451.944 102.922 452.219 104.619 452.634 106.284L450.014 108.216L451.791 112.943L455.045 112.69C455.829 114.214 456.736 115.672 457.757 117.049L456.072 119.832L459.534 123.524L462.443 122.041C463.744 123.153 465.138 124.153 466.609 125.031L466.135 128.251L470.751 130.345L472.875 127.872C474.514 128.392 476.193 128.776 477.895 129.022L478.679 132.185L483.745 132.369L484.749 129.252C486.463 129.129 488.162 128.856 489.827 128.435L491.766 131.046L496.52 129.287L496.255 126.032C497.783 125.259 499.242 124.359 500.617 123.34L503.363 124.985ZM477.029 103.731C476.055 102.692 475.411 101.389 475.18 99.9854C474.949 98.5822 475.141 97.1422 475.731 95.8475C476.321 94.5529 477.283 93.4618 478.496 92.7123C479.708 91.9628 481.116 91.5885 482.542 91.6367C483.968 91.685 485.348 92.1537 486.506 92.9835C487.665 93.8134 488.551 94.967 489.051 96.2986C489.552 97.6301 489.645 99.0798 489.319 100.464C488.993 101.848 488.262 103.105 487.219 104.076C485.82 105.373 483.962 106.065 482.053 106C480.143 105.936 478.336 105.12 477.029 103.731Z" fill="#EBEBEB"/>
<path d="M368.449 274.951L356.909 267.015C355.787 262.877 354.24 258.865 352.293 255.042L355.247 243.483L338.526 225.633L326.721 227.726C323.024 225.531 319.11 223.719 315.042 222.321L307.876 210.302L283.376 209.474L275.414 220.975C271.269 222.106 267.249 223.647 263.412 225.576L251.872 222.631L233.962 239.308L236.109 251.028C233.896 254.723 232.07 258.635 230.662 262.702L218.614 269.833L217.771 294.25L229.311 302.186C230.421 306.347 231.969 310.379 233.927 314.216L230.985 325.718L247.718 343.568L259.419 341.44C263.145 343.644 267.085 345.467 271.179 346.88L278.322 358.876L302.821 359.716L310.784 348.214C314.961 347.093 319.013 345.551 322.878 343.614L334.418 346.547L352.328 329.87L350.181 318.161C352.394 314.467 354.22 310.555 355.628 306.488L367.688 299.357L368.449 274.951ZM292.112 312.066C286.666 311.878 281.398 310.086 276.973 306.915C272.549 303.744 269.167 299.337 267.256 294.251C265.344 289.165 264.989 283.628 266.234 278.34C267.48 273.053 270.27 268.252 274.253 264.545C278.235 260.838 283.231 258.39 288.609 257.513C293.987 256.635 299.505 257.366 304.466 259.614C309.427 261.861 313.608 265.524 316.481 270.139C319.353 274.755 320.788 280.116 320.604 285.544C320.355 292.826 317.213 299.712 311.869 304.685C306.526 309.659 299.419 312.314 292.112 312.066Z" fill="#EBEBEB"/>
<path d="M394.725 205.609H394.668L375.361 204.954C374.966 204.939 374.58 204.826 374.24 204.625C373.899 204.424 373.614 204.142 373.411 203.804L368.218 195.074C365.424 194.054 362.721 192.8 360.14 191.325L351.762 192.843C351.374 192.919 350.973 192.895 350.597 192.772C350.221 192.649 349.883 192.432 349.616 192.141L336.437 178.064C336.162 177.779 335.966 177.428 335.867 177.045C335.768 176.662 335.769 176.26 335.871 175.878L337.972 167.643C336.671 164.973 335.605 162.194 334.787 159.339L326.385 153.589C326.063 153.363 325.801 153.061 325.624 152.71C325.447 152.359 325.359 151.969 325.37 151.576L326.039 132.323C326.05 131.929 326.161 131.545 326.363 131.207C326.565 130.868 326.851 130.587 327.193 130.391L335.964 125.192C336.99 122.408 338.248 119.715 339.726 117.141L338.122 108.745C338.045 108.358 338.07 107.958 338.193 107.584C338.316 107.209 338.534 106.872 338.826 106.606L352.951 93.4598C353.237 93.1861 353.589 92.9904 353.973 92.8917C354.357 92.7929 354.76 92.7945 355.143 92.8963L363.44 95.0125C366.107 93.7069 368.883 92.637 371.738 91.8152L377.508 83.4537C377.729 83.1265 378.031 82.8616 378.385 82.6843C378.738 82.5071 379.132 82.4235 379.527 82.4416L398.834 83.0971C399.229 83.1119 399.615 83.2249 399.955 83.4257C400.296 83.6265 400.581 83.9089 400.784 84.2473L405.988 92.9883C408.782 94.0086 411.485 95.2629 414.066 96.7377L422.491 95.1965C422.878 95.1238 423.278 95.1512 423.651 95.276C424.025 95.4008 424.36 95.619 424.626 95.9096L437.827 109.987C438.102 110.272 438.298 110.623 438.397 111.006C438.496 111.389 438.495 111.791 438.393 112.173L436.281 120.43C437.581 123.095 438.65 125.866 439.477 128.711L447.867 134.462C448.195 134.683 448.461 134.984 448.639 135.336C448.817 135.689 448.901 136.081 448.883 136.475L448.225 155.728C448.214 156.122 448.103 156.506 447.901 156.844C447.699 157.183 447.413 157.464 447.071 157.66L438.3 162.859C437.285 165.645 436.03 168.339 434.55 170.91L436.085 179.283C436.154 179.671 436.125 180.07 436 180.443C435.875 180.817 435.658 181.153 435.369 181.422L421.21 194.591C420.924 194.861 420.573 195.053 420.191 195.15C419.809 195.247 419.409 195.244 419.029 195.143L410.824 193.05C408.135 194.348 405.34 195.414 402.469 196.236L396.699 204.597C396.482 204.918 396.187 205.178 395.842 205.355C395.497 205.532 395.113 205.62 394.725 205.609ZM376.781 200.307L393.525 200.871L399.064 192.82C399.379 192.359 399.851 192.028 400.392 191.888C403.532 191.047 406.579 189.891 409.485 188.438C409.988 188.184 410.567 188.123 411.112 188.265L418.959 190.255L431.203 178.869L429.738 170.887C429.64 170.324 429.746 169.745 430.038 169.254C431.694 166.5 433.059 163.582 434.111 160.547C434.286 159.998 434.661 159.534 435.162 159.247L443.551 154.279L444.128 137.602L436.05 132.07C435.633 131.794 435.317 131.39 435.15 130.92L435.092 130.724C434.243 127.633 433.083 124.635 431.63 121.776C431.37 121.268 431.308 120.682 431.457 120.131L433.465 112.265L422.075 100.062L414.066 101.522C413.503 101.625 412.922 101.523 412.428 101.235C409.661 99.5763 406.73 98.208 403.68 97.1518C403.509 97.0929 403.343 97.0198 403.184 96.9332C402.864 96.7281 402.596 96.4527 402.399 96.1282L397.414 87.7552L380.67 87.1916L375.119 95.2425C374.792 95.7189 374.298 96.0555 373.734 96.1857C370.634 97.0361 367.626 98.192 364.756 99.6361C364.245 99.8911 363.66 99.9564 363.106 99.8201L355.212 97.7613L342.969 109.159L344.434 117.13C344.53 117.63 344.457 118.147 344.226 118.602L344.123 118.797C342.466 121.559 341.101 124.485 340.049 127.527C339.87 128.055 339.505 128.5 339.022 128.78L330.632 133.749L330.055 150.426L338.133 155.958C338.587 156.279 338.917 156.746 339.068 157.281C339.905 160.402 341.065 163.428 342.53 166.309C342.619 166.464 342.685 166.63 342.726 166.804C342.819 167.182 342.819 167.576 342.726 167.954L340.718 175.798L352.154 188.001L360.048 186.552C360.607 186.444 361.187 186.546 361.675 186.839C364.463 188.484 367.409 189.848 370.468 190.911C371.021 191.079 371.491 191.449 371.784 191.946L376.781 200.307ZM387.109 179.225H385.874C376.622 179.063 367.808 175.265 361.352 168.658C354.895 162.051 351.318 153.17 351.4 143.947C351.481 134.725 355.214 125.908 361.786 119.415C368.359 112.922 377.238 109.28 386.492 109.28C395.745 109.28 404.625 112.922 411.197 119.415C417.769 125.908 421.502 134.725 421.583 143.947C421.665 153.17 418.088 162.051 411.631 168.658C405.175 175.265 396.361 179.063 387.109 179.225ZM387.109 113.541C379.088 113.681 371.448 116.972 365.85 122.699C360.253 128.426 357.152 136.124 357.222 144.119C357.292 152.113 360.527 159.757 366.224 165.385C371.921 171.014 379.618 174.172 387.64 174.172C395.662 174.172 403.359 171.014 409.056 165.385C414.752 159.757 417.988 152.113 418.058 144.119C418.128 136.124 415.027 128.426 409.429 122.699C403.832 116.972 396.191 113.681 388.171 113.541H387.109Z" fill="#EBEBEB"/>
<path d="M439.212 67.0758L431.215 64.9366L429.068 56.9661L432.196 53.8378L435.508 60.6696L442.351 63.9589L439.212 67.0758Z" fill="#E0E0E0"/>
<path d="M439.674 61.7392C440.02 61.3941 440.295 60.9843 440.483 60.5334C440.67 60.0825 440.766 59.5992 440.766 59.1111C440.766 58.623 440.67 58.1398 440.483 57.6888C440.295 57.2379 440.02 56.8282 439.674 56.4831C439.328 56.1379 438.917 55.8642 438.464 55.6774C438.012 55.4906 437.527 55.3945 437.037 55.3945C436.548 55.3945 436.063 55.4906 435.61 55.6774C435.158 55.8642 434.747 56.1379 434.4 56.4831L438.382 50.5254L443.713 53.2167L444.867 58.8063L439.674 61.7392Z" fill="#E0E0E0"/>
<path d="M431.596 54.4703L437.458 48.6277L445.444 50.7669L447.59 58.7488L441.728 64.5915L433.731 62.4408L431.596 54.4703ZM442.236 59.2549C442.615 58.9174 442.921 58.5063 443.136 58.0468C443.35 57.5874 443.468 57.0891 443.483 56.5826C443.497 56.076 443.408 55.5718 443.221 55.1008C443.033 54.6297 442.751 54.2018 442.392 53.843C442.033 53.4843 441.604 53.2024 441.132 53.0144C440.66 52.8265 440.154 52.7365 439.646 52.75C439.138 52.7635 438.637 52.8802 438.176 53.0929C437.714 53.3057 437.301 53.61 436.962 53.9873C436.324 54.6964 435.982 55.6222 436.008 56.5744C436.033 57.5266 436.424 58.433 437.099 59.1072C437.774 59.7815 438.682 60.1726 439.638 60.2C440.593 60.2275 441.523 59.8893 442.236 59.2549Z" fill="#F0F0F0"/>
<path d="M112.203 279.804L116.496 278.654L117.65 274.376L115.965 272.708L114.188 276.366L110.519 278.137L112.203 279.804Z" fill="#E0E0E0"/>
<path d="M111.938 276.941C111.563 276.567 111.353 276.06 111.353 275.532C111.353 275.003 111.563 274.497 111.938 274.123C112.313 273.749 112.822 273.539 113.352 273.539C113.882 273.539 114.391 273.749 114.765 274.123L112.631 270.925L109.769 272.375L109.146 275.365L111.938 276.941Z" fill="#E0E0E0"/>
<path d="M116.3 273.042L113.161 269.913L108.868 271.063L107.714 275.342L110.864 278.482L115.157 277.332L116.3 273.042ZM110.53 275.607C110.159 275.228 109.951 274.721 109.951 274.192C109.951 273.663 110.159 273.155 110.53 272.777C110.81 272.497 111.168 272.306 111.558 272.229C111.947 272.152 112.351 272.191 112.718 272.343C113.085 272.494 113.399 272.751 113.619 273.08C113.84 273.409 113.958 273.796 113.958 274.192C113.958 274.588 113.84 274.975 113.619 275.304C113.399 275.633 113.085 275.889 112.718 276.041C112.351 276.192 111.947 276.232 111.558 276.155C111.168 276.077 110.81 275.887 110.53 275.607Z" fill="#F0F0F0"/>
<path d="M96.7509 45.2233L100.305 48.7772C100.756 49.219 101.363 49.4666 101.996 49.4666C102.628 49.4666 103.235 49.219 103.686 48.7772C104.129 48.3296 104.377 47.7264 104.377 47.098C104.377 46.4696 104.129 45.8664 103.686 45.4188L100.121 41.8649C99.6715 41.4238 99.0663 41.1765 98.4358 41.1765C97.8053 41.1765 97.2 41.4238 96.7509 41.8649C96.529 42.085 96.3529 42.3467 96.2328 42.6349C96.1126 42.923 96.0508 43.232 96.0508 43.5441C96.0508 43.8561 96.1126 44.1651 96.2328 44.4533C96.3529 44.7414 96.529 45.0031 96.7509 45.2233Z" fill="#F0F0F0"/>
<path d="M94.2351 36.3787C95.1675 36.1096 96.1586 36.1184 97.0861 36.4039C98.0136 36.6893 98.837 37.2391 99.4548 37.9854C100.073 38.7316 100.458 39.6417 100.563 40.6035C100.668 41.5653 100.488 42.5367 100.046 43.398C99.6041 44.2593 98.9188 44.9729 98.0747 45.4506C97.2306 45.9284 96.2646 46.1496 95.2959 46.0869C94.3272 46.0241 93.3981 45.6802 92.6232 45.0976C91.8482 44.515 91.2612 43.7191 90.9346 42.808C90.52 41.5192 90.6345 40.1191 91.2531 38.9143C91.8716 37.7094 92.9438 36.7977 94.2351 36.3787Z" fill="#E0E0E0"/>
<path d="M90.3522 42.2211L90.8672 43.6499L101.467 39.8548L100.952 38.426L90.3522 42.2211Z" fill="#F0F0F0"/>
<path d="M290.393 425.25C409.817 425.25 506.629 419.617 506.629 412.668C506.629 405.719 409.817 400.085 290.393 400.085C170.969 400.085 74.1562 405.719 74.1562 412.668C74.1562 419.617 170.969 425.25 290.393 425.25Z" fill="#F5F5F5"/>
<path d="M108.292 84.1092C107.176 79.225 107.676 75.1037 109.792 71.7453C111.907 68.3869 115.404 66.1595 120.282 65.063C125.29 63.9359 129.456 64.4036 132.779 66.4662C136.103 68.5288 138.315 71.9792 139.415 76.8174C140.203 79.7646 140.266 82.8577 139.6 85.8344C138.952 88.3107 137.583 90.5401 135.664 92.2407C133.384 94.1504 130.651 95.4453 127.725 96.0016C124.854 96.7608 121.848 96.863 118.931 96.3007C116.402 95.687 114.116 94.3331 112.365 92.4132C110.282 90.0615 108.874 87.1924 108.292 84.1092ZM117.604 82.0505C118.289 85.0715 119.347 87.1188 120.778 88.1922C121.516 88.6746 122.343 89.0043 123.211 89.1619C124.079 89.3196 124.97 89.3018 125.831 89.1098C126.692 88.9178 127.506 88.5554 128.223 88.0442C128.941 87.5329 129.549 86.8832 130.01 86.1335C130.779 84.6 130.779 82.1502 130.01 78.7841C129.364 75.9663 128.313 74.0341 126.882 73.0335C126.154 72.513 125.317 72.1622 124.434 72.007C123.552 71.8517 122.645 71.8959 121.782 72.1364C120.92 72.2965 120.107 72.65 119.403 73.1701C118.699 73.6903 118.124 74.3633 117.72 75.1382C116.97 76.6794 116.9 78.9912 117.604 82.0505Z" fill="#263238"/>
<path d="M143.846 80.4403C143.45 78.9276 143.379 77.3487 143.638 75.8068C143.896 74.2648 144.478 72.7947 145.346 71.4923C146.32 70.1065 147.56 68.9266 148.994 68.0205C150.428 67.1145 152.028 66.5002 153.701 66.2132C158.063 65.2241 161.648 65.7378 164.456 67.7544C166.738 69.4237 168.308 71.8868 168.853 74.6552C169.253 76.1675 169.329 77.7468 169.077 79.2904C168.824 80.834 168.249 82.3074 167.387 83.6147C165.656 86.26 162.825 88.0236 158.894 88.9053C155.868 89.7401 152.644 89.4835 149.789 88.1807C148.266 87.4348 146.938 86.348 145.907 85.0052C144.876 83.6623 144.17 82.1 143.846 80.4403ZM152.212 78.5311C152.44 80.0822 153.203 81.5057 154.37 82.5566C154.827 82.9187 155.361 83.1713 155.931 83.2949C156.502 83.4186 157.093 83.4099 157.659 83.2697C158.228 83.1586 158.763 82.9167 159.222 82.5633C159.681 82.2099 160.051 81.7547 160.302 81.2339C160.882 79.7641 160.939 78.1401 160.463 76.6334C160.237 75.1124 159.486 73.7174 158.34 72.6884C157.894 72.3349 157.375 72.0861 156.819 71.9607C156.264 71.8352 155.687 71.8363 155.132 71.9639C154.551 72.0837 154.006 72.3347 153.538 72.6976C153.069 73.0605 152.691 73.5256 152.432 74.0571C151.84 75.478 151.763 77.0595 152.212 78.5311Z" fill="#263238"/>
<path d="M177.29 92.9193L170.458 62.9353L178.271 61.1526L179.009 64.373C179.541 63.0815 180.326 61.9086 181.317 60.9226C182.419 59.9912 183.735 59.347 185.148 59.0478C186.462 58.6832 187.847 58.6598 189.172 58.9799C190.498 59.3 191.718 59.953 192.719 60.8766C194.933 62.9251 196.433 65.6249 197 68.5825C197.816 72.1939 197.573 75.1459 196.273 77.4385C195.663 78.5507 194.815 79.5163 193.791 80.2674C192.766 81.0185 191.589 81.5368 190.341 81.786C189.141 82.0803 187.893 82.1311 186.672 81.9355C185.497 81.7323 184.378 81.2899 183.383 80.6359L185.749 90.9871L177.29 92.9193ZM181.317 71.9523C181.52 73.3404 182.216 74.6097 183.279 75.5293C183.706 75.8527 184.2 76.0772 184.725 76.1866C185.25 76.2961 185.793 76.2876 186.314 76.1618C186.786 76.056 187.227 75.8433 187.603 75.5401C187.98 75.237 188.281 74.8515 188.483 74.4136C188.958 73.0228 188.958 71.5145 188.483 70.1236C188.279 68.7267 187.604 67.4407 186.568 66.4777C186.187 66.1612 185.738 65.9364 185.255 65.8207C184.773 65.7051 184.271 65.7016 183.787 65.8106C183.274 65.9189 182.792 66.1418 182.379 66.4626C181.965 66.7833 181.629 67.1936 181.398 67.6623C180.875 69.0402 180.847 70.5559 181.317 71.9523Z" fill="#263238"/>
<path d="M200.542 72.6079L208.62 69.9511C209.051 70.7387 209.727 71.3646 210.548 71.7338C211.384 72.025 212.291 72.0531 213.144 71.8143C214.085 71.6647 214.947 71.2026 215.591 70.5032C215.78 70.3108 215.917 70.0739 215.989 69.8145C216.062 69.5551 216.068 69.2817 216.006 69.0195C215.931 68.7266 215.773 68.4618 215.549 68.2575C215.326 68.0532 215.047 67.9183 214.748 67.8694C213.49 67.7268 212.221 67.7268 210.963 67.8694C208.843 68.0429 206.713 68.0429 204.593 67.8694C203.353 67.6918 202.19 67.1605 201.246 66.3397C200.25 65.5115 199.563 64.373 199.296 63.1078C198.949 61.7759 199.092 60.3639 199.7 59.1284C200.361 57.8406 201.373 56.7645 202.62 56.023C204.397 55.0203 206.326 54.3132 208.332 53.9298C210.253 53.4094 212.239 53.1692 214.229 53.2167C215.478 53.3106 216.686 53.7053 217.748 54.3668C218.885 55.1291 219.848 56.1204 220.576 57.2766L212.832 59.8414C212.54 59.2626 212.054 58.8032 211.459 58.5418C210.647 58.2534 209.767 58.2134 208.932 58.4268C208.194 58.5313 207.511 58.8701 206.982 59.3929C206.813 59.5739 206.691 59.7931 206.627 60.0316C206.563 60.2701 206.558 60.5207 206.612 60.7616C206.674 61.0295 206.819 61.2714 207.026 61.4531C207.233 61.6347 207.492 61.7468 207.766 61.7737C209.01 61.9229 210.268 61.8997 211.505 61.7047C213.658 61.3892 215.842 61.3583 218.002 61.6126C219.358 61.8009 220.627 62.3853 221.649 63.2918C222.584 64.1324 223.233 65.2417 223.507 66.4662C223.789 67.7712 223.684 69.1295 223.207 70.3767C222.613 71.861 221.584 73.1319 220.253 74.0226C218.296 75.2904 216.108 76.1619 213.813 76.5874C209.836 77.4845 206.874 77.5612 204.928 76.8174C203.953 76.4412 203.063 75.8752 202.31 75.1524C201.557 74.4297 200.956 73.5647 200.542 72.6079Z" fill="#263238"/>
<path d="M227.776 45.1197H236.928V52.124L235.243 66.2017H229.588L227.776 52.1356V45.1197ZM228.226 68.3409H236.766V75.8628H228.215L228.226 68.3409Z" fill="#263238"/>
<path d="M155.097 140.73C155.029 140.746 154.958 140.746 154.89 140.73C149.87 138.798 146.812 136.9 145.312 134.635C144.085 134.853 142.821 134.68 141.7 134.14C140.397 133.5 139.318 132.481 138.607 131.219C138.226 131.51 137.779 131.701 137.305 131.775C136.831 131.85 136.347 131.805 135.895 131.644C134.544 131.117 133.393 130.179 132.606 128.964C132.105 129.325 131.49 129.492 130.875 129.436C127.563 129.172 123.062 122.535 122.797 115.634C122.794 115.487 122.849 115.344 122.95 115.236C123.052 115.129 123.191 115.065 123.339 115.059C123.412 115.055 123.486 115.065 123.555 115.089C123.624 115.114 123.687 115.152 123.741 115.201C123.795 115.25 123.839 115.31 123.869 115.377C123.899 115.443 123.915 115.515 123.916 115.588C124.216 122.236 128.532 128.24 131.025 128.389C131.398 128.422 131.77 128.311 132.064 128.079C131.187 126.497 130.634 124.757 130.436 122.961C130.238 121.164 130.399 119.347 130.91 117.613C131.867 114.277 132.721 113.012 133.737 113.208C135.653 113.691 135.399 120.96 134.383 125.756C134.229 126.616 133.911 127.44 133.448 128.182C134.104 129.279 135.095 130.138 136.276 130.632C136.591 130.757 136.935 130.787 137.267 130.72C137.599 130.653 137.904 130.49 138.145 130.253C137.146 127.389 137.191 124.265 138.272 121.431C139.842 116.509 140.476 116.371 140.846 116.29C140.977 116.263 141.114 116.271 141.242 116.313C141.369 116.355 141.484 116.431 141.573 116.532C142.6 117.682 141.365 125.342 140.072 129.183C139.918 129.636 139.709 130.069 139.449 130.471C140.044 131.676 141.022 132.65 142.23 133.243C143.015 133.636 143.894 133.803 144.769 133.726C144.665 133.517 144.573 133.302 144.492 133.082C143.604 130.701 144.042 127.941 145.819 124.663C146.973 122.489 147.954 121.477 148.831 121.466C149.074 121.465 149.312 121.535 149.516 121.665C149.721 121.796 149.884 121.982 149.985 122.202C150.955 123.996 150.251 129.896 148.323 132.829C147.88 133.503 147.256 134.041 146.523 134.382C148.012 136.337 150.851 138.062 155.386 139.81C155.504 139.86 155.601 139.949 155.661 140.061C155.722 140.174 155.743 140.303 155.72 140.429C155.697 140.554 155.632 140.668 155.536 140.752C155.44 140.836 155.318 140.885 155.19 140.891L155.097 140.73ZM148.785 122.42C148.785 122.42 148.162 122.42 146.754 125.031C145.138 128.01 144.723 130.471 145.496 132.541C145.588 132.799 145.7 133.049 145.831 133.289C146.433 133.036 146.944 132.607 147.296 132.058C148.866 129.678 149.604 124.789 149.027 122.857C148.866 122.489 148.785 122.42 148.785 122.42ZM140.788 117.739C140.18 119.001 139.682 120.314 139.299 121.661C138.439 123.992 138.287 126.524 138.861 128.941C138.905 128.854 138.94 128.761 138.965 128.665C140.122 125.136 140.737 121.452 140.788 117.739ZM133.448 114.231C133.252 114.404 132.71 115.105 131.937 117.82C131.021 120.877 131.31 124.168 132.744 127.021C132.971 126.519 133.141 125.995 133.252 125.457C134.406 119.97 134.072 115.013 133.448 114.231Z" fill="#263238"/>
<path d="M197.495 198.973C195.712 198.994 193.955 198.542 192.406 197.662C192.278 197.585 192.185 197.461 192.148 197.317C192.111 197.173 192.134 197.02 192.21 196.891C192.247 196.828 192.296 196.773 192.354 196.73C192.412 196.686 192.479 196.654 192.55 196.635C192.62 196.617 192.694 196.613 192.767 196.624C192.839 196.634 192.909 196.659 192.971 196.696C196.953 198.996 202.088 197.397 203.15 195.707C203.227 195.6 203.281 195.478 203.309 195.35C203.337 195.221 203.337 195.088 203.311 194.959C201.258 195.078 199.225 194.503 197.541 193.326C194.702 191.566 194.483 191.026 194.506 190.612C194.512 190.491 194.551 190.373 194.618 190.272C194.685 190.171 194.778 190.09 194.887 190.037C196.041 189.473 201.026 191.785 203.127 193.153C203.377 193.325 203.609 193.521 203.819 193.74C204.644 193.549 205.388 193.102 205.942 192.463C206.249 192.103 206.47 191.678 206.589 191.221H206.369C204.592 191.405 202.803 190.635 200.888 188.921C199.584 187.771 199.076 186.874 199.249 186.218C199.298 186.034 199.399 185.867 199.54 185.739C199.681 185.61 199.857 185.525 200.045 185.494C201.592 185.114 205.4 186.724 206.969 188.426C207.327 188.807 207.584 189.269 207.719 189.772C209.174 189.082 210.708 187.564 212.532 185.022C212.573 184.962 212.626 184.911 212.688 184.871C212.75 184.832 212.819 184.806 212.891 184.794C212.963 184.782 213.037 184.785 213.108 184.803C213.179 184.82 213.246 184.852 213.305 184.895C213.365 184.937 213.416 184.99 213.456 185.051C213.495 185.112 213.522 185.18 213.535 185.252C213.548 185.324 213.546 185.397 213.531 185.468C213.515 185.539 213.485 185.606 213.443 185.666C211.331 188.599 209.577 190.267 207.812 190.945C207.735 191.793 207.396 192.597 206.842 193.245C206.204 193.996 205.357 194.541 204.407 194.81C204.462 195.076 204.463 195.351 204.409 195.617C204.356 195.884 204.249 196.137 204.096 196.362C203.161 197.823 200.461 198.973 197.495 198.973ZM196.503 191.267C196.883 191.543 197.414 191.911 198.187 192.417C199.388 193.222 200.766 193.727 202.203 193.89C200.407 192.81 198.495 191.934 196.503 191.279V191.267ZM200.392 186.54C200.712 187.143 201.156 187.672 201.696 188.093C203.357 189.611 204.858 190.29 206.312 190.14L206.669 190.083C206.585 189.741 206.419 189.425 206.185 189.162C204.605 187.666 202.563 186.745 200.392 186.552V186.54Z" fill="#263238"/>
<path d="M212.266 197.466L194.887 200.606L179.112 114.783L145.577 120.856L90.9463 217.559L96.8086 249.464L166.891 236.812L171.692 262.909L205.215 256.848L200.415 230.74L217.794 227.6L212.266 197.466ZM124.332 213.384L153.274 162.778L161.352 206.725L124.332 213.384Z" fill="#AA1878"/>
<path d="M352.212 108.952C351.688 103.561 350.49 98.256 348.646 93.1608C346.764 88.2723 344.136 83.7024 340.856 79.6123C336.972 74.8529 332.148 70.9384 326.685 68.1109C320.707 64.8599 312.818 62.5941 303.017 61.3136C282.614 58.6683 266.712 62.2759 255.31 72.1364C243.909 81.9969 236.4 100.89 232.784 128.815C231.341 139.255 230.974 149.814 231.688 160.329C232.457 169.967 234.234 177.722 237.019 183.596C240.594 191.518 246.238 198.338 253.36 203.344C260.399 208.266 270.043 211.525 282.291 213.12C304.125 215.957 320.323 211.77 330.886 200.56C341.449 189.35 348.442 170.419 351.866 143.767C353.398 132.219 353.514 120.528 352.212 108.952Z" fill="#AA1878"/>
<path d="M292.365 201.699C289.688 201.607 286.826 201.365 283.883 200.986C273.67 199.652 265.777 197.075 260.399 193.326C255.036 189.535 250.801 184.368 248.144 178.374L248.109 178.271C245.963 173.808 244.567 167.436 243.943 159.351C243.305 149.669 243.649 139.947 244.97 130.333C248.952 99.5211 257.168 86.6281 263.365 81.303C270.589 75.0577 280.341 72.2399 293.173 72.677C295.804 72.769 298.597 72.999 301.459 73.367C309.698 74.4367 316.207 76.2539 320.823 78.7727C324.815 80.8142 328.348 83.6434 331.209 87.0881C333.718 90.2154 335.734 93.706 337.187 97.4393C338.664 101.588 339.621 105.903 340.037 110.286C341.225 120.903 341.117 131.624 339.714 142.214C336.621 166.148 330.655 182.975 321.965 192.21C315.514 199.111 305.809 202.17 292.388 201.71L292.365 201.699Z" fill="#6B0B4A"/>
<path d="M314.188 109.263L314.338 105.053L311.741 104.214C311.634 102.785 311.403 101.369 311.049 99.9811L313.253 98.3709L311.753 94.4145L309.041 94.633C308.38 93.3566 307.607 92.1405 306.733 90.9986L308.141 88.6983L305.244 85.6159L302.809 86.8581C301.724 85.9314 300.567 85.093 299.347 84.3508L299.74 81.6595L295.885 79.9113L294.12 81.9815C292.752 81.5424 291.351 81.2154 289.931 81.0039L289.273 78.3701L285.038 78.2091L284.207 80.7969C282.774 80.9081 281.354 81.1389 279.96 81.487L278.333 79.3017L274.363 80.7854L274.582 83.4882C273.304 84.1518 272.085 84.9212 270.936 85.7885L268.628 84.3853L265.524 87.2606L266.77 89.6989C265.841 90.782 265.003 91.9399 264.266 93.1608L261.565 92.7583L259.788 96.6112L261.877 98.3709C261.432 99.7324 261.104 101.129 260.896 102.546L258.242 103.213L258.092 107.422L260.7 108.262C260.806 109.69 261.037 111.107 261.392 112.495L259.188 114.105L260.688 118.061L263.4 117.843C264.07 119.114 264.842 120.33 265.708 121.477L264.3 123.777L267.197 126.86L269.632 125.618C270.715 126.547 271.873 127.385 273.094 128.125L272.69 130.816L276.544 132.564L278.321 130.494C279.689 130.933 281.09 131.26 282.51 131.472L283.168 134.106L287.403 134.255L288.234 131.667C289.667 131.556 291.087 131.325 292.481 130.977L294.097 133.162L298.066 131.679L297.859 128.976C299.135 128.31 300.355 127.54 301.505 126.676L303.813 128.079L306.918 125.204L305.671 122.765C306.607 121.692 307.445 120.537 308.175 119.315L310.876 119.717L312.641 115.876L310.553 114.116C310.999 112.755 311.327 111.358 311.534 109.941L314.188 109.263ZM285.649 122.903C282.333 122.794 279.123 121.707 276.427 119.779C273.731 117.85 271.669 115.168 270.504 112.072C269.338 108.975 269.12 105.604 269.878 102.384C270.636 99.1639 272.336 96.2406 274.762 93.9839C277.188 91.7273 280.231 90.2388 283.506 89.707C286.781 89.1751 290.141 89.6238 293.16 90.9962C296.18 92.3686 298.722 94.6031 300.467 97.4166C302.211 100.23 303.079 103.496 302.959 106.801C302.806 111.225 300.896 115.407 297.651 118.429C294.405 121.45 290.088 123.064 285.649 122.915V122.903Z" fill="#5945BF"/>
<path opacity="0.3" d="M331.798 186.621L332.109 183.78L330.39 183.078C330.387 182.114 330.302 181.152 330.136 180.203L331.705 179.214L330.909 176.465H329.051C328.688 175.572 328.243 174.713 327.724 173.9L328.774 172.394L326.985 170.22L325.277 170.933C324.611 170.253 323.889 169.63 323.12 169.07L323.535 167.252L321.019 165.884L319.658 167.172C318.767 166.798 317.843 166.505 316.899 166.298L316.588 164.481L313.737 164.159L313.034 165.861C312.066 165.874 311.102 165.962 310.149 166.125L309.156 164.561L306.398 165.366V167.218C305.505 167.587 304.644 168.03 303.825 168.541L302.301 167.471L300.04 169.265L300.755 170.967C300.075 171.651 299.453 172.389 298.897 173.176L297.097 172.773L295.712 175.28L297.028 176.569C296.658 177.466 296.364 178.393 296.151 179.34L294.327 179.639L294.016 182.48L295.724 183.182C295.727 184.146 295.812 185.108 295.977 186.057L294.408 187.046L295.216 189.795H297.062C297.439 190.684 297.887 191.542 298.401 192.36L297.328 193.867L299.128 196.098L300.847 195.385C301.533 196.062 302.274 196.682 303.063 197.236L302.648 199.042L305.163 200.422L306.467 199.111C307.366 199.471 308.292 199.76 309.237 199.974L309.548 201.791L312.399 202.113L313.091 200.399C314.062 200.392 315.031 200.303 315.988 200.135L316.98 201.71L319.727 200.905V199.054C320.626 198.685 321.491 198.239 322.312 197.719L323.812 198.789L326.051 197.006L325.324 195.304C326.008 194.619 326.637 193.88 327.205 193.096L329.005 193.487L330.39 190.991L329.074 189.692C329.434 188.799 329.723 187.88 329.94 186.943L331.798 186.621ZM317.442 185.471C316.969 186.331 316.252 187.032 315.379 187.485C314.507 187.938 313.52 188.124 312.542 188.018C311.564 187.912 310.639 187.519 309.885 186.89C309.131 186.26 308.581 185.422 308.305 184.481C308.029 183.54 308.039 182.538 308.335 181.603C308.63 180.668 309.196 179.84 309.963 179.226C310.73 178.612 311.662 178.238 312.642 178.152C313.622 178.066 314.606 178.271 315.468 178.742C316.045 179.057 316.554 179.482 316.965 179.994C317.377 180.505 317.683 181.092 317.866 181.721C318.049 182.351 318.106 183.01 318.033 183.661C317.961 184.312 317.76 184.943 317.442 185.517V185.471Z" fill="#5945BF"/>
<path d="M347.596 138.58L344.273 136.279C343.94 135.088 343.492 133.933 342.934 132.829L343.788 129.505L338.964 124.352L335.572 124.974C334.506 124.344 333.381 123.82 332.213 123.409L330.148 119.959L323.085 119.717L320.812 123.064C319.617 123.396 318.458 123.842 317.35 124.398L314.015 123.547L308.845 128.355L309.468 131.725C308.834 132.789 308.308 133.914 307.899 135.083L304.437 137.142L304.194 144.181L307.518 146.481C307.844 147.674 308.292 148.83 308.857 149.931L308.003 153.255L312.826 158.396L316.196 157.787C317.272 158.419 318.409 158.943 319.589 159.351L321.654 162.801L328.717 163.043L331.025 159.731C332.221 159.403 333.381 158.956 334.487 158.396L337.81 159.248L342.98 154.44L342.357 151.059C342.981 149.985 343.495 148.852 343.892 147.677L347.354 145.618L347.596 138.58ZM325.59 149.276C324.021 149.22 322.503 148.703 321.23 147.788C319.956 146.873 318.983 145.603 318.434 144.137C317.884 142.671 317.783 141.076 318.143 139.553C318.503 138.03 319.308 136.648 320.456 135.581C321.604 134.514 323.044 133.81 324.593 133.558C326.143 133.306 327.732 133.518 329.161 134.166C330.59 134.815 331.794 135.871 332.62 137.201C333.447 138.531 333.86 140.075 333.806 141.639C333.77 142.678 333.529 143.7 333.097 144.647C332.664 145.593 332.049 146.446 331.286 147.155C330.523 147.864 329.627 148.417 328.65 148.78C327.672 149.144 326.632 149.313 325.59 149.276Z" fill="white"/>
<path d="M371.853 82.4186L372.442 81.0269C372.852 80.8113 373.239 80.553 373.596 80.2563H374.888L376.411 78.0826L375.915 76.9324C376.066 76.4961 376.171 76.045 376.227 75.5868L377.381 74.5632L376.919 71.9639L375.511 71.3773C375.295 70.9706 375.04 70.5854 374.75 70.2272V68.939L372.58 67.4208L371.426 67.9154C370.984 67.7659 370.528 67.6619 370.064 67.6048L369.037 66.4547L366.418 66.9148L365.841 68.3179C365.431 68.5315 365.045 68.7859 364.687 69.077H363.394L361.882 71.2393L362.379 72.3894C362.227 72.8297 362.123 73.2846 362.067 73.7466L360.913 74.7817L361.386 77.381L362.783 77.956C362.997 78.3667 363.256 78.7524 363.556 79.1062L363.51 80.5093L365.691 82.016L366.845 81.5215C367.286 81.6722 367.743 81.7763 368.206 81.832L369.233 82.9821L371.853 82.4186ZM366.187 75.2072C366.082 74.627 366.152 74.0287 366.388 73.4882C366.624 72.9476 367.016 72.4891 367.514 72.1706C368.012 71.8522 368.593 71.6882 369.185 71.6994C369.776 71.7106 370.351 71.8965 370.837 72.2335C371.322 72.5706 371.696 73.0436 371.912 73.5927C372.127 74.1418 372.174 74.7423 372.047 75.3182C371.92 75.894 371.624 76.4192 371.197 76.8274C370.77 77.2356 370.231 77.5083 369.649 77.611C368.87 77.7483 368.069 77.5725 367.42 77.1219C366.771 76.6714 366.327 75.9829 366.187 75.2072Z" fill="#56008C"/>
<path d="M341.26 75.0462L340.406 74.3331C342.247 72.0449 344.526 70.1448 347.111 68.7435L347.63 69.7211C345.177 71.0627 343.013 72.8721 341.26 75.0462Z" fill="#56008C"/>
<path d="M350.169 68.7205L349.719 67.6969C353.84 65.9186 358.345 65.2027 362.817 65.6151L362.713 66.7653C358.433 66.3512 354.117 67.0238 350.169 68.7205Z" fill="#56008C"/>
<path d="M348.058 76.4149L347.135 75.7823C349.83 72.1752 353.738 69.6561 358.144 68.686L358.363 69.8361C354.246 70.723 350.588 73.0585 348.058 76.4149Z" fill="#56008C"/>
<path d="M274.052 183.389C273.9 183.385 273.755 183.324 273.648 183.216L271.34 180.812C270.168 180.698 269.01 180.478 267.878 180.157L264.231 181.767C264.149 181.809 264.058 181.832 263.966 181.832C263.873 181.832 263.782 181.809 263.7 181.767L257.584 177.73C257.509 177.676 257.448 177.605 257.406 177.523C257.364 177.441 257.342 177.351 257.342 177.259L257.399 173.291C256.651 172.364 255.99 171.371 255.426 170.323L252.229 169.07C252.143 169.032 252.067 168.976 252.007 168.904C251.947 168.832 251.904 168.747 251.883 168.656L250.418 161.502C250.4 161.411 250.405 161.317 250.433 161.228C250.462 161.14 250.512 161.06 250.579 160.996L252.991 158.695C253.1 157.528 253.316 156.373 253.637 155.245L252.033 151.611C251.988 151.53 251.964 151.439 251.964 151.346C251.964 151.253 251.988 151.162 252.033 151.082L256.188 144.917C256.236 144.836 256.305 144.769 256.389 144.725C256.472 144.68 256.566 144.659 256.661 144.664L260.63 144.733C261.565 143.988 262.565 143.33 263.619 142.766L264.773 139.649C264.807 139.561 264.863 139.483 264.936 139.423C265.009 139.362 265.096 139.321 265.189 139.304L272.367 137.855C272.458 137.837 272.552 137.843 272.641 137.871C272.73 137.899 272.81 137.949 272.874 138.016L275.182 140.408C276.353 140.527 277.512 140.746 278.644 141.064L282.28 139.465C282.363 139.42 282.456 139.396 282.551 139.396C282.645 139.396 282.739 139.42 282.822 139.465L288.927 143.491C289.003 143.543 289.065 143.614 289.107 143.696C289.149 143.778 289.17 143.87 289.169 143.962V147.93C289.915 148.858 290.575 149.851 291.142 150.898L294.27 152.163C294.355 152.197 294.432 152.252 294.492 152.322C294.552 152.392 294.595 152.475 294.616 152.565L296.07 159.719C296.087 159.812 296.081 159.907 296.053 159.998C296.025 160.088 295.975 160.17 295.908 160.237L293.496 162.537C293.387 163.704 293.17 164.859 292.85 165.987L294.454 169.622C294.5 169.702 294.524 169.794 294.524 169.886C294.524 169.979 294.5 170.07 294.454 170.151L290.404 176.235C290.352 176.313 290.282 176.377 290.199 176.421C290.117 176.465 290.024 176.488 289.931 176.488H285.961C285.027 177.23 284.027 177.885 282.972 178.443L281.818 181.56C281.787 181.648 281.733 181.726 281.662 181.787C281.592 181.847 281.506 181.888 281.414 181.905L274.225 183.366L274.052 183.389ZM267.762 179.018C267.815 179.007 267.87 179.007 267.924 179.018C269.129 179.367 270.366 179.594 271.617 179.697C271.75 179.709 271.873 179.77 271.963 179.869L274.271 182.17L280.86 180.835L282.014 177.799C282.063 177.671 282.157 177.564 282.28 177.5C283.393 176.926 284.445 176.24 285.418 175.453C285.465 175.407 285.521 175.372 285.583 175.35C285.645 175.328 285.711 175.32 285.776 175.326H289.642L293.358 169.748L291.788 166.206C291.748 166.082 291.748 165.95 291.788 165.826C292.143 164.626 292.375 163.393 292.481 162.146C292.493 162.012 292.55 161.887 292.642 161.789L294.95 159.489L293.612 152.922L290.577 151.772C290.448 151.723 290.341 151.629 290.277 151.507C289.701 150.394 289.009 149.346 288.211 148.379C288.129 148.278 288.084 148.152 288.084 148.022L288.142 144.158L282.545 140.466L279.002 142.018C278.879 142.064 278.744 142.064 278.621 142.018C277.412 141.672 276.171 141.445 274.917 141.34C274.784 141.328 274.66 141.266 274.571 141.167L272.263 138.867L265.685 140.19L264.531 143.226C264.486 143.351 264.396 143.454 264.277 143.514C263.16 144.091 262.108 144.785 261.138 145.584C261.035 145.669 260.903 145.714 260.769 145.71L256.903 145.641L253.187 151.231L254.757 154.762C254.791 154.836 254.808 154.916 254.808 154.998C254.808 155.079 254.791 155.16 254.757 155.234C254.432 156.408 254.212 157.609 254.099 158.822C254.094 158.957 254.036 159.085 253.937 159.178L251.629 161.479L252.968 168.035L256.003 169.185C256.137 169.242 256.247 169.344 256.315 169.472C256.891 170.575 257.579 171.615 258.369 172.578C258.449 172.679 258.494 172.805 258.496 172.934L258.438 176.799L264.035 180.502L267.589 178.938C267.64 178.957 267.686 178.984 267.728 179.018H267.762ZM273.244 175.418C270.558 175.416 267.922 174.687 265.618 173.311C263.314 171.935 261.427 169.962 260.159 167.603C258.89 165.243 258.286 162.585 258.412 159.911C258.537 157.237 259.388 154.647 260.873 152.416C262.294 150.28 264.247 148.549 266.54 147.391C268.834 146.232 271.389 145.687 273.958 145.807C276.526 145.928 279.019 146.71 281.193 148.078C283.367 149.446 285.148 151.352 286.362 153.611C287.576 155.87 288.181 158.405 288.118 160.966C288.055 163.528 287.327 166.03 286.004 168.227C284.681 170.424 282.809 172.242 280.57 173.502C278.332 174.763 275.803 175.423 273.232 175.418H273.244ZM261.808 153.048C259.796 156.078 259.073 159.779 259.798 163.34C260.523 166.9 262.636 170.028 265.673 172.037C267.94 173.533 270.6 174.326 273.318 174.315C276.036 174.304 278.69 173.49 280.944 171.976C283.198 170.462 284.951 168.316 285.982 165.81C287.012 163.303 287.273 160.548 286.733 157.893C286.192 155.238 284.874 152.802 282.945 150.894C281.016 148.986 278.562 147.691 275.894 147.172C273.226 146.654 270.464 146.935 267.957 147.981C265.449 149.027 263.309 150.79 261.808 153.048Z" fill="white"/>
<path d="M486.491 207.496L468.985 205.195L480.525 118.717L446.759 114.116L364.825 189.277L360.521 221.481L431.111 230.981L427.591 257.273L461.357 261.816L464.877 235.524L482.383 237.825L486.491 207.496ZM397.922 195.58L441.139 156.315L435.219 200.595L397.922 195.58Z" fill="#AA1878"/>
<path d="M451.144 260.954H451.04C450.896 260.926 450.768 260.843 450.684 260.723C450.6 260.602 450.567 260.454 450.59 260.31L476.602 118.096C476.615 118.024 476.643 117.956 476.683 117.895C476.723 117.833 476.775 117.781 476.836 117.74C476.896 117.699 476.964 117.67 477.036 117.655C477.108 117.64 477.182 117.639 477.254 117.653C477.326 117.667 477.394 117.694 477.455 117.734C477.517 117.774 477.57 117.826 477.611 117.886C477.652 117.946 477.681 118.014 477.696 118.086C477.711 118.157 477.712 118.231 477.698 118.303L451.687 260.494C451.665 260.622 451.599 260.738 451.5 260.822C451.4 260.906 451.275 260.953 451.144 260.954Z" fill="#263238"/>
<path d="M474.224 120.488C474.217 120.668 474.157 120.841 474.051 120.986C473.945 121.132 473.798 121.243 473.629 121.305C473.46 121.367 473.277 121.378 473.101 121.337C472.926 121.295 472.767 121.202 472.644 121.07C472.522 120.939 472.441 120.774 472.413 120.596C472.384 120.419 472.409 120.237 472.484 120.074C472.56 119.911 472.682 119.773 472.835 119.679C472.989 119.585 473.167 119.538 473.347 119.545C473.467 119.549 473.584 119.577 473.693 119.627C473.802 119.677 473.9 119.748 473.982 119.835C474.063 119.923 474.126 120.026 474.168 120.138C474.21 120.25 474.229 120.369 474.224 120.488Z" fill="#263238"/>
<path d="M470.508 139.718C470.501 139.898 470.441 140.071 470.335 140.217C470.229 140.362 470.083 140.473 469.914 140.535C469.745 140.598 469.561 140.609 469.385 140.567C469.21 140.525 469.051 140.433 468.929 140.301C468.806 140.169 468.725 140.004 468.697 139.827C468.669 139.649 468.693 139.467 468.769 139.304C468.844 139.141 468.966 139.003 469.119 138.909C469.273 138.815 469.451 138.768 469.631 138.775C469.751 138.78 469.869 138.808 469.977 138.857C470.086 138.907 470.184 138.978 470.266 139.065C470.347 139.153 470.411 139.256 470.452 139.368C470.494 139.48 470.513 139.599 470.508 139.718Z" fill="#263238"/>
<path d="M466.792 158.948C466.785 159.128 466.725 159.301 466.619 159.447C466.513 159.592 466.367 159.703 466.198 159.765C466.029 159.828 465.845 159.839 465.67 159.797C465.494 159.755 465.335 159.663 465.213 159.531C465.09 159.399 465.01 159.234 464.981 159.057C464.953 158.879 464.978 158.698 465.053 158.534C465.128 158.371 465.25 158.234 465.404 158.139C465.557 158.045 465.735 157.999 465.915 158.005C466.035 158.01 466.153 158.038 466.262 158.088C466.371 158.137 466.469 158.208 466.55 158.296C466.631 158.383 466.695 158.486 466.736 158.598C466.778 158.71 466.797 158.829 466.792 158.948Z" fill="#263238"/>
<path d="M459.488 178.961C459.483 179.143 459.424 179.32 459.318 179.469C459.212 179.618 459.065 179.732 458.894 179.797C458.723 179.862 458.536 179.875 458.358 179.834C458.179 179.793 458.017 179.7 457.892 179.567C457.767 179.434 457.684 179.267 457.654 179.087C457.624 178.907 457.649 178.722 457.724 178.556C457.8 178.39 457.924 178.25 458.08 178.154C458.235 178.058 458.416 178.011 458.599 178.018C458.842 178.027 459.071 178.131 459.238 178.307C459.404 178.484 459.494 178.719 459.488 178.961Z" fill="#263238"/>
<path d="M459.361 197.409C459.356 197.528 459.328 197.646 459.278 197.754C459.228 197.863 459.157 197.96 459.069 198.041C458.982 198.123 458.878 198.186 458.766 198.227C458.654 198.269 458.534 198.288 458.414 198.283C458.173 198.275 457.944 198.172 457.778 197.997C457.613 197.821 457.524 197.587 457.532 197.346C457.539 197.105 457.643 196.877 457.819 196.712C457.995 196.547 458.23 196.458 458.472 196.466C458.593 196.469 458.712 196.496 458.822 196.545C458.932 196.594 459.032 196.664 459.114 196.752C459.197 196.84 459.261 196.943 459.304 197.056C459.346 197.169 459.365 197.289 459.361 197.409Z" fill="#263238"/>
<path d="M455.645 216.639C455.641 216.759 455.612 216.876 455.562 216.984C455.513 217.093 455.442 217.191 455.354 217.272C455.266 217.353 455.163 217.416 455.05 217.457C454.938 217.499 454.818 217.518 454.699 217.513C454.457 217.506 454.228 217.403 454.063 217.227C453.897 217.051 453.808 216.817 453.816 216.576C453.824 216.335 453.927 216.107 454.103 215.942C454.28 215.777 454.515 215.688 454.756 215.696C454.877 215.699 454.996 215.726 455.106 215.775C455.217 215.824 455.316 215.895 455.399 215.982C455.481 216.07 455.546 216.173 455.588 216.286C455.63 216.399 455.65 216.519 455.645 216.639Z" fill="#263238"/>
<path d="M451.929 235.869C451.925 235.989 451.897 236.106 451.847 236.215C451.797 236.323 451.726 236.421 451.638 236.502C451.55 236.583 451.447 236.646 451.334 236.688C451.222 236.729 451.103 236.748 450.983 236.744C450.741 236.736 450.512 236.633 450.347 236.457C450.181 236.281 450.092 236.047 450.1 235.806C450.108 235.565 450.211 235.337 450.387 235.172C450.564 235.007 450.799 234.919 451.041 234.926C451.161 234.929 451.28 234.956 451.39 235.005C451.501 235.054 451.6 235.125 451.683 235.213C451.765 235.3 451.83 235.404 451.872 235.516C451.914 235.629 451.934 235.749 451.929 235.869Z" fill="#263238"/>
<path d="M448.213 255.1C448.209 255.282 448.15 255.459 448.044 255.608C447.938 255.757 447.79 255.871 447.619 255.936C447.448 256.001 447.262 256.014 447.083 255.973C446.905 255.932 446.743 255.839 446.617 255.706C446.492 255.573 446.409 255.406 446.379 255.226C446.35 255.046 446.374 254.861 446.45 254.695C446.526 254.529 446.65 254.389 446.805 254.293C446.961 254.197 447.142 254.15 447.325 254.157C447.445 254.159 447.564 254.186 447.675 254.235C447.785 254.285 447.884 254.355 447.967 254.443C448.05 254.531 448.114 254.634 448.156 254.747C448.198 254.859 448.218 254.979 448.213 255.1Z" fill="#263238"/>
<path d="M458.576 179.49C458.423 179.507 458.269 179.462 458.149 179.366C458.029 179.27 457.952 179.131 457.935 178.978C457.918 178.826 457.963 178.673 458.059 178.553C458.156 178.433 458.296 178.356 458.449 178.34L461.23 177.753C461.373 177.726 461.522 177.754 461.645 177.834C461.767 177.913 461.854 178.037 461.888 178.179C461.904 178.25 461.907 178.324 461.894 178.396C461.882 178.467 461.855 178.536 461.815 178.597C461.775 178.659 461.723 178.711 461.662 178.752C461.601 178.793 461.533 178.821 461.461 178.834L458.691 179.432L458.576 179.49Z" fill="#263238"/>
<path d="M467.819 169.254C466.506 172.636 465.393 176.093 464.484 179.605C463.642 183.538 463.596 192.256 463.596 192.256" fill="#263238"/>
<path d="M463.596 192.912C463.449 192.906 463.31 192.844 463.207 192.74C463.104 192.635 463.045 192.495 463.042 192.348C463.042 191.992 463.1 183.469 463.954 179.536C464.857 175.974 465.978 172.471 467.312 169.047C467.337 168.979 467.376 168.916 467.426 168.864C467.476 168.811 467.537 168.769 467.603 168.74C467.67 168.711 467.742 168.696 467.815 168.695C467.888 168.694 467.96 168.708 468.027 168.736C468.097 168.76 468.16 168.798 468.214 168.848C468.268 168.897 468.312 168.957 468.342 169.024C468.372 169.09 468.389 169.162 468.39 169.236C468.391 169.309 468.378 169.381 468.35 169.449C467.046 172.833 465.94 176.289 465.038 179.8C464.219 183.63 464.161 192.302 464.161 192.394C464.15 192.536 464.085 192.668 463.98 192.763C463.875 192.859 463.738 192.912 463.596 192.912Z" fill="#263238"/>
<path d="M259.649 288.845C261.196 263.944 258.345 218.686 305.313 224.679C355.651 231.096 341.249 289.765 341.249 289.765L259.649 288.845Z" fill="#263238"/>
<path d="M292.089 273.881C303.408 273.881 312.584 264.736 312.584 253.455C312.584 242.174 303.408 233.029 292.089 233.029C280.77 233.029 271.594 242.174 271.594 253.455C271.594 264.736 280.77 273.881 292.089 273.881Z" fill="white"/>
<path d="M294.778 233.063C285.072 231.407 274.686 238.549 273.671 245.772L312.157 249.291C310.795 241.056 302.475 234.374 294.778 233.063Z" fill="#263238"/>
<path d="M307.771 252.949C307.494 258.285 304.575 262.483 301.251 262.311C297.928 262.138 295.481 257.71 295.724 252.328C295.966 246.945 298.92 242.805 302.244 242.977C305.567 243.15 308.048 247.612 307.771 252.949Z" fill="#263238"/>
<path d="M292.089 274.997C287.813 274.999 283.633 273.738 280.077 271.372C276.521 269.006 273.749 265.643 272.112 261.707C270.474 257.771 270.044 253.439 270.877 249.259C271.709 245.08 273.767 241.24 276.79 238.226C279.812 235.213 283.663 233.16 287.856 232.328C292.049 231.496 296.396 231.921 300.346 233.552C304.296 235.182 307.673 237.943 310.048 241.486C312.424 245.028 313.692 249.194 313.692 253.455C313.686 259.164 311.408 264.638 307.358 268.677C303.309 272.715 297.817 274.988 292.089 274.997ZM292.089 234.144C288.257 234.144 284.511 235.277 281.324 237.399C278.138 239.521 275.655 242.536 274.188 246.065C272.722 249.594 272.338 253.476 273.085 257.222C273.833 260.968 275.678 264.409 278.388 267.11C281.098 269.81 284.55 271.649 288.309 272.395C292.067 273.14 295.963 272.757 299.504 271.296C303.044 269.834 306.07 267.359 308.199 264.183C310.328 261.008 311.465 257.274 311.465 253.455C311.455 248.336 309.411 243.43 305.779 239.81C302.148 236.191 297.225 234.153 292.089 234.144Z" fill="#3B2E80"/>
<path opacity="0.3" d="M335.548 288.223H335.421C335.277 288.185 335.154 288.094 335.077 287.967C334.999 287.841 334.974 287.69 335.006 287.545C335.006 287.395 338.595 272.329 334.902 257.089C334.867 256.946 334.89 256.795 334.967 256.668C335.044 256.542 335.168 256.452 335.311 256.416C335.455 256.381 335.607 256.405 335.734 256.481C335.86 256.558 335.951 256.681 335.987 256.825C339.749 272.329 336.125 287.66 336.09 287.809C336.059 287.929 335.989 288.035 335.891 288.11C335.793 288.185 335.672 288.225 335.548 288.223Z" fill="white"/>
<path opacity="0.3" d="M332.444 248.739C332.337 248.742 332.231 248.712 332.141 248.655C332.051 248.598 331.979 248.515 331.936 248.417C330.539 245.369 328.759 242.509 326.639 239.906C326.55 239.79 326.51 239.645 326.525 239.499C326.54 239.354 326.609 239.22 326.72 239.124C326.777 239.078 326.842 239.043 326.912 239.022C326.982 239 327.056 238.993 327.129 239.001C327.202 239.008 327.273 239.03 327.337 239.065C327.402 239.1 327.459 239.148 327.505 239.205C329.687 241.879 331.518 244.82 332.952 247.957C333.011 248.092 333.015 248.244 332.963 248.381C332.911 248.519 332.808 248.631 332.675 248.693C332.602 248.724 332.523 248.74 332.444 248.739Z" fill="white"/>
<path d="M155.155 405.641H154.74C154.008 405.62 153.287 405.456 152.618 405.158C151.95 404.86 151.347 404.434 150.844 403.904C150.341 403.373 149.947 402.75 149.686 402.068C149.425 401.386 149.301 400.66 149.322 399.93C149.342 399.201 149.506 398.482 149.805 397.816C150.104 397.15 150.532 396.549 151.064 396.048C151.596 395.546 152.222 395.154 152.906 394.894C153.59 394.633 154.319 394.51 155.051 394.53H155.155C158.375 394.53 166.13 390.631 182.343 365.156C182.772 364.478 183.342 363.901 184.016 363.464C184.689 363.028 185.45 362.741 186.245 362.626C187.04 362.51 187.851 362.567 188.621 362.793C189.392 363.02 190.105 363.41 190.71 363.937C203.443 374.852 217.335 384.347 232.138 392.253C233.457 392.92 234.457 394.081 234.917 395.482C235.377 396.883 235.259 398.408 234.591 399.723C233.922 401.038 232.756 402.034 231.351 402.492C229.945 402.951 228.414 402.834 227.095 402.167C213.344 394.879 200.345 386.262 188.286 376.439C174.692 396.796 164.606 405.641 155.155 405.641Z" fill="#263238"/>
<path d="M189.659 362.936C189.498 362.947 189.336 362.947 189.175 362.936C188.298 362.808 187.507 362.339 186.975 361.633C186.444 360.926 186.214 360.039 186.336 359.164C187.132 353.632 186.151 332.895 179.123 316.781C178.808 316.073 178.751 315.278 178.962 314.532C179.173 313.787 179.638 313.138 180.277 312.698C195.556 302.347 228.099 301.082 229.472 301.024C229.912 301.009 230.35 301.081 230.762 301.234C231.174 301.388 231.551 301.621 231.873 301.92C232.194 302.219 232.453 302.578 232.635 302.977C232.818 303.376 232.919 303.807 232.934 304.245C232.949 304.683 232.878 305.12 232.724 305.53C232.57 305.94 232.336 306.317 232.036 306.637C231.736 306.957 231.375 307.216 230.975 307.397C230.575 307.579 230.143 307.68 229.703 307.695C229.403 307.695 200.957 308.788 186.336 316.816C192.567 332.86 193.975 352.861 192.937 360.107C192.821 360.891 192.426 361.608 191.825 362.128C191.223 362.647 190.455 362.934 189.659 362.936Z" fill="#263238"/>
<path d="M195.279 358.623C193.052 353.39 183.024 354.023 177.138 358.474C173.988 360.866 169.73 368.077 169.28 370.688C169.146 371.314 169.168 371.962 169.342 372.578C169.516 373.194 169.838 373.758 170.28 374.222C170.722 374.686 171.27 375.036 171.878 375.242C172.486 375.448 173.135 375.503 173.769 375.404C177.611 375.07 182.885 369.503 182.885 369.503C179.423 372.954 183.912 375.358 190.675 370.389C194.425 367.64 197.772 364.477 195.279 358.623Z" fill="#3B2E80"/>
<path d="M387.097 290.317H386.947C386.804 290.276 386.682 290.181 386.609 290.052C386.535 289.923 386.516 289.77 386.555 289.627C388.044 284.474 389.671 281.323 391.806 279.574C391.466 278.381 391.523 277.11 391.967 275.952C392.497 274.577 393.44 273.4 394.668 272.582C394.342 272.232 394.111 271.806 393.996 271.344C393.881 270.881 393.886 270.397 394.01 269.936C394.417 268.565 395.249 267.357 396.387 266.486C395.979 266.021 395.754 265.424 395.752 264.807C395.752 261.494 401.903 256.445 408.873 255.502C408.946 255.489 409.02 255.491 409.092 255.508C409.163 255.525 409.23 255.557 409.289 255.601C409.347 255.646 409.396 255.702 409.432 255.766C409.468 255.83 409.49 255.901 409.496 255.974C409.516 256.119 409.477 256.265 409.389 256.382C409.3 256.498 409.169 256.575 409.023 256.595C402.399 257.503 396.849 262.276 396.872 264.807C396.869 264.992 396.904 265.176 396.973 265.347C397.043 265.519 397.145 265.675 397.276 265.807C398.781 264.789 400.475 264.081 402.259 263.726C404.042 263.37 405.879 263.374 407.662 263.737C411.124 264.381 412.474 265.106 412.278 266.141C411.978 268.096 404.684 268.499 399.803 267.912C398.926 267.836 398.073 267.594 397.287 267.199C396.253 267.955 395.485 269.018 395.095 270.235C395.001 270.559 395.004 270.903 395.102 271.225C395.201 271.548 395.39 271.835 395.648 272.053C397.714 270.983 400.634 270.546 404.477 271.386C409.531 272.536 409.727 273.111 409.843 273.479C409.882 273.607 409.885 273.743 409.853 273.872C409.82 274.002 409.753 274.12 409.658 274.215C408.596 275.365 400.841 274.813 396.964 273.858C396.498 273.748 396.048 273.578 395.625 273.352C394.475 274.055 393.588 275.113 393.098 276.366C392.785 277.182 392.697 278.068 392.844 278.93C393.046 278.808 393.254 278.697 393.467 278.597C395.775 277.447 398.557 277.688 401.995 279.16C404.303 280.127 405.377 280.989 405.457 281.863C405.473 282.095 405.421 282.327 405.309 282.531C405.196 282.734 405.028 282.902 404.823 283.013C403.126 284.163 397.16 283.968 394.067 282.323C393.35 281.943 392.754 281.369 392.348 280.667C390.525 282.335 389.059 285.268 387.732 289.96C387.687 290.086 387.598 290.192 387.482 290.257C387.365 290.323 387.228 290.344 387.097 290.317ZM393.144 279.965C393.455 280.541 393.929 281.012 394.506 281.323C397.022 282.657 401.972 282.956 403.83 282.208C404.211 282.059 404.269 281.932 404.269 281.932C404.269 281.932 404.211 281.311 401.476 280.138C398.349 278.815 395.856 278.62 393.86 279.563C393.617 279.666 393.375 279.793 393.144 279.942V279.965ZM396.86 272.662L397.149 272.743C400.778 273.58 404.513 273.859 408.227 273.571C406.913 273.071 405.558 272.686 404.176 272.421C401.769 271.776 399.224 271.852 396.86 272.639V272.662ZM398.268 266.417C398.787 266.598 399.325 266.718 399.872 266.773C405.434 267.429 410.339 266.658 411.066 265.968C410.881 265.796 410.131 265.324 407.362 264.818C404.24 264.174 400.989 264.737 398.268 266.394V266.417Z" fill="#263238"/>
<path d="M241.913 403.789C242.651 403.559 242.397 402.846 241.578 402.846H226.484C197.726 399.809 177.646 403.881 190.294 404.835C202.942 405.79 189.406 405.595 180.162 409.079C170.919 412.564 248.929 413.45 256.015 409.079C262.558 405.054 231.723 407.044 241.913 403.789Z" fill="#263238"/>
<path d="M350.031 408.228L218.648 403.881L213.201 276.918L368.345 280.38L350.031 408.228Z" fill="#3B2E80"/>
<path d="M259.649 405.79C259.51 405.791 259.376 405.739 259.273 405.645C259.171 405.551 259.107 405.422 259.095 405.284L248.559 277.769C248.547 277.616 248.596 277.465 248.696 277.349C248.795 277.232 248.937 277.16 249.09 277.148C249.243 277.135 249.395 277.184 249.512 277.284C249.629 277.383 249.701 277.524 249.713 277.677L260.226 405.192C260.233 405.265 260.225 405.338 260.202 405.407C260.18 405.476 260.145 405.541 260.097 405.596C260.05 405.652 259.992 405.698 259.927 405.731C259.862 405.764 259.791 405.784 259.719 405.79H259.649Z" fill="#263238"/>
<path d="M350.031 408.228L385.344 402.869L396.468 284.808L368.345 280.38L350.031 408.228Z" fill="#407BFF"/>
<path opacity="0.2" d="M350.031 408.228L385.344 402.869L396.468 284.808L368.345 280.38L350.031 408.228Z" fill="black"/>
<path d="M229.876 379.406L226.633 303.98C226.554 302.117 226.859 300.257 227.529 298.515C228.2 296.774 229.222 295.188 230.531 293.856C231.841 292.523 233.411 291.473 235.144 290.769C236.878 290.066 238.737 289.724 240.608 289.765L338.825 291.95C340.759 291.994 342.661 292.446 344.407 293.276C346.152 294.106 347.701 295.296 348.952 296.766C350.203 298.237 351.126 299.954 351.662 301.806C352.198 303.659 352.334 305.603 352.062 307.511L341.168 383.535C340.692 386.862 338.999 389.896 336.416 392.054C333.832 394.213 330.54 395.345 327.17 395.232L243.089 392.46C239.643 392.342 236.367 390.932 233.918 388.512C231.469 386.092 230.025 382.84 229.876 379.406Z" fill="#263238"/>
<path d="M240.481 312.905L255.679 313.388L255.553 317.299L246.044 317L245.951 319.898L254.779 320.186L254.652 323.912L245.836 323.636L245.72 327.236L255.506 327.547L255.368 331.687L239.904 331.192L240.481 312.905Z" fill="white"/>
<path d="M258.496 331.791L259.085 313.503L268.536 313.802C269.892 313.795 271.241 313.989 272.54 314.377C273.442 314.696 274.211 315.307 274.721 316.114C275.215 316.964 275.475 317.928 275.475 318.909C275.475 319.89 275.215 320.854 274.721 321.704C274.261 322.427 273.626 323.024 272.875 323.441C272.24 323.763 271.559 323.985 270.855 324.096C271.371 324.271 271.86 324.514 272.309 324.821C272.64 325.115 272.934 325.447 273.187 325.81C273.474 326.17 273.729 326.555 273.948 326.96L276.522 332.343L270.117 332.147L267.267 326.465C267.041 325.922 266.707 325.429 266.286 325.016C265.888 324.721 265.408 324.557 264.912 324.545H264.405L264.174 331.963L258.496 331.791ZM264.543 321.094L266.932 321.163C267.441 321.144 267.947 321.078 268.444 320.968C268.813 320.906 269.146 320.709 269.378 320.416C269.628 320.124 269.767 319.753 269.771 319.369C269.796 319.115 269.762 318.858 269.672 318.619C269.582 318.379 269.438 318.164 269.251 317.989C268.627 317.589 267.891 317.4 267.151 317.448L264.658 317.368L264.543 321.094Z" fill="white"/>
<path d="M278.437 332.389L279.025 314.101L288.476 314.4C289.829 314.393 291.174 314.587 292.469 314.976C293.377 315.29 294.15 315.902 294.662 316.712C295.228 317.616 295.495 318.674 295.423 319.737C295.425 320.625 295.186 321.497 294.73 322.26C294.275 323.023 293.622 323.65 292.838 324.073C292.204 324.396 291.522 324.617 290.819 324.729C291.334 324.903 291.824 325.147 292.273 325.453C292.603 325.747 292.898 326.079 293.15 326.442C293.437 326.803 293.692 327.187 293.912 327.592L296.485 332.975L290.08 332.78L287.23 327.098C286.999 326.557 286.666 326.065 286.249 325.649C285.847 325.354 285.364 325.189 284.864 325.177H284.368L284.137 332.596L278.437 332.389ZM284.483 321.692L286.872 321.761C287.381 321.741 287.887 321.676 288.384 321.566C288.752 321.501 289.084 321.304 289.319 321.014C289.564 320.719 289.702 320.35 289.711 319.967C289.731 319.713 289.694 319.458 289.605 319.22C289.515 318.981 289.374 318.765 289.192 318.587C288.568 318.187 287.832 317.998 287.092 318.046L284.599 317.966L284.483 321.692Z" fill="white"/>
<path d="M297.443 323.878C297.352 322.599 297.548 321.316 298.015 320.121C298.482 318.927 299.209 317.851 300.144 316.97C301.079 316.09 302.199 315.428 303.422 315.031C304.645 314.634 305.942 314.513 307.218 314.677C308.492 314.643 309.761 314.863 310.95 315.323C312.138 315.783 313.223 316.474 314.142 317.356C314.977 318.29 315.612 319.383 316.009 320.57C316.406 321.756 316.556 323.011 316.45 324.257C316.463 326.074 316.031 327.866 315.192 329.479C314.45 330.809 313.324 331.887 311.96 332.573C310.361 333.333 308.593 333.67 306.825 333.55C305.06 333.554 303.316 333.161 301.724 332.4C300.358 331.671 299.244 330.549 298.528 329.18C297.697 327.541 297.322 325.71 297.443 323.878ZM303.109 324.085C302.939 325.486 303.257 326.903 304.009 328.099C304.361 328.49 304.788 328.806 305.266 329.029C305.743 329.252 306.26 329.377 306.787 329.396C307.313 329.416 307.839 329.329 308.331 329.142C308.823 328.954 309.273 328.67 309.652 328.306C310.494 327.064 310.9 325.58 310.806 324.085C310.961 322.745 310.629 321.395 309.872 320.278C309.531 319.871 309.103 319.544 308.62 319.321C308.138 319.099 307.611 318.985 307.079 318.99C306.557 318.958 306.034 319.046 305.55 319.245C305.066 319.444 304.634 319.75 304.286 320.14C303.45 321.281 303.035 322.674 303.109 324.085Z" fill="white"/>
<path d="M319.288 333.711L319.877 315.424L329.328 315.723C330.681 315.719 332.027 315.916 333.321 316.31C334.227 316.62 335 317.229 335.513 318.035C336.071 318.929 336.337 319.974 336.275 321.025C336.265 321.945 336.011 322.847 335.536 323.636C335.076 324.36 334.441 324.957 333.69 325.373C333.056 325.696 332.374 325.917 331.671 326.028C332.632 326.283 333.458 326.897 333.979 327.742C334.268 328.1 334.524 328.486 334.74 328.892L337.314 334.275L330.909 334.068L328.058 328.386C327.832 327.846 327.498 327.357 327.078 326.948C326.68 326.646 326.194 326.48 325.693 326.477H325.197L324.966 333.895L319.288 333.711ZM325.335 323.015L327.724 323.096C328.233 323.075 328.74 323.006 329.236 322.888C329.604 322.832 329.938 322.639 330.17 322.348C330.446 321.996 330.585 321.557 330.562 321.111C330.539 320.665 330.355 320.242 330.043 319.921C329.419 319.521 328.683 319.332 327.943 319.381L325.45 319.3L325.335 323.015Z" fill="white"/>
<path d="M328.313 364.788C328.109 364.787 327.908 364.745 327.721 364.664C327.535 364.583 327.367 364.465 327.228 364.316L317.684 353.896L307.379 363.281C307.091 363.538 306.713 363.673 306.327 363.655C305.941 363.638 305.577 363.471 305.313 363.189L295.77 352.769L285.464 362.154C285.177 362.411 284.799 362.546 284.413 362.528C284.027 362.511 283.663 362.344 283.399 362.062L273.855 351.642L263.55 361.027C263.409 361.157 263.244 361.258 263.064 361.323C262.883 361.388 262.692 361.417 262.5 361.407C262.307 361.401 262.118 361.357 261.943 361.276C261.768 361.195 261.612 361.079 261.484 360.935L251.929 350.526L241.636 359.9C241.345 360.13 240.978 360.242 240.608 360.213C240.237 360.183 239.892 360.015 239.642 359.742C239.391 359.469 239.254 359.112 239.258 358.742C239.262 358.372 239.406 358.017 239.662 357.749L251.041 347.398C251.182 347.268 251.348 347.167 251.528 347.101C251.709 347.035 251.901 347.006 252.093 347.014C252.285 347.023 252.473 347.069 252.647 347.151C252.821 347.232 252.977 347.348 253.106 347.49L262.661 357.899L272.955 348.513C273.245 348.26 273.62 348.125 274.005 348.134C274.392 348.155 274.756 348.324 275.021 348.606L284.576 359.026L294.87 349.641C295.159 349.383 295.539 349.248 295.927 349.265C296.315 349.282 296.681 349.45 296.947 349.733L306.49 360.153L316.796 350.768C317.082 350.508 317.46 350.372 317.847 350.389C318.235 350.406 318.599 350.575 318.861 350.86L329.397 362.361C329.59 362.57 329.718 362.831 329.765 363.112C329.811 363.392 329.775 363.68 329.66 363.94C329.545 364.2 329.356 364.421 329.116 364.576C328.877 364.73 328.598 364.812 328.313 364.811V364.788Z" fill="white"/>
<path d="M153.112 410.379L146.638 406.848L139.818 376.91L142.75 373.391L153.112 410.379Z" fill="#3B2E80"/>
<path d="M153.113 410.379L161.318 405.434L153.148 380.648L142.75 373.391L153.113 410.379Z" fill="#407BFF"/>
<path opacity="0.2" d="M153.113 410.379L161.318 405.434L153.148 380.648L142.75 373.391L153.113 410.379Z" fill="black"/>
<path d="M303.721 416.417H302.948C301.469 416.376 300.068 415.751 299.052 414.68C298.036 413.61 297.488 412.18 297.53 410.707C297.571 409.234 298.198 407.837 299.272 406.824C300.347 405.812 301.781 405.266 303.259 405.307C311.845 405.583 330.032 400.327 340.418 390.275C341.066 389.649 341.859 389.191 342.726 388.941C360.324 383.673 366.879 394.312 367.156 394.772L357.555 400.43C357.592 400.499 357.635 400.564 357.682 400.626C357.578 400.476 355.085 397.245 347.146 399.246C334.082 411.092 314.072 416.417 303.721 416.417Z" fill="#263238"/>
<path d="M303.11 423.801L282.799 422.525L281.195 385.203L308.487 386.226L303.11 423.801Z" fill="#3B2E80"/>
<path d="M303.109 423.801L307.852 419.086L310.795 395.818L308.487 386.226L303.109 423.801Z" fill="#407BFF"/>
<path opacity="0.2" d="M303.109 423.801L307.852 419.086L310.795 395.818L308.487 386.226L303.109 423.801Z" fill="black"/>
<path d="M420.782 409.666C420.052 409.669 419.342 409.43 418.763 408.987C407.165 400.246 391.494 384.616 385.435 369.572C385.351 369.353 385.289 369.126 385.251 368.894C382.32 351.515 379.481 314.941 379.4 313.388C379.351 312.944 379.392 312.494 379.521 312.065C379.65 311.636 379.864 311.238 380.151 310.894C380.438 310.549 380.791 310.266 381.19 310.061C381.589 309.855 382.025 309.732 382.472 309.698C382.92 309.664 383.37 309.72 383.795 309.863C384.221 310.006 384.613 310.233 384.949 310.53C385.285 310.827 385.557 311.188 385.749 311.592C385.942 311.997 386.051 312.435 386.07 312.882C386.07 313.262 388.92 350.193 391.84 367.433C397.841 382.051 414.101 397.072 422.825 403.674C423.384 404.097 423.795 404.683 424.001 405.352C424.207 406.02 424.197 406.736 423.972 407.398C423.748 408.06 423.32 408.636 422.75 409.043C422.18 409.45 421.495 409.668 420.794 409.666H420.782Z" fill="#263238"/>
<path d="M436.211 411.357C433.626 411.357 430.695 410.207 427.499 407.906C426.779 407.388 426.296 406.606 426.156 405.732C426.015 404.859 426.228 403.965 426.748 403.248C427.269 402.531 428.053 402.05 428.93 401.91C429.806 401.77 430.703 401.982 431.422 402.501C434.18 404.49 435.692 404.709 436.211 404.709C437.099 404.709 437.95 405.06 438.578 405.686C439.205 406.311 439.558 407.16 439.558 408.044C439.558 408.929 439.205 409.777 438.578 410.403C437.95 411.028 437.099 411.38 436.211 411.38V411.357Z" fill="#263238"/>
<path d="M428.468 407.78C432.045 397.187 446.724 399.28 451.779 400.879C456.103 402.135 460.251 403.928 464.126 406.216C466.861 407.998 466.908 410.977 463.261 412.679C458.76 414.773 447.463 412.921 447.463 412.921C453.314 415.463 447.463 419.557 437.204 415.543C433.903 414.209 427.21 411.667 428.468 407.78Z" fill="#3B2E80"/>
<path d="M392.845 317.966C391.518 326.971 384.04 333.608 377.947 332.722C371.853 331.837 371.611 323.786 372.938 314.78C374.265 305.774 376.677 299.219 382.759 300.104C388.84 300.99 394.172 308.96 392.845 317.966Z" fill="#263238"/>
<path d="M245.652 282.013C246.155 282.013 246.564 281.606 246.564 281.104C246.564 280.602 246.155 280.196 245.652 280.196C245.148 280.196 244.74 280.602 244.74 281.104C244.74 281.606 245.148 282.013 245.652 282.013Z" fill="#263238"/>
<path d="M254.941 287.671C254.939 287.851 254.884 288.025 254.782 288.173C254.681 288.321 254.537 288.436 254.371 288.503C254.204 288.57 254.021 288.586 253.845 288.55C253.669 288.513 253.507 288.426 253.381 288.298C253.255 288.171 253.169 288.009 253.135 287.833C253.101 287.657 253.119 287.475 253.189 287.31C253.258 287.144 253.375 287.003 253.524 286.904C253.674 286.804 253.85 286.751 254.03 286.751C254.273 286.754 254.504 286.853 254.675 287.025C254.846 287.197 254.941 287.429 254.941 287.671Z" fill="#263238"/>
<path d="M255.968 395.381C255.971 395.564 255.919 395.743 255.818 395.896C255.718 396.048 255.575 396.168 255.407 396.24C255.238 396.311 255.052 396.331 254.872 396.297C254.692 396.262 254.527 396.176 254.397 396.048C254.266 395.919 254.177 395.755 254.141 395.577C254.104 395.398 254.122 395.212 254.191 395.043C254.261 394.875 254.379 394.73 254.531 394.629C254.683 394.527 254.862 394.473 255.045 394.473C255.166 394.471 255.286 394.494 255.398 394.539C255.51 394.584 255.611 394.65 255.697 394.735C255.783 394.819 255.851 394.92 255.898 395.031C255.944 395.142 255.968 395.261 255.968 395.381Z" fill="#263238"/>
<path d="M264.346 401.937C264.349 402.12 264.296 402.299 264.196 402.451C264.096 402.604 263.953 402.724 263.785 402.795C263.616 402.867 263.43 402.887 263.25 402.852C263.07 402.818 262.905 402.732 262.775 402.603C262.644 402.475 262.555 402.311 262.519 402.132C262.482 401.954 262.5 401.768 262.569 401.599C262.639 401.43 262.757 401.286 262.909 401.184C263.061 401.083 263.24 401.029 263.423 401.029C263.544 401.027 263.664 401.049 263.776 401.094C263.888 401.139 263.989 401.206 264.075 401.291C264.161 401.375 264.229 401.476 264.276 401.587C264.322 401.698 264.346 401.817 264.346 401.937Z" fill="#263238"/>
<path d="M103.606 412.898C102 412.819 100.432 412.384 99.0164 411.624C97.6008 410.864 96.3735 409.798 95.4244 408.504C95.3825 408.445 95.3529 408.378 95.3372 408.307C95.3215 408.235 95.32 408.162 95.3329 408.09C95.3458 408.019 95.3727 407.95 95.4122 407.889C95.4516 407.828 95.5029 407.775 95.5629 407.734C95.6221 407.691 95.6896 407.66 95.7611 407.643C95.8327 407.627 95.9069 407.625 95.9791 407.638C96.0514 407.651 96.1204 407.678 96.1817 407.718C96.2431 407.759 96.2956 407.811 96.3361 407.872C98.4248 410.862 103.006 412.472 105.049 411.518C105.244 411.424 105.42 411.295 105.568 411.138C104.553 410.693 103.663 410.007 102.976 409.138C102.29 408.27 101.829 407.246 101.633 406.158C101.379 404.755 101.183 402.846 102.348 402.581C103.952 402.225 106.041 406.032 106.849 408.999C106.994 409.483 107.041 409.992 106.987 410.494C107.635 410.681 108.314 410.735 108.984 410.655C109.283 410.629 109.574 410.542 109.838 410.4C110.102 410.257 110.333 410.062 110.519 409.827C109.783 409.276 109.174 408.576 108.73 407.773C108.287 406.97 108.019 406.083 107.945 405.169C107.507 402.133 107.841 401.604 108.176 401.339C108.283 401.257 108.41 401.205 108.544 401.189C108.678 401.172 108.814 401.193 108.938 401.247C110.092 401.753 111.58 406.066 111.857 408.504C111.886 408.764 111.886 409.027 111.857 409.286C112.337 409.467 112.845 409.564 113.358 409.574C114.303 409.607 115.238 409.364 116.046 408.872L115.596 408.55C114.442 407.561 113.981 405.986 114.177 403.731C114.327 401.983 114.719 401.04 115.423 400.741C115.649 400.648 115.898 400.624 116.138 400.671C116.378 400.718 116.599 400.834 116.773 401.006C117.526 401.833 118.088 402.815 118.421 403.882C118.754 404.948 118.849 406.075 118.701 407.182C118.607 407.643 118.414 408.079 118.135 408.458C120.635 408.64 123.146 408.359 125.544 407.63C125.616 407.608 125.692 407.6 125.767 407.607C125.843 407.615 125.916 407.638 125.982 407.675C126.048 407.712 126.106 407.762 126.152 407.822C126.198 407.882 126.231 407.951 126.249 408.024C126.267 408.097 126.27 408.174 126.257 408.248C126.245 408.322 126.217 408.394 126.176 408.457C126.135 408.52 126.081 408.574 126.018 408.616C125.955 408.658 125.884 408.687 125.809 408.7C122.797 409.448 119.543 410.057 117.247 409.39C116.123 410.243 114.746 410.696 113.334 410.678C112.712 410.671 112.096 410.558 111.511 410.345C111.256 410.736 110.916 411.066 110.517 411.311C110.118 411.555 109.669 411.709 109.203 411.759C108.366 411.858 107.517 411.784 106.711 411.541C106.431 411.976 106.03 412.32 105.557 412.53C104.94 412.79 104.275 412.915 103.606 412.898ZM102.637 403.697C102.486 404.46 102.517 405.248 102.729 405.997C102.889 406.888 103.261 407.727 103.813 408.446C104.365 409.164 105.082 409.74 105.903 410.126C105.886 409.857 105.84 409.591 105.764 409.332C104.899 406.101 103.225 403.915 102.637 403.697ZM108.857 402.719C108.857 403.49 108.923 404.26 109.053 405.019C109.191 406.371 109.804 407.63 110.784 408.573C110.496 406.516 109.843 404.526 108.857 402.696V402.719ZM115.873 401.753C115.873 401.753 115.458 401.972 115.296 403.823C115.135 405.675 115.469 406.963 116.335 407.699C116.537 407.871 116.762 408.015 117.004 408.125C117.311 407.805 117.523 407.407 117.616 406.975C117.817 405.224 117.338 403.462 116.277 402.052C116.177 401.908 116.037 401.796 115.873 401.73V401.753Z" fill="#263238"/>
<path d="M266.839 421.271L269.851 416.049L266.839 410.828H263.597L265.432 416.049L263.597 421.271H266.839Z" fill="#263238"/>
<path d="M263.816 418.775C263.443 418.799 263.069 418.747 262.716 418.621C262.364 418.495 262.042 418.299 261.769 418.044C261.496 417.789 261.278 417.481 261.129 417.139C260.98 416.797 260.904 416.428 260.904 416.055C260.904 415.682 260.98 415.313 261.129 414.971C261.278 414.629 261.496 414.321 261.769 414.066C262.042 413.811 262.364 413.615 262.716 413.489C263.069 413.363 263.443 413.311 263.816 413.335L258.669 412.311L257.308 416.452L259.616 419.902L263.816 418.775Z" fill="#263238"/>
<path d="M264.267 410.828H258.208L255.185 416.049L258.208 421.271H264.267L267.29 416.049L264.267 410.828ZM261.243 418.775C260.702 418.777 260.172 418.619 259.72 418.321C259.269 418.023 258.917 417.598 258.708 417.1C258.499 416.603 258.443 416.054 258.548 415.525C258.652 414.995 258.911 414.508 259.294 414.126C259.676 413.744 260.163 413.483 260.694 413.377C261.225 413.271 261.775 413.324 262.275 413.53C262.776 413.736 263.204 414.085 263.505 414.534C263.806 414.982 263.967 415.51 263.967 416.049C263.963 416.771 263.674 417.463 263.162 417.973C262.65 418.484 261.956 418.772 261.232 418.775H261.243Z" fill="#407BFF"/>
<path d="M477.641 410.471L475.391 406.595L477.641 402.719H480.041L478.679 406.595L480.041 410.471H477.641Z" fill="#407BFF"/>
<path d="M479.88 408.619C480.159 408.64 480.439 408.604 480.703 408.512C480.967 408.42 481.209 408.275 481.414 408.085C481.619 407.896 481.782 407.666 481.894 407.411C482.006 407.155 482.064 406.88 482.064 406.601C482.064 406.322 482.006 406.047 481.894 405.791C481.782 405.536 481.619 405.306 481.414 405.117C481.209 404.927 480.967 404.782 480.703 404.69C480.439 404.598 480.159 404.561 479.88 404.582L483.7 403.823L484.715 406.894L483.007 409.448L479.88 408.619Z" fill="#407BFF"/>
<path d="M479.556 402.719H484.057L486.295 406.595L484.057 410.471H479.556L477.306 406.595L479.556 402.719ZM481.795 408.619C482.197 408.622 482.591 408.505 482.926 408.284C483.262 408.063 483.524 407.747 483.679 407.378C483.835 407.008 483.877 406.601 483.8 406.207C483.723 405.814 483.53 405.452 483.247 405.168C482.963 404.884 482.601 404.69 482.207 404.611C481.812 404.532 481.404 404.571 481.032 404.724C480.66 404.877 480.342 405.136 480.118 405.469C479.895 405.803 479.775 406.194 479.775 406.595C479.775 407.13 479.988 407.643 480.366 408.022C480.744 408.402 481.258 408.616 481.795 408.619Z" fill="#263238"/>
<path d="M394.057 415.624H399.1C399.732 415.621 400.338 415.369 400.786 414.923C401.233 414.477 401.485 413.873 401.489 413.243C401.482 412.615 401.228 412.014 400.781 411.57C400.334 411.127 399.73 410.877 399.1 410.874H394.057C393.425 410.874 392.819 411.123 392.372 411.567C391.924 412.011 391.671 412.614 391.668 413.243C391.668 413.874 391.92 414.48 392.368 414.926C392.816 415.373 393.423 415.624 394.057 415.624Z" fill="#263238"/>
<path d="M386.014 411.138C386.486 410.295 387.195 409.607 388.054 409.16C388.912 408.713 389.884 408.525 390.848 408.62C391.812 408.716 392.728 409.089 393.482 409.696C394.236 410.303 394.795 411.116 395.092 412.035C395.389 412.955 395.41 413.94 395.152 414.871C394.894 415.802 394.369 416.638 393.642 417.276C392.914 417.914 392.015 418.326 391.056 418.461C390.096 418.597 389.118 418.45 388.241 418.039C387.638 417.734 387.102 417.312 386.664 416.799C386.225 416.287 385.893 415.692 385.686 415.051C385.479 414.409 385.401 413.733 385.457 413.062C385.514 412.39 385.703 411.737 386.014 411.138Z" fill="#407BFF"/>
<path d="M387.383 418.012L388.761 418.659L393.563 408.506L392.186 407.858L387.383 418.012Z" fill="#263238"/>
</svg>
