<svg width="323" height="80" viewBox="0 0 323 80" fill="none" xmlns="http://www.w3.org/2000/svg">
<path d="M0 15C0 6.71573 6.71573 0 15 0H308C316.284 0 323 6.71573 323 15V65C323 73.2843 316.284 80 308 80H15C6.71573 80 0 73.2843 0 65V15Z" fill="#6FC62A"/>
<path d="M103.326 35.216C101.418 35.216 99.84 34.586 98.592 33.326C97.344 32.066 96.72 30.524 96.72 28.7C96.72 26.876 97.344 25.334 98.592 24.074C99.84 22.814 101.418 22.184 103.326 22.184C104.49 22.184 105.558 22.466 106.53 23.03C107.502 23.582 108.252 24.332 108.78 25.28L107.664 25.928C107.268 25.16 106.68 24.548 105.9 24.092C105.12 23.636 104.262 23.408 103.326 23.408C101.754 23.408 100.47 23.918 99.474 24.938C98.478 25.958 97.98 27.212 97.98 28.7C97.98 30.188 98.478 31.442 99.474 32.462C100.47 33.482 101.754 33.992 103.326 33.992C104.262 33.992 105.12 33.764 105.9 33.308C106.68 32.852 107.268 32.24 107.664 31.472L108.78 32.102C108.264 33.05 107.514 33.806 106.53 34.37C105.558 34.934 104.49 35.216 103.326 35.216ZM118.126 33.866C117.214 34.766 116.098 35.216 114.778 35.216C113.458 35.216 112.336 34.766 111.412 33.866C110.5 32.954 110.044 31.832 110.044 30.5C110.044 29.168 110.5 28.052 111.412 27.152C112.336 26.24 113.458 25.784 114.778 25.784C116.098 25.784 117.214 26.24 118.126 27.152C119.05 28.052 119.512 29.168 119.512 30.5C119.512 31.832 119.05 32.954 118.126 33.866ZM112.258 33.038C112.942 33.722 113.782 34.064 114.778 34.064C115.774 34.064 116.614 33.722 117.298 33.038C117.982 32.342 118.324 31.496 118.324 30.5C118.324 29.504 117.982 28.664 117.298 27.98C116.614 27.284 115.774 26.936 114.778 26.936C113.782 26.936 112.942 27.284 112.258 27.98C111.574 28.664 111.232 29.504 111.232 30.5C111.232 31.496 111.574 32.342 112.258 33.038ZM125.712 25.784C126.804 25.784 127.662 26.12 128.286 26.792C128.922 27.452 129.24 28.346 129.24 29.474V35H128.052V29.474C128.052 28.67 127.836 28.046 127.404 27.602C126.984 27.158 126.384 26.936 125.604 26.936C124.74 26.936 124.038 27.212 123.498 27.764C122.958 28.304 122.688 29.144 122.688 30.284V35H121.5V26H122.688V27.404C123.36 26.324 124.368 25.784 125.712 25.784ZM136.307 27.152H133.715V32.606C133.715 33.098 133.811 33.452 134.003 33.668C134.195 33.872 134.483 33.98 134.867 33.992C135.251 33.992 135.731 33.98 136.307 33.956V35C135.047 35.192 134.099 35.102 133.463 34.73C132.839 34.358 132.527 33.65 132.527 32.606V27.152H130.637V26H132.527V23.84L133.715 23.48V26H136.307V27.152ZM143.952 22.4L142.224 24.74H141.072L142.512 22.4H143.952ZM145.482 26H146.67V35H145.482V33.236C144.654 34.556 143.442 35.216 141.846 35.216C140.562 35.216 139.464 34.76 138.552 33.848C137.652 32.936 137.202 31.82 137.202 30.5C137.202 29.18 137.652 28.064 138.552 27.152C139.464 26.24 140.562 25.784 141.846 25.784C143.442 25.784 144.654 26.444 145.482 27.764V26ZM139.416 33.038C140.1 33.722 140.94 34.064 141.936 34.064C142.932 34.064 143.772 33.722 144.456 33.038C145.14 32.342 145.482 31.496 145.482 30.5C145.482 29.504 145.14 28.664 144.456 27.98C143.772 27.284 142.932 26.936 141.936 26.936C140.94 26.936 140.1 27.284 139.416 27.98C138.732 28.664 138.39 29.504 138.39 30.5C138.39 31.496 138.732 32.342 139.416 33.038ZM153.38 35.216C152.024 35.216 150.896 34.766 149.996 33.866C149.096 32.954 148.646 31.832 148.646 30.5C148.646 29.168 149.096 28.052 149.996 27.152C150.896 26.24 152.024 25.784 153.38 25.784C154.268 25.784 155.066 26 155.774 26.432C156.482 26.852 156.998 27.422 157.322 28.142L156.35 28.7C156.11 28.16 155.72 27.734 155.18 27.422C154.652 27.098 154.052 26.936 153.38 26.936C152.384 26.936 151.544 27.284 150.86 27.98C150.176 28.664 149.834 29.504 149.834 30.5C149.834 31.496 150.176 32.342 150.86 33.038C151.544 33.722 152.384 34.064 153.38 34.064C154.052 34.064 154.652 33.908 155.18 33.596C155.708 33.272 156.122 32.84 156.422 32.3L157.412 32.876C157.04 33.596 156.494 34.166 155.774 34.586C155.054 35.006 154.256 35.216 153.38 35.216ZM163.887 27.152H161.295V32.606C161.295 33.098 161.391 33.452 161.583 33.668C161.775 33.872 162.063 33.98 162.447 33.992C162.831 33.992 163.311 33.98 163.887 33.956V35C162.627 35.192 161.679 35.102 161.043 34.73C160.419 34.358 160.107 33.65 160.107 32.606V27.152H158.217V26H160.107V23.84L161.295 23.48V26H163.887V27.152ZM173.062 26H174.251V35H173.062V33.236C172.235 34.556 171.023 35.216 169.427 35.216C168.143 35.216 167.045 34.76 166.133 33.848C165.233 32.936 164.783 31.82 164.783 30.5C164.783 29.18 165.233 28.064 166.133 27.152C167.045 26.24 168.143 25.784 169.427 25.784C171.023 25.784 172.235 26.444 173.062 27.764V26ZM166.997 33.038C167.681 33.722 168.521 34.064 169.517 34.064C170.513 34.064 171.353 33.722 172.037 33.038C172.721 32.342 173.062 31.496 173.062 30.5C173.062 29.504 172.721 28.664 172.037 27.98C171.353 27.284 170.513 26.936 169.517 26.936C168.521 26.936 167.681 27.284 166.997 27.98C166.313 28.664 165.971 29.504 165.971 30.5C165.971 31.496 166.313 32.342 166.997 33.038ZM180.978 25.784C182.07 25.784 182.928 26.12 183.552 26.792C184.188 27.452 184.506 28.346 184.506 29.474V35H183.318V29.474C183.318 28.67 183.102 28.046 182.67 27.602C182.25 27.158 181.65 26.936 180.87 26.936C180.006 26.936 179.304 27.212 178.764 27.764C178.224 28.304 177.954 29.144 177.954 30.284V35H176.766V26H177.954V27.404C178.626 26.324 179.634 25.784 180.978 25.784ZM194.345 33.866C193.433 34.766 192.317 35.216 190.997 35.216C189.677 35.216 188.555 34.766 187.631 33.866C186.719 32.954 186.263 31.832 186.263 30.5C186.263 29.168 186.719 28.052 187.631 27.152C188.555 26.24 189.677 25.784 190.997 25.784C192.317 25.784 193.433 26.24 194.345 27.152C195.269 28.052 195.731 29.168 195.731 30.5C195.731 31.832 195.269 32.954 194.345 33.866ZM188.477 33.038C189.161 33.722 190.001 34.064 190.997 34.064C191.993 34.064 192.833 33.722 193.517 33.038C194.201 32.342 194.543 31.496 194.543 30.5C194.543 29.504 194.201 28.664 193.517 27.98C192.833 27.284 191.993 26.936 190.997 26.936C190.001 26.936 189.161 27.284 188.477 27.98C187.793 28.664 187.451 29.504 187.451 30.5C187.451 31.496 187.793 32.342 188.477 33.038ZM198.479 28.358C198.479 28.766 198.659 29.09 199.019 29.33C199.379 29.57 199.817 29.756 200.333 29.888C200.849 30.02 201.365 30.17 201.881 30.338C202.397 30.494 202.835 30.764 203.195 31.148C203.555 31.52 203.735 32.012 203.735 32.624C203.735 33.392 203.429 34.016 202.817 34.496C202.217 34.976 201.437 35.216 200.477 35.216C199.613 35.216 198.875 35.024 198.263 34.64C197.663 34.256 197.243 33.758 197.003 33.146L198.011 32.552C198.179 33.02 198.479 33.392 198.911 33.668C199.355 33.932 199.877 34.064 200.477 34.064C201.065 34.064 201.557 33.95 201.953 33.722C202.349 33.482 202.547 33.116 202.547 32.624C202.547 32.216 202.367 31.892 202.007 31.652C201.647 31.412 201.209 31.226 200.693 31.094C200.177 30.962 199.661 30.818 199.145 30.662C198.629 30.494 198.191 30.224 197.831 29.852C197.471 29.468 197.291 28.97 197.291 28.358C197.291 27.626 197.579 27.014 198.155 26.522C198.743 26.03 199.481 25.784 200.369 25.784C201.101 25.784 201.743 25.952 202.295 26.288C202.847 26.612 203.255 27.056 203.519 27.62L202.529 28.196C202.181 27.356 201.461 26.936 200.369 26.936C199.853 26.936 199.409 27.062 199.037 27.314C198.665 27.554 198.479 27.902 198.479 28.358ZM215.041 25.784C216.325 25.784 217.417 26.24 218.317 27.152C219.229 28.064 219.685 29.18 219.685 30.5C219.685 31.82 219.229 32.936 218.317 33.848C217.417 34.76 216.325 35.216 215.041 35.216C213.445 35.216 212.233 34.556 211.405 33.236V38.6H210.217V26H211.405V27.764C212.233 26.444 213.445 25.784 215.041 25.784ZM212.431 33.038C213.115 33.722 213.955 34.064 214.951 34.064C215.947 34.064 216.787 33.722 217.471 33.038C218.155 32.342 218.497 31.496 218.497 30.5C218.497 29.504 218.155 28.664 217.471 27.98C216.787 27.284 215.947 26.936 214.951 26.936C213.955 26.936 213.115 27.284 212.431 27.98C211.747 28.664 211.405 29.504 211.405 30.5C211.405 31.496 211.747 32.342 212.431 33.038ZM229.202 33.866C228.29 34.766 227.174 35.216 225.854 35.216C224.534 35.216 223.412 34.766 222.488 33.866C221.576 32.954 221.12 31.832 221.12 30.5C221.12 29.168 221.576 28.052 222.488 27.152C223.412 26.24 224.534 25.784 225.854 25.784C227.174 25.784 228.29 26.24 229.202 27.152C230.126 28.052 230.588 29.168 230.588 30.5C230.588 31.832 230.126 32.954 229.202 33.866ZM223.334 33.038C224.018 33.722 224.858 34.064 225.854 34.064C226.85 34.064 227.69 33.722 228.374 33.038C229.058 32.342 229.4 31.496 229.4 30.5C229.4 29.504 229.058 28.664 228.374 27.98C227.69 27.284 226.85 26.936 225.854 26.936C224.858 26.936 224.018 27.284 223.334 27.98C222.65 28.664 222.308 29.504 222.308 30.5C222.308 31.496 222.65 32.342 223.334 33.038ZM233.764 27.494C234.316 26.402 235.264 25.856 236.608 25.856V27.008C235.792 27.008 235.114 27.248 234.574 27.728C234.034 28.208 233.764 28.964 233.764 29.996V35H232.576V26H233.764V27.494ZM101.454 54.216C100.098 54.216 98.97 53.766 98.07 52.866C97.17 51.954 96.72 50.832 96.72 49.5C96.72 48.168 97.17 47.052 98.07 46.152C98.97 45.24 100.098 44.784 101.454 44.784C102.342 44.784 103.14 45 103.848 45.432C104.556 45.852 105.072 46.422 105.396 47.142L104.424 47.7C104.184 47.16 103.794 46.734 103.254 46.422C102.726 46.098 102.126 45.936 101.454 45.936C100.458 45.936 99.618 46.284 98.934 46.98C98.25 47.664 97.908 48.504 97.908 49.5C97.908 50.496 98.25 51.342 98.934 52.038C99.618 52.722 100.458 53.064 101.454 53.064C102.126 53.064 102.726 52.908 103.254 52.596C103.782 52.272 104.196 51.84 104.496 51.3L105.486 51.876C105.114 52.596 104.568 53.166 103.848 53.586C103.128 54.006 102.33 54.216 101.454 54.216ZM114.646 52.866C113.734 53.766 112.618 54.216 111.298 54.216C109.978 54.216 108.856 53.766 107.932 52.866C107.02 51.954 106.564 50.832 106.564 49.5C106.564 48.168 107.02 47.052 107.932 46.152C108.856 45.24 109.978 44.784 111.298 44.784C112.618 44.784 113.734 45.24 114.646 46.152C115.57 47.052 116.032 48.168 116.032 49.5C116.032 50.832 115.57 51.954 114.646 52.866ZM108.778 52.038C109.462 52.722 110.302 53.064 111.298 53.064C112.294 53.064 113.134 52.722 113.818 52.038C114.502 51.342 114.844 50.496 114.844 49.5C114.844 48.504 114.502 47.664 113.818 46.98C113.134 46.284 112.294 45.936 111.298 45.936C110.302 45.936 109.462 46.284 108.778 46.98C108.094 47.664 107.752 48.504 107.752 49.5C107.752 50.496 108.094 51.342 108.778 52.038ZM119.208 46.494C119.76 45.402 120.708 44.856 122.052 44.856V46.008C121.236 46.008 120.558 46.248 120.018 46.728C119.478 47.208 119.208 47.964 119.208 48.996V54H118.02V45H119.208V46.494ZM124.868 46.494C125.42 45.402 126.368 44.856 127.712 44.856V46.008C126.896 46.008 126.218 46.248 125.678 46.728C125.138 47.208 124.868 47.964 124.868 48.996V54H123.68V45H124.868V46.494ZM132.953 44.784C134.285 44.784 135.359 45.258 136.175 46.206C137.003 47.142 137.417 48.252 137.417 49.536C137.417 49.668 137.405 49.854 137.381 50.094H129.479C129.599 51.006 129.983 51.732 130.631 52.272C131.291 52.8 132.101 53.064 133.061 53.064C133.745 53.064 134.333 52.926 134.825 52.65C135.329 52.362 135.707 51.99 135.959 51.534L137.003 52.146C136.607 52.782 136.067 53.286 135.383 53.658C134.699 54.03 133.919 54.216 133.043 54.216C131.627 54.216 130.475 53.772 129.587 52.884C128.699 51.996 128.255 50.868 128.255 49.5C128.255 48.156 128.693 47.034 129.569 46.134C130.445 45.234 131.573 44.784 132.953 44.784ZM132.953 45.936C132.017 45.936 131.231 46.218 130.595 46.782C129.971 47.334 129.599 48.054 129.479 48.942H136.193C136.073 47.994 135.707 47.256 135.095 46.728C134.483 46.2 133.769 45.936 132.953 45.936ZM146.849 52.866C145.937 53.766 144.821 54.216 143.501 54.216C142.181 54.216 141.059 53.766 140.135 52.866C139.223 51.954 138.767 50.832 138.767 49.5C138.767 48.168 139.223 47.052 140.135 46.152C141.059 45.24 142.181 44.784 143.501 44.784C144.821 44.784 145.937 45.24 146.849 46.152C147.773 47.052 148.235 48.168 148.235 49.5C148.235 50.832 147.773 51.954 146.849 52.866ZM140.981 52.038C141.665 52.722 142.505 53.064 143.501 53.064C144.497 53.064 145.337 52.722 146.021 52.038C146.705 51.342 147.047 50.496 147.047 49.5C147.047 48.504 146.705 47.664 146.021 46.98C145.337 46.284 144.497 45.936 143.501 45.936C142.505 45.936 141.665 46.284 140.981 46.98C140.297 47.664 139.955 48.504 139.955 49.5C139.955 50.496 140.297 51.342 140.981 52.038ZM158.881 44.784C160.213 44.784 161.287 45.258 162.103 46.206C162.931 47.142 163.345 48.252 163.345 49.536C163.345 49.668 163.333 49.854 163.309 50.094H155.407C155.527 51.006 155.911 51.732 156.559 52.272C157.219 52.8 158.029 53.064 158.989 53.064C159.673 53.064 160.261 52.926 160.753 52.65C161.257 52.362 161.635 51.99 161.887 51.534L162.931 52.146C162.535 52.782 161.995 53.286 161.311 53.658C160.627 54.03 159.847 54.216 158.971 54.216C157.555 54.216 156.403 53.772 155.515 52.884C154.627 51.996 154.183 50.868 154.183 49.5C154.183 48.156 154.621 47.034 155.497 46.134C156.373 45.234 157.501 44.784 158.881 44.784ZM158.881 45.936C157.945 45.936 157.159 46.218 156.523 46.782C155.899 47.334 155.527 48.054 155.407 48.942H162.121C162.001 47.994 161.635 47.256 161.023 46.728C160.411 46.2 159.697 45.936 158.881 45.936ZM165.235 54V40.86H166.423V54H165.235ZM173.102 44.784C174.434 44.784 175.508 45.258 176.324 46.206C177.152 47.142 177.566 48.252 177.566 49.536C177.566 49.668 177.554 49.854 177.53 50.094H169.628C169.748 51.006 170.132 51.732 170.78 52.272C171.44 52.8 172.25 53.064 173.21 53.064C173.894 53.064 174.482 52.926 174.974 52.65C175.478 52.362 175.856 51.99 176.108 51.534L177.152 52.146C176.756 52.782 176.216 53.286 175.532 53.658C174.848 54.03 174.068 54.216 173.192 54.216C171.776 54.216 170.624 53.772 169.736 52.884C168.848 51.996 168.404 50.868 168.404 49.5C168.404 48.156 168.842 47.034 169.718 46.134C170.594 45.234 171.722 44.784 173.102 44.784ZM173.102 45.936C172.166 45.936 171.38 46.218 170.744 46.782C170.12 47.334 169.748 48.054 169.628 48.942H176.342C176.222 47.994 175.856 47.256 175.244 46.728C174.632 46.2 173.918 45.936 173.102 45.936ZM183.649 54.216C182.293 54.216 181.165 53.766 180.265 52.866C179.365 51.954 178.915 50.832 178.915 49.5C178.915 48.168 179.365 47.052 180.265 46.152C181.165 45.24 182.293 44.784 183.649 44.784C184.537 44.784 185.335 45 186.043 45.432C186.751 45.852 187.267 46.422 187.591 47.142L186.619 47.7C186.379 47.16 185.989 46.734 185.449 46.422C184.921 46.098 184.321 45.936 183.649 45.936C182.653 45.936 181.813 46.284 181.129 46.98C180.445 47.664 180.103 48.504 180.103 49.5C180.103 50.496 180.445 51.342 181.129 52.038C181.813 52.722 182.653 53.064 183.649 53.064C184.321 53.064 184.921 52.908 185.449 52.596C185.977 52.272 186.391 51.84 186.691 51.3L187.681 51.876C187.309 52.596 186.763 53.166 186.043 53.586C185.323 54.006 184.525 54.216 183.649 54.216ZM194.157 46.152H191.565V51.606C191.565 52.098 191.661 52.452 191.853 52.668C192.045 52.872 192.333 52.98 192.717 52.992C193.101 52.992 193.581 52.98 194.157 52.956V54C192.897 54.192 191.949 54.102 191.313 53.73C190.689 53.358 190.377 52.65 190.377 51.606V46.152H188.487V45H190.377V42.84L191.565 42.48V45H194.157V46.152ZM197.325 46.494C197.877 45.402 198.825 44.856 200.169 44.856V46.008C199.353 46.008 198.675 46.248 198.135 46.728C197.595 47.208 197.325 47.964 197.325 48.996V54H196.137V45H197.325V46.494ZM204.546 43.74H205.698L207.426 41.4H205.986L204.546 43.74ZM208.794 52.866C207.882 53.766 206.766 54.216 205.446 54.216C204.126 54.216 203.004 53.766 202.08 52.866C201.168 51.954 200.712 50.832 200.712 49.5C200.712 48.168 201.168 47.052 202.08 46.152C203.004 45.24 204.126 44.784 205.446 44.784C206.766 44.784 207.882 45.24 208.794 46.152C209.718 47.052 210.18 48.168 210.18 49.5C210.18 50.832 209.718 51.954 208.794 52.866ZM202.926 52.038C203.61 52.722 204.45 53.064 205.446 53.064C206.442 53.064 207.282 52.722 207.966 52.038C208.65 51.342 208.992 50.496 208.992 49.5C208.992 48.504 208.65 47.664 207.966 46.98C207.282 46.284 206.442 45.936 205.446 45.936C204.45 45.936 203.61 46.284 202.926 46.98C202.242 47.664 201.9 48.504 201.9 49.5C201.9 50.496 202.242 51.342 202.926 52.038ZM216.38 44.784C217.472 44.784 218.33 45.12 218.954 45.792C219.59 46.452 219.908 47.346 219.908 48.474V54H218.72V48.474C218.72 47.67 218.504 47.046 218.072 46.602C217.652 46.158 217.052 45.936 216.272 45.936C215.408 45.936 214.706 46.212 214.166 46.764C213.626 47.304 213.356 48.144 213.356 49.284V54H212.168V45H213.356V46.404C214.028 45.324 215.036 44.784 216.38 44.784ZM223.411 42.84C223.243 43.008 223.039 43.092 222.799 43.092C222.559 43.092 222.355 43.008 222.187 42.84C222.019 42.672 221.935 42.468 221.935 42.228C221.935 41.988 222.019 41.784 222.187 41.616C222.355 41.448 222.559 41.364 222.799 41.364C223.039 41.364 223.243 41.448 223.411 41.616C223.579 41.784 223.663 41.988 223.663 42.228C223.663 42.468 223.579 42.672 223.411 42.84ZM222.205 54V45H223.393V54H222.205ZM230.108 54.216C228.752 54.216 227.624 53.766 226.724 52.866C225.824 51.954 225.374 50.832 225.374 49.5C225.374 48.168 225.824 47.052 226.724 46.152C227.624 45.24 228.752 44.784 230.108 44.784C230.996 44.784 231.794 45 232.502 45.432C233.21 45.852 233.726 46.422 234.05 47.142L233.078 47.7C232.838 47.16 232.448 46.734 231.908 46.422C231.38 46.098 230.78 45.936 230.108 45.936C229.112 45.936 228.272 46.284 227.588 46.98C226.904 47.664 226.562 48.504 226.562 49.5C226.562 50.496 226.904 51.342 227.588 52.038C228.272 52.722 229.112 53.064 230.108 53.064C230.78 53.064 231.38 52.908 231.908 52.596C232.436 52.272 232.85 51.84 233.15 51.3L234.14 51.876C233.768 52.596 233.222 53.166 232.502 53.586C231.782 54.006 230.984 54.216 230.108 54.216ZM243.3 52.866C242.388 53.766 241.272 54.216 239.952 54.216C238.632 54.216 237.51 53.766 236.586 52.866C235.674 51.954 235.218 50.832 235.218 49.5C235.218 48.168 235.674 47.052 236.586 46.152C237.51 45.24 238.632 44.784 239.952 44.784C241.272 44.784 242.388 45.24 243.3 46.152C244.224 47.052 244.686 48.168 244.686 49.5C244.686 50.832 244.224 51.954 243.3 52.866ZM237.432 52.038C238.116 52.722 238.956 53.064 239.952 53.064C240.948 53.064 241.788 52.722 242.472 52.038C243.156 51.342 243.498 50.496 243.498 49.5C243.498 48.504 243.156 47.664 242.472 46.98C241.788 46.284 240.948 45.936 239.952 45.936C238.956 45.936 238.116 46.284 237.432 46.98C236.748 47.664 236.406 48.504 236.406 49.5C236.406 50.496 236.748 51.342 237.432 52.038Z" fill="white"/>
<g clip-path="url(#clip0_20_44)">
<path d="M72.7499 22.4219H34.6091C32.3711 22.4219 30.542 24.3896 30.542 26.8164V53.1836C30.542 55.6113 32.3723 57.5781 34.6091 57.5781H72.7499C74.9879 57.5781 76.8171 55.6105 76.8171 53.1836V26.8164C76.8171 24.389 74.987 22.4219 72.7499 22.4219ZM72.1254 25.3516C70.8104 26.7771 55.3647 43.5205 54.7301 44.2084C54.2001 44.7828 53.1592 44.7832 52.6289 44.2084L35.2337 25.3516H72.1254ZM33.2534 52.645V27.355L44.9184 40L33.2534 52.645ZM35.2337 54.6484L46.8326 42.075L50.7086 46.2767C52.297 47.9984 55.0627 47.9978 56.6505 46.2767L60.5265 42.0751L72.1254 54.6484H35.2337ZM74.1056 52.645L62.4406 40L74.1056 27.355V52.645Z" fill="white"/>
</g>
<defs>
<clipPath id="clip0_20_44">
<rect width="46.2751" height="50" fill="white" transform="translate(30.542 15)"/>
</clipPath>
</defs>
</svg>
