<svg width="323" height="80" viewBox="0 0 323 80" fill="none" xmlns="http://www.w3.org/2000/svg">
<path d="M0 15C0 6.71573 6.71573 0 15 0H308C316.284 0 323 6.71573 323 15V65C323 73.2843 316.284 80 308 80H15C6.71573 80 0 73.2843 0 65V15Z" fill="#6FC62A"/>
<path d="M105 28.342C105 29.29 104.742 30.13 104.226 30.862L100.104 37H98.682L101.778 32.392C101.454 32.464 101.118 32.5 100.77 32.5C99.534 32.5 98.52 32.116 97.728 31.348C96.936 30.568 96.54 29.566 96.54 28.342C96.54 27.118 96.936 26.122 97.728 25.354C98.52 24.574 99.534 24.184 100.77 24.184C102.006 24.184 103.02 24.574 103.812 25.354C104.604 26.122 105 27.118 105 28.342ZM98.61 26.218C98.07 26.758 97.8 27.466 97.8 28.342C97.8 29.218 98.07 29.926 98.61 30.466C99.162 31.006 99.882 31.276 100.77 31.276C101.658 31.276 102.372 31.006 102.912 30.466C103.464 29.926 103.74 29.218 103.74 28.342C103.74 27.466 103.464 26.758 102.912 26.218C102.372 25.678 101.658 25.408 100.77 25.408C99.882 25.408 99.162 25.678 98.61 26.218ZM119.873 37L118.703 33.904H112.727L111.557 37H110.225L115.067 24.4H116.363L121.205 37H119.873ZM113.177 32.716H118.253L115.715 25.966L113.177 32.716ZM128.771 28H130.031L126.341 37H124.901L121.211 28H122.471L125.621 35.758L128.771 28ZM135.273 27.784C136.605 27.784 137.679 28.258 138.495 29.206C139.323 30.142 139.737 31.252 139.737 32.536C139.737 32.668 139.725 32.854 139.701 33.094H131.799C131.919 34.006 132.303 34.732 132.951 35.272C133.611 35.8 134.421 36.064 135.381 36.064C136.065 36.064 136.653 35.926 137.145 35.65C137.649 35.362 138.027 34.99 138.279 34.534L139.323 35.146C138.927 35.782 138.387 36.286 137.703 36.658C137.019 37.03 136.239 37.216 135.363 37.216C133.947 37.216 132.795 36.772 131.907 35.884C131.019 34.996 130.575 33.868 130.575 32.5C130.575 31.156 131.013 30.034 131.889 29.134C132.765 28.234 133.893 27.784 135.273 27.784ZM135.273 28.936C134.337 28.936 133.551 29.218 132.915 29.782C132.291 30.334 131.919 31.054 131.799 31.942H138.513C138.393 30.994 138.027 30.256 137.415 29.728C136.803 29.2 136.089 28.936 135.273 28.936ZM145.839 27.784C146.931 27.784 147.789 28.12 148.413 28.792C149.049 29.452 149.367 30.346 149.367 31.474V37H148.179V31.474C148.179 30.67 147.963 30.046 147.531 29.602C147.111 29.158 146.511 28.936 145.731 28.936C144.867 28.936 144.165 29.212 143.625 29.764C143.085 30.304 142.815 31.144 142.815 32.284V37H141.627V28H142.815V29.404C143.487 28.324 144.495 27.784 145.839 27.784ZM152.87 25.84C152.702 26.008 152.498 26.092 152.258 26.092C152.018 26.092 151.814 26.008 151.646 25.84C151.478 25.672 151.394 25.468 151.394 25.228C151.394 24.988 151.478 24.784 151.646 24.616C151.814 24.448 152.018 24.364 152.258 24.364C152.498 24.364 152.702 24.448 152.87 24.616C153.038 24.784 153.122 24.988 153.122 25.228C153.122 25.468 153.038 25.672 152.87 25.84ZM151.664 37V28H152.852V37H151.664ZM163.113 24.4H164.301V37H163.113V35.236C162.285 36.556 161.073 37.216 159.477 37.216C158.193 37.216 157.095 36.76 156.183 35.848C155.283 34.936 154.833 33.82 154.833 32.5C154.833 31.18 155.283 30.064 156.183 29.152C157.095 28.24 158.193 27.784 159.477 27.784C161.073 27.784 162.285 28.444 163.113 29.764V24.4ZM157.047 35.038C157.731 35.722 158.571 36.064 159.567 36.064C160.563 36.064 161.403 35.722 162.087 35.038C162.771 34.342 163.113 33.496 163.113 32.5C163.113 31.504 162.771 30.664 162.087 29.98C161.403 29.284 160.563 28.936 159.567 28.936C158.571 28.936 157.731 29.284 157.047 29.98C156.363 30.664 156.021 31.504 156.021 32.5C156.021 33.496 156.363 34.342 157.047 35.038ZM174.557 28H175.745V37H174.557V35.236C173.729 36.556 172.517 37.216 170.921 37.216C169.637 37.216 168.539 36.76 167.627 35.848C166.727 34.936 166.277 33.82 166.277 32.5C166.277 31.18 166.727 30.064 167.627 29.152C168.539 28.24 169.637 27.784 170.921 27.784C172.517 27.784 173.729 28.444 174.557 29.764V28ZM168.491 35.038C169.175 35.722 170.015 36.064 171.011 36.064C172.007 36.064 172.847 35.722 173.531 35.038C174.215 34.342 174.557 33.496 174.557 32.5C174.557 31.504 174.215 30.664 173.531 29.98C172.847 29.284 172.007 28.936 171.011 28.936C170.015 28.936 169.175 29.284 168.491 29.98C167.807 30.664 167.465 31.504 167.465 32.5C167.465 33.496 167.807 34.342 168.491 35.038ZM185.1 24.4H186.18V37H184.92V25.786L182.094 26.632L181.77 25.552L185.1 24.4ZM191.217 24.4H192.297V37H191.037V25.786L188.211 26.632L187.887 25.552L191.217 24.4ZM195.174 32.014V30.862H201.654V32.014H195.174ZM207.856 28.9C209.092 28.9 210.106 29.29 210.898 30.07C211.69 30.838 212.086 31.834 212.086 33.058C212.086 34.282 211.69 35.284 210.898 36.064C210.106 36.832 209.092 37.216 207.856 37.216C206.62 37.216 205.606 36.832 204.814 36.064C204.022 35.284 203.626 34.282 203.626 33.058C203.626 32.11 203.884 31.27 204.4 30.538L208.522 24.4H209.944L206.848 29.008C207.172 28.936 207.508 28.9 207.856 28.9ZM205.696 35.182C206.248 35.722 206.968 35.992 207.856 35.992C208.744 35.992 209.458 35.722 209.998 35.182C210.55 34.642 210.826 33.934 210.826 33.058C210.826 32.182 210.55 31.474 209.998 30.934C209.458 30.394 208.744 30.124 207.856 30.124C206.968 30.124 206.248 30.394 205.696 30.934C205.156 31.474 204.886 32.182 204.886 33.058C204.886 33.934 205.156 34.642 205.696 35.182ZM217.049 29.476C218.225 29.476 219.221 29.824 220.037 30.52C220.865 31.204 221.279 32.146 221.279 33.346C221.279 34.546 220.865 35.494 220.037 36.19C219.221 36.874 218.225 37.216 217.049 37.216C216.101 37.216 215.255 36.988 214.511 36.532C213.767 36.064 213.263 35.398 212.999 34.534L214.061 33.922C214.241 34.594 214.595 35.11 215.123 35.47C215.663 35.818 216.305 35.992 217.049 35.992C217.913 35.992 218.621 35.764 219.173 35.308C219.737 34.84 220.019 34.186 220.019 33.346C220.019 32.506 219.737 31.858 219.173 31.402C218.621 30.934 217.913 30.7 217.049 30.7H213.629L214.079 24.4H220.829V25.588H215.195L214.925 29.476H217.049ZM224.888 35.47L223.808 39.52H222.728L223.448 35.47H224.888ZM235.873 37.216C234.721 37.216 233.731 36.946 232.903 36.406C232.087 35.854 231.517 35.098 231.193 34.138L232.273 33.508C232.501 34.288 232.921 34.9 233.533 35.344C234.145 35.776 234.931 35.992 235.891 35.992C236.827 35.992 237.553 35.788 238.069 35.38C238.597 34.96 238.861 34.408 238.861 33.724C238.861 33.064 238.621 32.566 238.141 32.23C237.661 31.894 236.869 31.546 235.765 31.186C234.457 30.754 233.593 30.406 233.173 30.142C232.213 29.566 231.733 28.732 231.733 27.64C231.733 26.572 232.105 25.732 232.849 25.12C233.593 24.496 234.511 24.184 235.603 24.184C236.587 24.184 237.439 24.442 238.159 24.958C238.879 25.462 239.413 26.11 239.761 26.902L238.699 27.496C238.123 26.104 237.091 25.408 235.603 25.408C234.823 25.408 234.193 25.6 233.713 25.984C233.233 26.368 232.993 26.902 232.993 27.586C232.993 28.21 233.209 28.678 233.641 28.99C234.073 29.302 234.787 29.62 235.783 29.944C236.239 30.1 236.563 30.214 236.755 30.286C236.959 30.346 237.247 30.454 237.619 30.61C238.003 30.754 238.285 30.886 238.465 31.006C238.645 31.114 238.861 31.27 239.113 31.474C239.377 31.666 239.563 31.864 239.671 32.068C239.791 32.26 239.893 32.5 239.977 32.788C240.073 33.064 240.121 33.364 240.121 33.688C240.121 34.756 239.731 35.614 238.951 36.262C238.171 36.898 237.145 37.216 235.873 37.216ZM249.822 35.866C248.91 36.766 247.794 37.216 246.474 37.216C245.154 37.216 244.032 36.766 243.108 35.866C242.196 34.954 241.74 33.832 241.74 32.5C241.74 31.168 242.196 30.052 243.108 29.152C244.032 28.24 245.154 27.784 246.474 27.784C247.794 27.784 248.91 28.24 249.822 29.152C250.746 30.052 251.208 31.168 251.208 32.5C251.208 33.832 250.746 34.954 249.822 35.866ZM243.954 35.038C244.638 35.722 245.478 36.064 246.474 36.064C247.47 36.064 248.31 35.722 248.994 35.038C249.678 34.342 250.02 33.496 250.02 32.5C250.02 31.504 249.678 30.664 248.994 29.98C248.31 29.284 247.47 28.936 246.474 28.936C245.478 28.936 244.638 29.284 243.954 29.98C243.27 30.664 242.928 31.504 242.928 32.5C242.928 33.496 243.27 34.342 243.954 35.038ZM253.196 37V23.86H254.384V37H253.196ZM264.447 35.866C263.535 36.766 262.419 37.216 261.099 37.216C259.779 37.216 258.657 36.766 257.733 35.866C256.821 34.954 256.365 33.832 256.365 32.5C256.365 31.168 256.821 30.052 257.733 29.152C258.657 28.24 259.779 27.784 261.099 27.784C262.419 27.784 263.535 28.24 264.447 29.152C265.371 30.052 265.833 31.168 265.833 32.5C265.833 33.832 265.371 34.954 264.447 35.866ZM258.579 35.038C259.263 35.722 260.103 36.064 261.099 36.064C262.095 36.064 262.935 35.722 263.619 35.038C264.303 34.342 264.645 33.496 264.645 32.5C264.645 31.504 264.303 30.664 263.619 29.98C262.935 29.284 262.095 28.936 261.099 28.936C260.103 28.936 259.263 29.284 258.579 29.98C257.895 30.664 257.553 31.504 257.553 32.5C257.553 33.496 257.895 34.342 258.579 35.038ZM267.821 37V23.86H269.009V37H267.821ZM277.74 24.4L276.012 26.74H274.86L276.3 24.4H277.74ZM279.27 28H280.458V37H279.27V35.236C278.442 36.556 277.23 37.216 275.634 37.216C274.35 37.216 273.252 36.76 272.34 35.848C271.44 34.936 270.99 33.82 270.99 32.5C270.99 31.18 271.44 30.064 272.34 29.152C273.252 28.24 274.35 27.784 275.634 27.784C277.23 27.784 278.442 28.444 279.27 29.764V28ZM273.204 35.038C273.888 35.722 274.728 36.064 275.724 36.064C276.72 36.064 277.56 35.722 278.244 35.038C278.928 34.342 279.27 33.496 279.27 32.5C279.27 31.504 278.928 30.664 278.244 29.98C277.56 29.284 276.72 28.936 275.724 28.936C274.728 28.936 273.888 29.284 273.204 29.98C272.52 30.664 272.178 31.504 272.178 32.5C272.178 33.496 272.52 34.342 273.204 35.038ZM284.485 36.892C284.293 37.084 284.059 37.18 283.783 37.18C283.507 37.18 283.273 37.084 283.081 36.892C282.889 36.7 282.793 36.466 282.793 36.19C282.793 35.914 282.889 35.68 283.081 35.488C283.273 35.296 283.507 35.2 283.783 35.2C284.059 35.2 284.293 35.296 284.485 35.488C284.677 35.68 284.773 35.914 284.773 36.19C284.773 36.466 284.677 36.7 284.485 36.892ZM109.482 50.006V50.654C109.482 52.214 108.924 53.534 107.808 54.614C106.692 55.682 105.198 56.216 103.326 56.216C101.418 56.216 99.84 55.586 98.592 54.326C97.344 53.066 96.72 51.524 96.72 49.7C96.72 47.876 97.344 46.334 98.592 45.074C99.84 43.814 101.418 43.184 103.326 43.184C104.49 43.184 105.558 43.466 106.53 44.03C107.502 44.594 108.252 45.344 108.78 46.28L107.664 46.928C107.268 46.16 106.68 45.548 105.9 45.092C105.12 44.636 104.262 44.408 103.326 44.408C101.754 44.408 100.47 44.918 99.474 45.938C98.478 46.958 97.98 48.212 97.98 49.7C97.98 51.188 98.478 52.442 99.474 53.462C100.47 54.482 101.754 54.992 103.326 54.992C104.742 54.992 105.876 54.638 106.728 53.93C107.58 53.21 108.066 52.298 108.186 51.194H103.182V50.006H109.482ZM117.887 47H119.075V56H117.887V54.596C117.215 55.676 116.207 56.216 114.863 56.216C113.771 56.216 112.907 55.886 112.271 55.226C111.647 54.554 111.335 53.654 111.335 52.526V47H112.523V52.526C112.523 53.33 112.733 53.954 113.153 54.398C113.585 54.842 114.191 55.064 114.971 55.064C115.835 55.064 116.537 54.794 117.077 54.254C117.617 53.702 117.887 52.856 117.887 51.716V47ZM129.328 47H130.516V56H129.328V54.236C128.5 55.556 127.288 56.216 125.692 56.216C124.408 56.216 123.31 55.76 122.398 54.848C121.498 53.936 121.048 52.82 121.048 51.5C121.048 50.18 121.498 49.064 122.398 48.152C123.31 47.24 124.408 46.784 125.692 46.784C127.288 46.784 128.5 47.444 129.328 48.764V47ZM123.262 54.038C123.946 54.722 124.786 55.064 125.782 55.064C126.778 55.064 127.618 54.722 128.302 54.038C128.986 53.342 129.328 52.496 129.328 51.5C129.328 50.504 128.986 49.664 128.302 48.98C127.618 48.284 126.778 47.936 125.782 47.936C124.786 47.936 123.946 48.284 123.262 48.98C122.578 49.664 122.236 50.504 122.236 51.5C122.236 52.496 122.578 53.342 123.262 54.038ZM137.801 48.152H135.209V53.606C135.209 54.098 135.305 54.452 135.497 54.668C135.689 54.872 135.977 54.98 136.361 54.992C136.745 54.992 137.225 54.98 137.801 54.956V56C136.541 56.192 135.593 56.102 134.957 55.73C134.333 55.358 134.021 54.65 134.021 53.606V48.152H132.131V47H134.021V44.84L135.209 44.48V47H137.801V48.152ZM143.395 46.784C144.727 46.784 145.801 47.258 146.617 48.206C147.445 49.142 147.859 50.252 147.859 51.536C147.859 51.668 147.847 51.854 147.823 52.094H139.921C140.041 53.006 140.425 53.732 141.073 54.272C141.733 54.8 142.543 55.064 143.503 55.064C144.187 55.064 144.775 54.926 145.267 54.65C145.771 54.362 146.149 53.99 146.401 53.534L147.445 54.146C147.049 54.782 146.509 55.286 145.825 55.658C145.141 56.03 144.361 56.216 143.485 56.216C142.069 56.216 140.917 55.772 140.029 54.884C139.141 53.996 138.697 52.868 138.697 51.5C138.697 50.156 139.135 49.034 140.011 48.134C140.887 47.234 142.015 46.784 143.395 46.784ZM143.395 47.936C142.459 47.936 141.673 48.218 141.037 48.782C140.413 49.334 140.041 50.054 139.921 50.942H146.635C146.515 49.994 146.149 49.256 145.537 48.728C144.925 48.2 144.211 47.936 143.395 47.936ZM159.342 46.784C160.35 46.784 161.16 47.108 161.772 47.756C162.396 48.404 162.708 49.28 162.708 50.384V56H161.52V50.384C161.52 49.604 161.316 49.004 160.908 48.584C160.512 48.152 159.984 47.936 159.324 47.936C158.58 47.936 157.974 48.188 157.506 48.692C157.05 49.184 156.822 49.958 156.822 51.014V56H155.634V50.384C155.634 49.592 155.442 48.986 155.058 48.566C154.686 48.146 154.176 47.936 153.528 47.936C152.808 47.936 152.196 48.188 151.692 48.692C151.188 49.196 150.936 49.97 150.936 51.014V56H149.748V47H150.936V48.314C151.584 47.294 152.502 46.784 153.69 46.784C154.986 46.784 155.898 47.33 156.426 48.422C157.074 47.33 158.046 46.784 159.342 46.784ZM172.746 47H173.934V56H172.746V54.236C171.918 55.556 170.706 56.216 169.11 56.216C167.826 56.216 166.728 55.76 165.816 54.848C164.916 53.936 164.466 52.82 164.466 51.5C164.466 50.18 164.916 49.064 165.816 48.152C166.728 47.24 167.826 46.784 169.11 46.784C170.706 46.784 171.918 47.444 172.746 48.764V47ZM166.68 54.038C167.364 54.722 168.204 55.064 169.2 55.064C170.196 55.064 171.036 54.722 171.72 54.038C172.404 53.342 172.746 52.496 172.746 51.5C172.746 50.504 172.404 49.664 171.72 48.98C171.036 48.284 170.196 47.936 169.2 47.936C168.204 47.936 167.364 48.284 166.68 48.98C165.996 49.664 165.654 50.504 165.654 51.5C165.654 52.496 165.996 53.342 166.68 54.038ZM176.449 56V42.86H177.637V56H176.449ZM187.898 47H189.086V56H187.898V54.236C187.07 55.556 185.858 56.216 184.262 56.216C182.978 56.216 181.88 55.76 180.968 54.848C180.068 53.936 179.618 52.82 179.618 51.5C179.618 50.18 180.068 49.064 180.968 48.152C181.88 47.24 182.978 46.784 184.262 46.784C185.858 46.784 187.07 47.444 187.898 48.764V47ZM181.832 54.038C182.516 54.722 183.356 55.064 184.352 55.064C185.348 55.064 186.188 54.722 186.872 54.038C187.556 53.342 187.898 52.496 187.898 51.5C187.898 50.504 187.556 49.664 186.872 48.98C186.188 48.284 185.348 47.936 184.352 47.936C183.356 47.936 182.516 48.284 181.832 48.98C181.148 49.664 180.806 50.504 180.806 51.5C180.806 52.496 181.148 53.342 181.832 54.038Z" fill="white"/>
<g clip-path="url(#clip0_20_30)">
<path d="M74.5306 37.3584C73.7803 37.3584 73.1714 37.9498 73.1714 38.6786V53.6278L62.2974 57.8523V43.9591C62.2974 43.2304 61.6885 42.639 60.9382 42.639C60.1879 42.639 59.5789 43.2304 59.5789 43.9591V57.8497L48.705 53.6252V32.7089L55.0037 35.1564C55.6915 35.4257 56.4907 35.0983 56.7707 34.4198C57.0508 33.7439 56.7109 32.9755 56.0123 32.7036L47.8758 29.5405C47.8758 29.5405 47.8758 29.5405 47.8731 29.5405L47.8514 29.5326C47.5279 29.4059 47.1663 29.4059 46.8428 29.5326L46.8184 29.5405C46.8184 29.5405 46.8184 29.5405 46.8156 29.5405L33.2476 34.8132C32.7339 35.0138 32.394 35.497 32.394 36.0383V59.8008C32.394 60.2391 32.6197 60.6484 32.9921 60.8939C33.2205 61.0444 33.4842 61.121 33.7533 61.121C33.9246 61.121 34.0958 61.0893 34.2589 61.0259L47.3457 55.9434L60.4081 61.018C60.4081 61.018 60.4081 61.018 60.4108 61.018L60.4353 61.0286C60.7588 61.1553 61.1203 61.1553 61.4438 61.0286L61.4683 61.018C61.4683 61.018 61.4683 61.018 61.471 61.018L75.039 55.748C75.5501 55.5447 75.8899 55.0615 75.8899 54.5203V38.6786C75.8899 37.9498 75.281 37.3584 74.5306 37.3584ZM45.9865 53.6252L35.1125 57.8497V36.9307L45.9865 32.7062V53.6252Z" fill="white"/>
<path d="M66.3751 24.157C64.1269 24.157 62.2974 25.9339 62.2974 28.1174C62.2974 30.3009 64.1269 32.0778 66.3751 32.0778C68.6233 32.0778 70.4528 30.3009 70.4528 28.1174C70.4528 25.9339 68.6233 24.157 66.3751 24.157ZM66.3751 29.4376C65.6248 29.4376 65.0159 28.8461 65.0159 28.1174C65.0159 27.3887 65.6248 26.7973 66.3751 26.7973C67.1254 26.7973 67.7343 27.3887 67.7343 28.1174C67.7343 28.8461 67.1254 29.4376 66.3751 29.4376Z" fill="white"/>
<path d="M66.3751 18.8764C61.1284 18.8764 56.8604 23.0217 56.8604 28.1174C56.8604 32.8594 64.4939 41.2581 65.3638 42.2007C65.622 42.4779 65.989 42.639 66.3751 42.639C66.7611 42.639 67.1281 42.4779 67.3863 42.2007C68.2563 41.2581 75.8898 32.8594 75.8898 28.1174C75.8898 23.0217 71.6218 18.8764 66.3751 18.8764ZM66.3751 39.3043C63.4065 35.8851 59.5788 30.6362 59.5788 28.1174C59.5788 24.4791 62.629 21.5167 66.3751 21.5167C70.1211 21.5167 73.1713 24.4791 73.1713 28.1174C73.1713 30.6336 69.3437 35.8851 66.3751 39.3043Z" fill="white"/>
</g>
<defs>
<clipPath id="clip0_20_30">
<rect width="43.4986" height="42.2472" fill="white" transform="translate(32.3926 18.8764)"/>
</clipPath>
</defs>
</svg>
