<svg width="324" height="80" viewBox="0 0 324 80" fill="none" xmlns="http://www.w3.org/2000/svg">
<rect x="0.925781" width="323" height="80" rx="15" fill="#AA1878"/>
<g clip-path="url(#clip0_20_2)">
<path d="M75.4695 47.1937C72.7756 47.1937 70.1306 46.7533 67.6241 45.8873C66.3731 45.4418 64.954 45.7875 64.1364 46.656L59.189 50.5605C53.4515 47.3586 49.9173 43.6649 46.8964 37.7116L50.5212 32.6741C51.463 31.6909 51.8008 30.2546 51.3961 28.9069C50.5642 26.2727 50.1416 23.5088 50.1416 20.6913C50.1417 18.6559 48.5578 17 46.6111 17H38.5305C36.5839 17 35 18.6559 35 20.691C35 44.0206 53.1544 63 75.4695 63C77.4162 63 79.0001 61.3441 79.0001 59.3089V50.8848C79 48.8496 77.4161 47.1937 75.4695 47.1937Z" fill="white"/>
<path d="M58.2223 27.2222H55.7779C55.1023 27.2222 54.5557 27.7937 54.5557 28.5C54.5557 29.2063 55.1023 29.7778 55.7779 29.7778H58.2223C60.2443 29.7778 61.889 28.0583 61.889 25.9445C61.889 23.8306 60.2443 22.1112 58.2223 22.1112C57.5479 22.1112 57.0001 21.5383 57.0001 20.8333C57.0001 20.1284 57.5479 19.5555 58.2223 19.5555H60.6667C61.3423 19.5555 61.889 18.984 61.889 18.2777C61.889 17.5715 61.3423 17 60.6667 17H58.2223C56.2004 17 54.5557 18.7195 54.5557 20.8333C54.5557 22.9472 56.2004 24.6667 58.2223 24.6667C58.8967 24.6667 59.4446 25.2394 59.4446 25.9445C59.4445 26.6495 58.8967 27.2222 58.2223 27.2222Z" fill="white"/>
<path d="M75.3332 22.1112C74.6588 22.1112 74.1109 21.5384 74.1109 20.8333C74.1109 20.1282 74.6588 19.5555 75.3332 19.5555H77.7776C78.4532 19.5555 78.9998 18.984 78.9998 18.2777C78.9998 17.5715 78.4532 17 77.7776 17H75.3332C73.3112 17 71.6665 18.7195 71.6665 20.8333C71.6665 22.9472 73.3112 24.6667 75.3332 24.6667C76.0075 24.6667 76.5554 25.2394 76.5554 25.9445C76.5554 26.6495 76.0076 27.2223 75.3332 27.2223H72.8888C72.2132 27.2222 71.6665 27.7937 71.6665 28.5C71.6665 29.2063 72.2132 29.7778 72.8888 29.7778H75.3332C77.3551 29.7778 78.9998 28.0583 78.9998 25.9445C78.9998 23.8306 77.3551 22.1112 75.3332 22.1112Z" fill="white"/>
<path d="M66.7775 29.7778C68.7994 29.7778 70.4442 28.0583 70.4442 25.9445V20.8333C70.4442 18.7195 68.7994 17 66.7775 17C64.7556 17 63.1108 18.7195 63.1108 20.8333V25.9445C63.1108 28.0583 64.7557 29.7778 66.7775 29.7778ZM65.5554 20.8333C65.5554 20.1284 66.1032 19.5555 66.7776 19.5555C67.4519 19.5555 67.9998 20.1284 67.9998 20.8333V25.9445C67.9998 26.6495 67.4519 27.2223 66.7775 27.2223C66.1032 27.2223 65.5552 26.6496 65.5552 25.9445V20.8333H65.5554Z" fill="white"/>
</g>
<path d="M102.54 62H121.58V55.84H112.18L116.82 51.16C119.38 48.6 121.18 45.72 121.18 42.36C121.18 36.72 116.7 33.44 111.7 33.44C107.82 33.44 104.06 35.4 102.26 39.56L107.66 42.72C108.42 40.96 109.82 39.68 111.78 39.68C113.66 39.68 114.78 40.88 114.78 42.64C114.78 44.28 113.58 45.92 111.94 47.6L102.54 57.36V62ZM145.398 51.6H142.598V45.6H136.118V51.6H130.278L139.198 34H132.318L123.398 51.6V57.52H136.118V62H142.598V57.52H145.398V51.6ZM173.401 34V44.72H164.601V34H158.201V62H164.601V50.88H173.401V62H179.801V34H173.401ZM197.967 62.56C206.007 62.56 212.527 56.24 212.527 48C212.527 39.76 206.007 33.44 197.967 33.44C189.927 33.44 183.407 39.76 183.407 48C183.407 56.24 189.927 62.56 197.967 62.56ZM197.967 56.32C193.407 56.32 189.807 53 189.807 48C189.807 43 193.407 39.68 197.967 39.68C202.527 39.68 206.127 43 206.127 48C206.127 53 202.527 56.32 197.967 56.32ZM230.85 62H237.73L231.77 51.72C234.85 50.16 236.93 47.04 236.93 43.6C236.93 38.28 232.65 34 227.33 34H216.13V62H222.53V52.8H225.57L230.85 62ZM222.53 40H227.33C229.09 40 230.53 41.56 230.53 43.6C230.53 45.64 229.09 47.2 227.33 47.2H222.53V40ZM258.54 62H265.54L256.02 34H247.86L238.34 62H245.34L246.74 57.6H257.14L258.54 62ZM248.66 51.6L251.94 41.32L255.22 51.6H248.66ZM277.141 62.56C283.221 62.56 287.541 59.36 287.541 53.96C287.541 48.04 282.781 46.56 278.541 45.28C274.181 43.96 273.501 43.08 273.501 41.8C273.501 40.68 274.501 39.68 276.501 39.68C279.061 39.68 280.381 40.92 281.341 42.92L286.741 39.76C284.701 35.64 281.101 33.44 276.501 33.44C271.661 33.44 267.101 36.56 267.101 41.96C267.101 47.32 271.181 49.32 275.341 50.48C279.541 51.64 281.141 52.32 281.141 54.04C281.141 55.12 280.381 56.32 277.341 56.32C274.181 56.32 272.461 54.76 271.461 52.44L265.941 55.64C267.501 59.76 271.261 62.56 277.141 62.56Z" fill="white"/>
<path d="M106.548 23.536V21.552H110.548V19.12H106.548V17.264H110.948V14.8H103.988V26H111.028V23.536H106.548ZM123.672 14.8H121.112L118.072 19.776L115.032 14.8H112.472V26H115.032V19.488L117.928 24.24H118.216L121.112 19.488V26H123.672V14.8ZM128.157 23.536V21.552H132.157V19.12H128.157V17.264H132.557V14.8H125.597V26H132.637V23.536H128.157ZM139.97 26H142.722L140.338 21.888C141.57 21.264 142.402 20.016 142.402 18.64C142.402 16.512 140.69 14.8 138.562 14.8H134.082V26H136.642V22.32H137.858L139.97 26ZM136.642 17.2H138.562C139.266 17.2 139.842 17.824 139.842 18.64C139.842 19.456 139.266 20.08 138.562 20.08H136.642V17.2ZM154.857 19.76H149.241V22H152.233C151.833 23.072 150.857 23.728 149.369 23.728C147.193 23.728 145.849 22.336 145.849 20.432C145.849 18.464 147.257 17.072 149.145 17.072C150.409 17.072 151.417 17.648 151.881 18.384L154.057 17.136C153.113 15.632 151.305 14.576 149.161 14.576C145.865 14.576 143.289 17.168 143.289 20.416C143.289 23.632 145.817 26.224 149.337 26.224C152.473 26.224 154.857 24.144 154.857 20.72V19.76ZM158.86 23.536V21.552H162.86V19.12H158.86V17.264H163.26V14.8H156.3V26H163.34V23.536H158.86ZM171.025 14.8V20.88L166.705 14.8H164.785V26H167.345V19.92L171.665 26H173.585V14.8H171.025ZM180.847 26.224C182.895 26.224 184.687 25.216 185.647 23.632L183.439 22.352C182.959 23.216 181.983 23.728 180.847 23.728C178.863 23.728 177.583 22.4 177.583 20.4C177.583 18.4 178.863 17.072 180.847 17.072C181.983 17.072 182.943 17.584 183.439 18.448L185.647 17.168C184.671 15.584 182.879 14.576 180.847 14.576C177.471 14.576 175.023 17.104 175.023 20.4C175.023 23.696 177.471 26.224 180.847 26.224ZM186.847 14.8V26H189.407V14.8H186.847ZM198.452 26H201.252L197.444 14.8H194.18L190.372 26H193.172L193.732 24.24H197.892L198.452 26ZM194.5 21.84L195.812 17.728L197.124 21.84H194.5ZM205.892 26.224C208.324 26.224 210.052 24.944 210.052 22.784C210.052 20.416 208.148 19.824 206.452 19.312C204.708 18.784 204.436 18.432 204.436 17.92C204.436 17.472 204.836 17.072 205.636 17.072C206.66 17.072 207.188 17.568 207.572 18.368L209.732 17.104C208.916 15.456 207.476 14.576 205.636 14.576C203.7 14.576 201.876 15.824 201.876 17.984C201.876 20.128 203.508 20.928 205.172 21.392C206.852 21.856 207.492 22.128 207.492 22.816C207.492 23.248 207.188 23.728 205.972 23.728C204.708 23.728 204.02 23.104 203.62 22.176L201.412 23.456C202.036 25.104 203.54 26.224 205.892 26.224Z" fill="white"/>
<defs>
<clipPath id="clip0_20_2">
<rect width="44" height="46" fill="white" transform="translate(35 17)"/>
</clipPath>
</defs>
</svg>
