<svg width="323" height="80" viewBox="0 0 323 80" fill="none" xmlns="http://www.w3.org/2000/svg">
<path d="M0 15C0 6.71573 6.71573 0 15 0H308C316.284 0 323 6.71573 323 15V65C323 73.2843 316.284 80 308 80H15C6.71573 80 0 73.2843 0 65V15Z" fill="#6FC62A"/>
<path d="M98.952 34.812H104.712V36H97.692V23.4H98.952V34.812ZM106.336 36V22.86H107.524V36H106.336ZM116.255 23.4L114.527 25.74H113.375L114.815 23.4H116.255ZM117.785 27H118.973V36H117.785V34.236C116.957 35.556 115.745 36.216 114.149 36.216C112.865 36.216 111.767 35.76 110.855 34.848C109.955 33.936 109.505 32.82 109.505 31.5C109.505 30.18 109.955 29.064 110.855 28.152C111.767 27.24 112.865 26.784 114.149 26.784C115.745 26.784 116.957 27.444 117.785 28.764V27ZM111.719 34.038C112.403 34.722 113.243 35.064 114.239 35.064C115.235 35.064 116.075 34.722 116.759 34.038C117.443 33.342 117.785 32.496 117.785 31.5C117.785 30.504 117.443 29.664 116.759 28.98C116.075 28.284 115.235 27.936 114.239 27.936C113.243 27.936 112.403 28.284 111.719 28.98C111.035 29.664 110.693 30.504 110.693 31.5C110.693 32.496 111.035 33.342 111.719 34.038ZM131.083 26.784C132.091 26.784 132.901 27.108 133.513 27.756C134.137 28.404 134.449 29.28 134.449 30.384V36H133.261V30.384C133.261 29.604 133.057 29.004 132.649 28.584C132.253 28.152 131.725 27.936 131.065 27.936C130.321 27.936 129.715 28.188 129.247 28.692C128.791 29.184 128.563 29.958 128.563 31.014V36H127.375V30.384C127.375 29.592 127.183 28.986 126.799 28.566C126.427 28.146 125.917 27.936 125.269 27.936C124.549 27.936 123.937 28.188 123.433 28.692C122.929 29.196 122.677 29.97 122.677 31.014V36H121.489V27H122.677V28.314C123.325 27.294 124.243 26.784 125.431 26.784C126.727 26.784 127.639 27.33 128.167 28.422C128.815 27.33 129.787 26.784 131.083 26.784ZM144.486 27H145.674V36H144.486V34.236C143.658 35.556 142.446 36.216 140.85 36.216C139.566 36.216 138.468 35.76 137.556 34.848C136.656 33.936 136.206 32.82 136.206 31.5C136.206 30.18 136.656 29.064 137.556 28.152C138.468 27.24 139.566 26.784 140.85 26.784C142.446 26.784 143.658 27.444 144.486 28.764V27ZM138.42 34.038C139.104 34.722 139.944 35.064 140.94 35.064C141.936 35.064 142.776 34.722 143.46 34.038C144.144 33.342 144.486 32.496 144.486 31.5C144.486 30.504 144.144 29.664 143.46 28.98C142.776 28.284 141.936 27.936 140.94 27.936C139.944 27.936 139.104 28.284 138.42 28.98C137.736 29.664 137.394 30.504 137.394 31.5C137.394 32.496 137.736 33.342 138.42 34.038ZM152.402 26.784C153.494 26.784 154.352 27.12 154.976 27.792C155.612 28.452 155.93 29.346 155.93 30.474V36H154.742V30.474C154.742 29.67 154.526 29.046 154.094 28.602C153.674 28.158 153.074 27.936 152.294 27.936C151.43 27.936 150.728 28.212 150.188 28.764C149.648 29.304 149.378 30.144 149.378 31.284V36H148.19V27H149.378V28.404C150.05 27.324 151.058 26.784 152.402 26.784ZM165.769 34.866C164.857 35.766 163.741 36.216 162.421 36.216C161.101 36.216 159.979 35.766 159.055 34.866C158.143 33.954 157.687 32.832 157.687 31.5C157.687 30.168 158.143 29.052 159.055 28.152C159.979 27.24 161.101 26.784 162.421 26.784C163.741 26.784 164.857 27.24 165.769 28.152C166.693 29.052 167.155 30.168 167.155 31.5C167.155 32.832 166.693 33.954 165.769 34.866ZM159.901 34.038C160.585 34.722 161.425 35.064 162.421 35.064C163.417 35.064 164.257 34.722 164.941 34.038C165.625 33.342 165.967 32.496 165.967 31.5C165.967 30.504 165.625 29.664 164.941 28.98C164.257 28.284 163.417 27.936 162.421 27.936C161.425 27.936 160.585 28.284 159.901 28.98C159.217 29.664 158.875 30.504 158.875 31.5C158.875 32.496 159.217 33.342 159.901 34.038ZM169.903 29.358C169.903 29.766 170.083 30.09 170.443 30.33C170.803 30.57 171.241 30.756 171.757 30.888C172.273 31.02 172.789 31.17 173.305 31.338C173.821 31.494 174.259 31.764 174.619 32.148C174.979 32.52 175.159 33.012 175.159 33.624C175.159 34.392 174.853 35.016 174.241 35.496C173.641 35.976 172.861 36.216 171.901 36.216C171.037 36.216 170.299 36.024 169.687 35.64C169.087 35.256 168.667 34.758 168.427 34.146L169.435 33.552C169.603 34.02 169.903 34.392 170.335 34.668C170.779 34.932 171.301 35.064 171.901 35.064C172.489 35.064 172.981 34.95 173.377 34.722C173.773 34.482 173.971 34.116 173.971 33.624C173.971 33.216 173.791 32.892 173.431 32.652C173.071 32.412 172.633 32.226 172.117 32.094C171.601 31.962 171.085 31.818 170.569 31.662C170.053 31.494 169.615 31.224 169.255 30.852C168.895 30.468 168.715 29.97 168.715 29.358C168.715 28.626 169.003 28.014 169.579 27.522C170.167 27.03 170.905 26.784 171.793 26.784C172.525 26.784 173.167 26.952 173.719 27.288C174.271 27.612 174.679 28.056 174.943 28.62L173.953 29.196C173.605 28.356 172.885 27.936 171.793 27.936C171.277 27.936 170.833 28.062 170.461 28.314C170.089 28.554 169.903 28.902 169.903 29.358ZM189.381 27H190.569V36H189.381V34.236C188.553 35.556 187.341 36.216 185.745 36.216C184.461 36.216 183.363 35.76 182.451 34.848C181.551 33.936 181.101 32.82 181.101 31.5C181.101 30.18 181.551 29.064 182.451 28.152C183.363 27.24 184.461 26.784 185.745 26.784C187.341 26.784 188.553 27.444 189.381 28.764V27ZM183.315 34.038C183.999 34.722 184.839 35.064 185.835 35.064C186.831 35.064 187.671 34.722 188.355 34.038C189.039 33.342 189.381 32.496 189.381 31.5C189.381 30.504 189.039 29.664 188.355 28.98C187.671 28.284 186.831 27.936 185.835 27.936C184.839 27.936 183.999 28.284 183.315 28.98C182.631 29.664 182.289 30.504 182.289 31.5C182.289 32.496 182.631 33.342 183.315 34.038ZM193.084 36V22.86H194.272V36H193.084ZM205.973 23.4C207.101 23.4 208.043 23.778 208.799 24.534C209.555 25.29 209.933 26.232 209.933 27.36C209.933 28.488 209.555 29.43 208.799 30.186C208.043 30.942 207.101 31.32 205.973 31.32H202.733V36H201.473V23.4H205.973ZM205.973 30.132C206.753 30.132 207.395 29.874 207.899 29.358C208.415 28.83 208.673 28.164 208.673 27.36C208.673 26.556 208.415 25.896 207.899 25.38C207.395 24.852 206.753 24.588 205.973 24.588H202.733V30.132H205.973ZM219.074 29.466C219.686 29.73 220.172 30.132 220.532 30.672C220.904 31.2 221.09 31.806 221.09 32.49C221.09 33.462 220.748 34.29 220.064 34.974C219.38 35.658 218.552 36 217.58 36H212.09V23.4H217.166C218.102 23.4 218.9 23.736 219.56 24.408C220.22 25.068 220.55 25.86 220.55 26.784C220.55 27.96 220.058 28.854 219.074 29.466ZM217.166 24.588H213.35V28.98H217.166C217.754 28.98 218.252 28.77 218.66 28.35C219.08 27.918 219.29 27.396 219.29 26.784C219.29 26.184 219.08 25.668 218.66 25.236C218.252 24.804 217.754 24.588 217.166 24.588ZM217.58 34.812C218.204 34.812 218.732 34.59 219.164 34.146C219.608 33.69 219.83 33.138 219.83 32.49C219.83 31.854 219.608 31.308 219.164 30.852C218.732 30.396 218.204 30.168 217.58 30.168H213.35V34.812H217.58ZM231.717 36H230.277L226.857 30.618L223.437 36H221.997L226.137 29.502L222.267 23.4H223.689L226.857 28.368L230.025 23.4H231.447L227.577 29.502L231.717 36ZM234.85 28.512C234.658 28.704 234.424 28.8 234.148 28.8C233.872 28.8 233.638 28.704 233.446 28.512C233.254 28.32 233.158 28.086 233.158 27.81C233.158 27.534 233.254 27.3 233.446 27.108C233.638 26.916 233.872 26.82 234.148 26.82C234.424 26.82 234.658 26.916 234.85 27.108C235.042 27.3 235.138 27.534 235.138 27.81C235.138 28.086 235.042 28.32 234.85 28.512ZM234.85 35.892C234.658 36.084 234.424 36.18 234.148 36.18C233.872 36.18 233.638 36.084 233.446 35.892C233.254 35.7 233.158 35.466 233.158 35.19C233.158 34.914 233.254 34.68 233.446 34.488C233.638 34.296 233.872 34.2 234.148 34.2C234.424 34.2 234.658 34.296 234.85 34.488C235.042 34.68 235.138 34.914 235.138 35.19C235.138 35.466 235.042 35.7 234.85 35.892ZM104.892 48.124V49.276H101.688V52.48H100.536V49.276H97.332V48.124H100.536V44.92H101.688V48.124H104.892ZM110.743 47.476C111.919 47.476 112.915 47.824 113.731 48.52C114.559 49.204 114.973 50.146 114.973 51.346C114.973 52.546 114.559 53.494 113.731 54.19C112.915 54.874 111.919 55.216 110.743 55.216C109.795 55.216 108.949 54.988 108.205 54.532C107.461 54.064 106.957 53.398 106.693 52.534L107.755 51.922C107.935 52.594 108.289 53.11 108.817 53.47C109.357 53.818 109.999 53.992 110.743 53.992C111.607 53.992 112.315 53.764 112.867 53.308C113.431 52.84 113.713 52.186 113.713 51.346C113.713 50.506 113.431 49.858 112.867 49.402C112.315 48.934 111.607 48.7 110.743 48.7H107.323L107.773 42.4H114.523V43.588H108.889L108.619 47.476H110.743ZM124.522 53.452C123.694 54.628 122.524 55.216 121.012 55.216C119.5 55.216 118.324 54.628 117.484 53.452C116.656 52.264 116.242 50.68 116.242 48.7C116.242 46.72 116.656 45.142 117.484 43.966C118.324 42.778 119.5 42.184 121.012 42.184C122.524 42.184 123.694 42.778 124.522 43.966C125.362 45.142 125.782 46.72 125.782 48.7C125.782 50.68 125.362 52.264 124.522 53.452ZM118.42 52.606C119.044 53.53 119.908 53.992 121.012 53.992C122.116 53.992 122.974 53.53 123.586 52.606C124.21 51.682 124.522 50.38 124.522 48.7C124.522 47.02 124.21 45.718 123.586 44.794C122.974 43.87 122.116 43.408 121.012 43.408C119.908 43.408 119.044 43.87 118.42 44.794C117.808 45.718 117.502 47.02 117.502 48.7C117.502 50.38 117.808 51.682 118.42 52.606ZM127.224 55V53.866L131.76 49.294C133.056 47.998 133.704 46.888 133.704 45.964C133.704 45.16 133.452 44.536 132.948 44.092C132.456 43.636 131.862 43.408 131.166 43.408C129.87 43.408 128.928 44.002 128.34 45.19L127.278 44.56C127.674 43.78 128.214 43.192 128.898 42.796C129.582 42.388 130.338 42.184 131.166 42.184C132.174 42.184 133.056 42.526 133.812 43.21C134.58 43.882 134.964 44.8 134.964 45.964C134.964 46.696 134.76 47.398 134.352 48.07C133.944 48.742 133.368 49.45 132.624 50.194L129.024 53.776H135.234V55H127.224ZM145.807 47.638C146.815 47.77 147.643 48.16 148.291 48.808C148.951 49.444 149.281 50.29 149.281 51.346C149.281 52.546 148.867 53.494 148.039 54.19C147.223 54.874 146.227 55.216 145.051 55.216C144.115 55.216 143.281 55 142.549 54.568C141.817 54.136 141.301 53.518 141.001 52.714L142.045 52.102C142.249 52.726 142.615 53.2 143.143 53.524C143.671 53.836 144.307 53.992 145.051 53.992C145.915 53.992 146.623 53.764 147.175 53.308C147.739 52.84 148.021 52.186 148.021 51.346C148.021 50.506 147.739 49.858 147.175 49.402C146.623 48.934 145.915 48.7 145.051 48.7V48.682L145.033 48.7H144.691L144.151 47.872L147.283 43.588H141.361V42.4H148.741V43.588L145.807 47.638ZM154.6 47.476C155.776 47.476 156.772 47.824 157.588 48.52C158.416 49.204 158.83 50.146 158.83 51.346C158.83 52.546 158.416 53.494 157.588 54.19C156.772 54.874 155.776 55.216 154.6 55.216C153.652 55.216 152.806 54.988 152.062 54.532C151.318 54.064 150.814 53.398 150.55 52.534L151.612 51.922C151.792 52.594 152.146 53.11 152.674 53.47C153.214 53.818 153.856 53.992 154.6 53.992C155.464 53.992 156.172 53.764 156.724 53.308C157.288 52.84 157.57 52.186 157.57 51.346C157.57 50.506 157.288 49.858 156.724 49.402C156.172 48.934 155.464 48.7 154.6 48.7H151.18L151.63 42.4H158.38V43.588H152.746L152.476 47.476H154.6ZM159.559 42.4H167.299V43.588L162.547 55H161.233L165.985 43.588H159.559V42.4ZM176.5 53.452C175.672 54.628 174.502 55.216 172.99 55.216C171.478 55.216 170.302 54.628 169.462 53.452C168.634 52.264 168.22 50.68 168.22 48.7C168.22 46.72 168.634 45.142 169.462 43.966C170.302 42.778 171.478 42.184 172.99 42.184C174.502 42.184 175.672 42.778 176.5 43.966C177.34 45.142 177.76 46.72 177.76 48.7C177.76 50.68 177.34 52.264 176.5 53.452ZM170.398 52.606C171.022 53.53 171.886 53.992 172.99 53.992C174.094 53.992 174.952 53.53 175.564 52.606C176.188 51.682 176.5 50.38 176.5 48.7C176.5 47.02 176.188 45.718 175.564 44.794C174.952 43.87 174.094 43.408 172.99 43.408C171.886 43.408 171.022 43.87 170.398 44.794C169.786 45.718 169.48 47.02 169.48 48.7C169.48 50.38 169.786 51.682 170.398 52.606ZM187.928 46.9C189.164 46.9 190.178 47.29 190.97 48.07C191.762 48.838 192.158 49.834 192.158 51.058C192.158 52.282 191.762 53.284 190.97 54.064C190.178 54.832 189.164 55.216 187.928 55.216C186.692 55.216 185.678 54.832 184.886 54.064C184.094 53.284 183.698 52.282 183.698 51.058C183.698 50.11 183.956 49.27 184.472 48.538L188.594 42.4H190.016L186.92 47.008C187.244 46.936 187.58 46.9 187.928 46.9ZM185.768 53.182C186.32 53.722 187.04 53.992 187.928 53.992C188.816 53.992 189.53 53.722 190.07 53.182C190.622 52.642 190.898 51.934 190.898 51.058C190.898 50.182 190.622 49.474 190.07 48.934C189.53 48.394 188.816 48.124 187.928 48.124C187.04 48.124 186.32 48.394 185.768 48.934C185.228 49.474 184.958 50.182 184.958 51.058C184.958 51.934 185.228 52.642 185.768 53.182ZM197.122 47.476C198.298 47.476 199.294 47.824 200.11 48.52C200.938 49.204 201.352 50.146 201.352 51.346C201.352 52.546 200.938 53.494 200.11 54.19C199.294 54.874 198.298 55.216 197.122 55.216C196.174 55.216 195.328 54.988 194.584 54.532C193.84 54.064 193.336 53.398 193.072 52.534L194.134 51.922C194.314 52.594 194.668 53.11 195.196 53.47C195.736 53.818 196.378 53.992 197.122 53.992C197.986 53.992 198.694 53.764 199.246 53.308C199.81 52.84 200.092 52.186 200.092 51.346C200.092 50.506 199.81 49.858 199.246 49.402C198.694 48.934 197.986 48.7 197.122 48.7H193.702L194.152 42.4H200.902V43.588H195.268L194.998 47.476H197.122ZM209.128 48.502C209.764 48.802 210.268 49.222 210.64 49.762C211.024 50.29 211.216 50.896 211.216 51.58C211.216 52.72 210.814 53.614 210.01 54.262C209.206 54.898 208.204 55.216 207.004 55.216C205.804 55.216 204.802 54.898 203.998 54.262C203.194 53.614 202.792 52.72 202.792 51.58C202.792 50.896 202.978 50.29 203.35 49.762C203.734 49.222 204.244 48.802 204.88 48.502C203.764 47.866 203.206 46.924 203.206 45.676C203.206 44.548 203.578 43.684 204.322 43.084C205.078 42.484 205.972 42.184 207.004 42.184C208.036 42.184 208.924 42.484 209.668 43.084C210.424 43.684 210.802 44.548 210.802 45.676C210.802 46.924 210.244 47.866 209.128 48.502ZM208.804 43.966C208.324 43.594 207.724 43.408 207.004 43.408C206.284 43.408 205.678 43.594 205.186 43.966C204.706 44.338 204.466 44.908 204.466 45.676C204.466 46.396 204.712 46.954 205.204 47.35C205.708 47.746 206.308 47.944 207.004 47.944C207.7 47.944 208.294 47.746 208.786 47.35C209.29 46.954 209.542 46.396 209.542 45.676C209.542 44.908 209.296 44.338 208.804 43.966ZM204.862 53.38C205.402 53.788 206.116 53.992 207.004 53.992C207.892 53.992 208.606 53.788 209.146 53.38C209.686 52.96 209.956 52.36 209.956 51.58C209.956 50.8 209.686 50.206 209.146 49.798C208.606 49.378 207.892 49.168 207.004 49.168C206.116 49.168 205.402 49.378 204.862 49.798C204.322 50.206 204.052 50.8 204.052 51.58C204.052 52.36 204.322 52.96 204.862 53.38ZM212.302 55V53.866L216.838 49.294C218.134 47.998 218.782 46.888 218.782 45.964C218.782 45.16 218.53 44.536 218.026 44.092C217.534 43.636 216.94 43.408 216.244 43.408C214.948 43.408 214.006 44.002 213.418 45.19L212.356 44.56C212.752 43.78 213.292 43.192 213.976 42.796C214.66 42.388 215.416 42.184 216.244 42.184C217.252 42.184 218.134 42.526 218.89 43.21C219.658 43.882 220.042 44.8 220.042 45.964C220.042 46.696 219.838 47.398 219.43 48.07C219.022 48.742 218.446 49.45 217.702 50.194L214.102 53.776H220.312V55H212.302Z" fill="white"/>
<g clip-path="url(#clip0_20_52)">
<path d="M53.6693 26.274C61.6869 26.359 66.7096 25.82 67.388 35.422H77.165C77.165 20.547 65.1585 18.542 53.4148 18.542C41.6702 18.542 29.6646 20.547 29.6646 35.422H39.3657C40.1162 25.637 45.7183 26.19 53.6693 26.274Z" fill="white"/>
<path d="M34.513 40.204C36.8944 40.204 38.8759 40.358 39.3164 37.827C39.3756 37.483 39.4099 37.093 39.4099 36.642H39.297H29.6162C29.6162 40.407 31.8087 40.204 34.513 40.204Z" fill="white"/>
<path d="M67.4505 36.642H67.3589C67.3589 37.096 67.395 37.487 67.4625 37.827C67.9271 40.161 69.9059 40.016 72.2789 40.016C74.9961 40.016 77.1988 40.209 77.1988 36.642H67.4505Z" fill="white"/>
<path d="M62.6744 34.078V32.582C62.6744 31.913 61.9609 31.871 61.0798 31.871H59.6406C58.7605 31.871 58.0469 31.913 58.0469 32.582V33.871V34.871H47.8664V33.871V32.582C47.8664 31.913 47.1528 31.871 46.2727 31.871H44.8326C43.9525 31.871 43.2389 31.913 43.2389 32.582V34.078V35.384C40.9196 37.988 33.3305 49.073 33.0547 50.415L33.0584 59.37C33.0584 60.197 33.6813 60.87 34.4466 60.87H71.4667C72.2321 60.87 72.8549 60.197 72.8549 59.37V50.37C72.5819 49.067 64.9947 37.987 62.6744 35.383V34.078ZM47.3648 51.62C46.6198 51.62 46.0154 50.968 46.0154 50.162C46.0154 49.356 46.6198 48.704 47.3648 48.704C48.1098 48.704 48.7142 49.356 48.7142 50.162C48.7142 50.968 48.1098 51.62 47.3648 51.62ZM47.3648 46.62C46.6198 46.62 46.0154 45.968 46.0154 45.162C46.0154 44.356 46.6198 43.704 47.3648 43.704C48.1098 43.704 48.7142 44.356 48.7142 45.162C48.7142 45.968 48.1098 46.62 47.3648 46.62ZM47.3648 41.621C46.6198 41.621 46.0154 40.969 46.0154 40.163C46.0154 39.358 46.6198 38.705 47.3648 38.705C48.1098 38.705 48.7142 39.358 48.7142 40.163C48.7142 40.969 48.1098 41.621 47.3648 41.621ZM52.9178 51.62C52.1728 51.62 51.5684 50.968 51.5684 50.162C51.5684 49.356 52.1728 48.704 52.9178 48.704C53.6638 48.704 54.2672 49.356 54.2672 50.162C54.2672 50.968 53.6638 51.62 52.9178 51.62ZM52.9178 46.62C52.1728 46.62 51.5684 45.968 51.5684 45.162C51.5684 44.356 52.1728 43.704 52.9178 43.704C53.6638 43.704 54.2672 44.356 54.2672 45.162C54.2672 45.968 53.6638 46.62 52.9178 46.62ZM52.9178 41.621C52.1728 41.621 51.5684 40.969 51.5684 40.163C51.5684 39.358 52.1728 38.705 52.9178 38.705C53.6638 38.705 54.2672 39.358 54.2672 40.163C54.2672 40.969 53.6638 41.621 52.9178 41.621ZM58.4708 51.62C57.7249 51.62 57.1214 50.968 57.1214 50.162C57.1214 49.356 57.7249 48.704 58.4708 48.704C59.2168 48.704 59.8202 49.356 59.8202 50.162C59.8202 50.968 59.2168 51.62 58.4708 51.62ZM58.4708 46.62C57.7249 46.62 57.1214 45.968 57.1214 45.162C57.1214 44.356 57.7249 43.704 58.4708 43.704C59.2168 43.704 59.8202 44.356 59.8202 45.162C59.8202 45.968 59.2168 46.62 58.4708 46.62ZM58.4708 41.621C57.7249 41.621 57.1214 40.969 57.1214 40.163C57.1214 39.358 57.7249 38.705 58.4708 38.705C59.2168 38.705 59.8202 39.358 59.8202 40.163C59.8202 40.969 59.2168 41.621 58.4708 41.621Z" fill="white"/>
</g>
<defs>
<clipPath id="clip0_20_52">
<rect width="47.5828" height="51.413" fill="white" transform="translate(29.6162 14)"/>
</clipPath>
</defs>
</svg>
