<svg width="323" height="80" viewBox="0 0 323 80" fill="none" xmlns="http://www.w3.org/2000/svg">
<path d="M0 15C0 6.71573 6.71573 0 15 0H308C316.284 0 323 6.71573 323 15V65C323 73.2843 316.284 80 308 80H15C6.71574 80 0 73.2843 0 65V15Z" fill="#3B2E80"/>
<path d="M276.364 22.186C272.901 22.6921 269.499 24.2524 266.781 26.5768C263.757 29.1632 261.809 32.4717 261.148 36.1464C260.948 37.2565 260.863 38.4687 260.773 39.753C260.424 44.7598 259.94 47.8003 256.161 47.8003C255.722 47.8003 255.319 48.0703 255.122 48.4964C254.926 48.9245 254.968 49.4346 255.234 49.8146C260.376 57.2039 268.683 57.994 277.243 58C280.115 58 283.144 57.85 285.847 56.7578C290.647 54.8195 294.692 50.4607 296.151 45.6539C297.798 40.229 297.032 34.7401 293.997 30.1954C290.62 25.1405 284.821 22 278.863 22C278.028 22.004 277.188 22.064 276.364 22.186Z" fill="white"/>
<path d="M278.826 21C270.429 21 261.739 27.0192 260.12 35.9573C259.629 38.6728 259.808 42.8152 258.876 44.9486C257.722 47.5891 255.402 45.3216 254.242 47.826C253.852 48.6687 253.938 49.6771 254.464 50.429C259.845 58.1198 268.386 59 277.217 59C283.292 59 287.988 58.0981 292.698 53.2275C304.378 41.1555 295.426 21 278.826 21ZM278.826 23.4827C289.214 23.4827 298.458 33.4726 294.882 45.1874C293.442 49.906 289.428 53.7287 285.352 55.3668C282.693 56.4344 279.59 56.5134 277.219 56.5134C269.526 56.5134 261.314 56.0891 256.305 48.9311C262.826 48.9311 261.538 41.0825 262.382 36.4289C263.78 28.7184 271.495 23.4827 278.826 23.4827Z" fill="black"/>
<path d="M271.983 58.5725C272.195 61.3245 270.362 63.7459 267.885 63.9815C265.408 64.2171 263.229 62.1798 263.017 59.4278C262.803 56.6758 264.638 54.2544 267.115 54.0188C269.59 53.7812 271.769 55.8205 271.983 58.5725Z" fill="black"/>
<path d="M268.993 58.829C269.087 59.9288 268.273 60.8986 267.171 60.9926C266.071 61.0866 265.101 60.2728 265.007 59.171C264.913 58.0712 265.727 57.1014 266.829 57.0074C267.929 56.9134 268.899 57.7292 268.993 58.829Z" fill="white"/>
<path d="M287.983 58.5703C288.198 61.321 286.356 63.7413 283.87 63.9768C277.923 64.5427 277.138 54.5848 283.098 54.0188C285.582 53.7813 287.768 55.8196 287.983 58.5703Z" fill="black"/>
<path d="M284.993 58.829C285.087 59.9288 284.273 60.8986 283.171 60.9926C282.071 61.0866 281.101 60.2728 281.007 59.171C280.913 58.0712 281.727 57.1014 282.829 57.0074C283.929 56.9134 284.899 57.7292 284.993 58.829Z" fill="white"/>
<path d="M274.672 36.0225C274.672 37.3468 273.679 38.4173 272.456 38.4173C271.232 38.4173 270.237 37.3468 270.237 36.0225C270.237 34.7002 271.23 33.6277 272.454 33.6277C273.677 33.6277 274.672 34.7002 274.672 36.0225Z" fill="black"/>
<path d="M285.258 35.6478C285.258 36.9721 284.266 38.0426 283.042 38.0426C281.818 38.0426 280.826 36.9701 280.826 35.6478C280.826 34.3255 281.818 33.2531 283.042 33.2531C284.268 33.2531 285.258 34.3255 285.258 35.6478Z" fill="black"/>
<path d="M277.78 48.8667C273.584 48.8667 270.32 45.669 269.962 42.2949C269.788 40.6515 272.083 40.3759 272.256 42.0095C272.538 44.6659 275.477 46.4402 277.949 46.3688C281.099 46.2796 283.181 44.2437 283.609 42.2791C283.959 40.6733 286.205 41.2423 285.856 42.85C285.168 46.0159 282.025 48.8667 277.78 48.8667Z" fill="black"/>
<path d="M31.2 21V35H34.4V21H31.2ZM39.7055 26.78V25H36.7055V35H39.7055V30.48C39.7055 28.5 41.4655 28 42.7055 28.2V24.8C41.4455 24.8 40.1055 25.44 39.7055 26.78ZM56.3678 25V25.94C55.7078 25.18 54.7278 24.72 53.3878 24.72C50.7678 24.72 48.6078 27.02 48.6078 30C48.6078 32.98 50.7678 35.28 53.3878 35.28C54.7278 35.28 55.7078 34.82 56.3678 34.06V35H59.3678V25H56.3678ZM53.9878 32.44C52.6078 32.44 51.6078 31.5 51.6078 30C51.6078 28.5 52.6078 27.56 53.9878 27.56C55.3678 27.56 56.3678 28.5 56.3678 30C56.3678 31.5 55.3678 32.44 53.9878 32.44ZM80.6688 21H77.4688L73.6688 27.22L69.8688 21H66.6688V35H69.8688V26.86L73.4888 32.8H73.8488L77.4688 26.86V35H80.6688V21ZM89.435 25V30.46C89.435 31.88 88.675 32.52 87.575 32.52C86.615 32.52 85.835 31.94 85.835 30.7V25H82.835V31.14C82.835 33.84 84.555 35.28 86.575 35.28C87.895 35.28 88.895 34.8 89.435 34.06V35H92.435V25H89.435ZM94.6352 35H97.6352V20.4H94.6352V35ZM105.69 27.88V25H103.63V22.2L100.63 23.1V25H99.0305V27.88H100.63V31.42C100.63 34.22 101.77 35.4 105.69 35V32.28C104.37 32.36 103.63 32.28 103.63 31.42V27.88H105.69ZM108.889 24.12C109.869 24.12 110.689 23.3 110.689 22.32C110.689 21.34 109.869 20.52 108.889 20.52C107.909 20.52 107.089 21.34 107.089 22.32C107.089 23.3 107.909 24.12 108.889 24.12ZM107.389 35H110.389V25H107.389V35ZM123.784 24.72C122.364 24.72 121.444 25.24 120.884 26.04C120.324 25.2 119.444 24.72 118.264 24.72C116.924 24.72 116.044 25.24 115.584 25.92V25H112.584V35H115.584V29.36C115.584 28.18 116.144 27.48 117.144 27.48C118.104 27.48 118.584 28.12 118.584 29.12V35H121.584V29.36C121.584 28.18 122.144 27.48 123.144 27.48C124.104 27.48 124.584 28.12 124.584 29.12V35H127.584V28.86C127.584 26.36 126.084 24.72 123.784 24.72ZM132.315 31.2H139.415C139.495 30.82 139.535 30.42 139.535 30C139.535 26.98 137.375 24.72 134.455 24.72C131.295 24.72 129.135 27.02 129.135 30C129.135 32.98 131.255 35.28 134.675 35.28C136.575 35.28 138.055 34.58 139.035 33.22L136.635 31.84C136.235 32.28 135.535 32.6 134.715 32.6C133.615 32.6 132.695 32.24 132.315 31.2ZM132.255 28.96C132.535 27.94 133.295 27.38 134.435 27.38C135.335 27.38 136.235 27.8 136.555 28.96H132.255ZM148.399 21V25.94C147.739 25.18 146.759 24.72 145.419 24.72C142.799 24.72 140.639 27.02 140.639 30C140.639 32.98 142.799 35.28 145.419 35.28C146.759 35.28 147.739 34.82 148.399 34.06V35H151.399V21H148.399ZM146.019 32.44C144.639 32.44 143.639 31.5 143.639 30C143.639 28.5 144.639 27.56 146.019 27.56C147.399 27.56 148.399 28.5 148.399 30C148.399 31.5 147.399 32.44 146.019 32.44ZM155.1 24.12C156.08 24.12 156.9 23.3 156.9 22.32C156.9 21.34 156.08 20.52 155.1 20.52C154.12 20.52 153.3 21.34 153.3 22.32C153.3 23.3 154.12 24.12 155.1 24.12ZM153.6 35H156.6V25H153.6V35ZM163.595 35.28C165.555 35.28 167.255 34.26 168.115 32.7L165.495 31.2C165.175 31.9 164.435 32.32 163.555 32.32C162.255 32.32 161.295 31.38 161.295 30C161.295 28.62 162.255 27.68 163.555 27.68C164.435 27.68 165.155 28.1 165.495 28.8L168.115 27.28C167.255 25.74 165.535 24.72 163.595 24.72C160.555 24.72 158.295 27.02 158.295 30C158.295 32.98 160.555 35.28 163.595 35.28ZM176.387 25V25.94C175.727 25.18 174.747 24.72 173.407 24.72C170.787 24.72 168.627 27.02 168.627 30C168.627 32.98 170.787 35.28 173.407 35.28C174.747 35.28 175.727 34.82 176.387 34.06V35H179.387V25H176.387ZM174.007 32.44C172.627 32.44 171.627 31.5 171.627 30C171.627 28.5 172.627 27.56 174.007 27.56C175.387 27.56 176.387 28.5 176.387 30C176.387 31.5 175.387 32.44 174.007 32.44ZM191.588 35.28C194.628 35.28 196.788 33.68 196.788 30.98C196.788 28.02 194.408 27.28 192.288 26.64C190.108 25.98 189.768 25.54 189.768 24.9C189.768 24.34 190.268 23.84 191.268 23.84C192.548 23.84 193.208 24.46 193.688 25.46L196.388 23.88C195.368 21.82 193.568 20.72 191.268 20.72C188.848 20.72 186.568 22.28 186.568 24.98C186.568 27.66 188.608 28.66 190.688 29.24C192.788 29.82 193.588 30.16 193.588 31.02C193.588 31.56 193.208 32.16 191.688 32.16C190.108 32.16 189.248 31.38 188.748 30.22L185.988 31.82C186.768 33.88 188.648 35.28 191.588 35.28ZM203.38 35.28C206.32 35.28 208.68 32.98 208.68 30C208.68 27.02 206.32 24.72 203.38 24.72C200.44 24.72 198.08 27.02 198.08 30C198.08 32.98 200.44 35.28 203.38 35.28ZM203.38 32.36C202.08 32.36 201.08 31.42 201.08 30C201.08 28.58 202.08 27.64 203.38 27.64C204.68 27.64 205.68 28.58 205.68 30C205.68 31.42 204.68 32.36 203.38 32.36ZM210.377 35H213.377V20.4H210.377V35ZM220.373 35.28C223.313 35.28 225.673 32.98 225.673 30C225.673 27.02 223.313 24.72 220.373 24.72C217.433 24.72 215.073 27.02 215.073 30C215.073 32.98 217.433 35.28 220.373 35.28ZM220.373 32.36C219.073 32.36 218.073 31.42 218.073 30C218.073 28.58 219.073 27.64 220.373 27.64C221.673 27.64 222.673 28.58 222.673 30C222.673 31.42 221.673 32.36 220.373 32.36ZM227.37 35H230.37V20.4H227.37V35ZM241.065 21H237.465L235.865 23.8H238.745L241.065 21ZM239.825 25V25.94C239.165 25.18 238.185 24.72 236.845 24.72C234.225 24.72 232.065 27.02 232.065 30C232.065 32.98 234.225 35.28 236.845 35.28C238.185 35.28 239.165 34.82 239.825 34.06V35H242.825V25H239.825ZM237.445 32.44C236.065 32.44 235.065 31.5 235.065 30C235.065 28.5 236.065 27.56 237.445 27.56C238.825 27.56 239.825 28.5 239.825 30C239.825 31.5 238.825 32.44 237.445 32.44ZM37.08 43.72C35.74 43.72 34.76 44.18 34.1 44.94V44H31.1V58H34.1V53.06C34.76 53.82 35.74 54.28 37.08 54.28C39.7 54.28 41.86 51.98 41.86 49C41.86 46.02 39.7 43.72 37.08 43.72ZM36.48 51.44C35.1 51.44 34.1 50.5 34.1 49C34.1 47.5 35.1 46.56 36.48 46.56C37.86 46.56 38.86 47.5 38.86 49C38.86 50.5 37.86 51.44 36.48 51.44ZM48.3609 54.28C51.3009 54.28 53.6609 51.98 53.6609 49C53.6609 46.02 51.3009 43.72 48.3609 43.72C45.4209 43.72 43.0609 46.02 43.0609 49C43.0609 51.98 45.4209 54.28 48.3609 54.28ZM48.3609 51.36C47.0609 51.36 46.0609 50.42 46.0609 49C46.0609 47.58 47.0609 46.64 48.3609 46.64C49.6609 46.64 50.6609 47.58 50.6609 49C50.6609 50.42 49.6609 51.36 48.3609 51.36ZM58.3578 45.78V44H55.3578V54H58.3578V49.48C58.3578 47.5 60.1178 47 61.3578 47.2V43.8C60.0978 43.8 58.7578 44.44 58.3578 45.78ZM70.7202 54H74.3602L76.6402 45.74L78.9202 54H82.5602L86.4202 40H83.0602L80.6402 49.8L77.9402 40H75.3402L72.6402 49.8L70.2202 40H66.8602L70.7202 54ZM93.7897 44V44.94C93.1297 44.18 92.1497 43.72 90.8097 43.72C88.1897 43.72 86.0297 46.02 86.0297 49C86.0297 51.98 88.1897 54.28 90.8097 54.28C92.1497 54.28 93.1297 53.82 93.7897 53.06V54H96.7897V44H93.7897ZM91.4097 51.44C90.0297 51.44 89.0297 50.5 89.0297 49C89.0297 47.5 90.0297 46.56 91.4097 46.56C92.7897 46.56 93.7897 47.5 93.7897 49C93.7897 50.5 92.7897 51.44 91.4097 51.44ZM102.711 51.2L106.491 46V44H98.8906V46.8H102.471L98.6906 52V54H106.691V51.2H102.711ZM110.557 50.2H117.657C117.737 49.82 117.777 49.42 117.777 49C117.777 45.98 115.617 43.72 112.697 43.72C109.537 43.72 107.377 46.02 107.377 49C107.377 51.98 109.497 54.28 112.917 54.28C114.817 54.28 116.297 53.58 117.277 52.22L114.877 50.84C114.477 51.28 113.777 51.6 112.957 51.6C111.857 51.6 110.937 51.24 110.557 50.2ZM110.497 47.96C110.777 46.94 111.537 46.38 112.677 46.38C113.577 46.38 114.477 46.8 114.797 47.96H110.497Z" fill="white"/>
</svg>
