<svg width="13" height="20" viewBox="0 0 13 20" fill="none" xmlns="http://www.w3.org/2000/svg">
<path d="M1.5102 0.000342981C1.21581 -0.00613191 0.926719 0.0792074 0.683116 0.244628C0.439512 0.410048 0.253502 0.647373 0.150945 0.923396C0.0483884 1.19942 0.0343819 1.5005 0.110872 1.78485C0.187362 2.0692 0.350548 2.32254 0.577744 2.50986L9.24652 9.93628L0.577744 17.3601C0.420582 17.4756 0.288962 17.6222 0.191128 17.791C0.0932932 17.9597 0.0313521 18.1469 0.0091823 18.3407C-0.0129875 18.5344 0.00509219 18.7307 0.062289 18.9171C0.119486 19.1036 0.214567 19.2763 0.341579 19.4243C0.468592 19.5724 0.624799 19.6924 0.800417 19.7773C0.976036 19.8621 1.16728 19.9098 1.36218 19.9173C1.55708 19.9248 1.75144 19.8921 1.93307 19.8211C2.11471 19.75 2.27971 19.6422 2.41775 19.5044L12.3427 11.0126C12.4986 10.8796 12.6237 10.7145 12.7096 10.5284C12.7954 10.3424 12.8398 10.1399 12.8398 9.93497C12.8398 9.73007 12.7954 9.52756 12.7096 9.3415C12.6237 9.15544 12.4986 8.99019 12.3427 8.85718L2.41775 0.357211C2.16703 0.134514 1.84545 0.00823279 1.5102 0.000342981Z" fill="white"/>
</svg>
