<svg width="23" height="23" viewBox="0 0 23 23" fill="none" xmlns="http://www.w3.org/2000/svg">
<g clip-path="url(#clip0_790_2824)">
<path d="M17.25 0H5.75C2.58862 0 0 2.58862 0 5.75V17.25C0 20.4114 2.58862 23 5.75 23H17.25C20.4114 23 23 20.4114 23 17.25V5.75C23 2.58862 20.4114 0 17.25 0ZM5.75 21.0852C3.63867 21.0852 1.91479 19.3669 1.91479 17.25V5.75C1.91479 3.63867 3.63306 1.91479 5.75 1.91479H17.25C19.3669 1.91479 21.0852 3.63306 21.0852 5.75V17.25C21.0852 19.3613 19.3669 21.0852 17.25 21.0852H15.0095" fill="white"/>
<path d="M14.7676 21.085L14.7563 13.4763H17.3225L17.7437 10.9045H14.7563V9.1189C14.7563 8.41699 15.2954 7.87231 16.0029 7.87231H17.7043V5.29492H16.0029C13.8916 5.29492 12.1846 7.00757 12.1846 9.1189V10.8989H9.69141V13.4707H12.1846L12.2014 21.0793" fill="white"/>
</g>
<defs>
<clipPath id="clip0_790_2824">
<rect width="23" height="23" fill="white"/>
</clipPath>
</defs>
</svg>
