<svg class="icon-gine" width="73" height="73" viewBox="0 0 73 73" fill="curre" xmlns="http://www.w3.org/2000/svg">
<path d="M61.8321 10.1034C60.1402 10.1033 58.4524 10.2645 56.7934 10.5845C54.6362 10.9995 52.4417 11.208 50.2419 11.2069H47.7226C46.6024 11.2079 45.5071 10.8884 44.5757 10.2888C43.2699 9.44832 41.7348 8.99982 40.1645 9H32.8355C31.2628 8.99851 29.7252 9.44707 28.4175 10.2888C27.488 10.8872 26.3953 11.2066 25.2774 11.2069H22.7329C20.5411 11.2068 18.3547 10.9984 16.2055 10.5845C14.5468 10.2646 12.8594 10.1034 11.1679 10.1034C8.47213 10.1064 5.88764 11.1395 3.98145 12.9762C2.07526 14.813 1.00303 17.3033 1 19.9008V20.8067C1 22.3577 1.63945 23.8452 2.77767 24.942C3.9159 26.0387 5.45966 26.6549 7.06935 26.6549H9.81774C10.4046 27.3656 11.155 27.935 12.0097 28.318C12.8643 28.701 13.7997 28.8872 14.7419 28.8617C17.8991 28.8617 20.4677 26.8822 20.4677 24.448C20.4677 22.0139 17.8991 20.0343 14.7419 20.0343C13.3991 20.0243 12.0856 20.4131 10.9801 21.1477L10.0136 20.7747C9.67132 20.6428 9.38742 20.4002 9.21066 20.0886C9.0339 19.7769 8.97531 19.4157 9.04496 19.0669C9.11462 18.7181 9.30816 18.4036 9.59234 18.1774C9.87652 17.9513 10.2336 17.8275 10.6022 17.8274H12.3806C13.8549 17.8274 15.3237 18.0016 16.754 18.3461C18.3645 18.7337 20.0182 18.9301 21.6782 18.9309H21.6942C21.8336 18.9307 21.9717 18.9571 22.1005 19.0085C22.2293 19.0598 22.3463 19.1352 22.4448 19.2302C22.5433 19.3252 22.6214 19.4381 22.6745 19.5622C22.7277 19.6864 22.7549 19.8194 22.7546 19.9537V25.6618C22.7546 25.9674 22.7867 26.2742 22.8085 26.582C20.3453 28.9278 18.5774 31.8652 17.6877 35.0901C16.7979 38.3151 16.8186 41.7106 17.7477 44.9253C18.6767 48.14 20.4803 51.0571 22.9719 53.3748C25.4634 55.6925 28.5525 57.3266 31.9194 58.1081V60.8612C31.9194 62.0318 32.402 63.1544 33.261 63.9822C34.12 64.8099 35.2851 65.2749 36.5 65.2749C37.7149 65.2749 38.88 64.8099 39.739 63.9822C40.598 63.1544 41.0806 62.0318 41.0806 60.8612V58.1081C42.5558 57.765 43.9838 57.2554 45.3349 56.5898L60.6068 71.3063C61.7328 72.3909 63.2599 73.0002 64.8521 73C66.4444 72.9998 67.9713 72.3901 69.097 71.3051C70.2227 70.2202 70.855 68.7487 70.8548 67.2145C70.8546 65.6803 70.2219 64.209 69.0959 63.1243L53.8251 48.409C55.7122 44.8714 56.3772 40.8455 55.7231 36.9182C55.0691 32.9909 53.1302 29.3676 50.1893 26.5765C50.211 26.2687 50.2431 25.9619 50.2431 25.6563V19.9537C50.2428 19.8193 50.27 19.6862 50.3233 19.562C50.3765 19.4377 50.4547 19.3249 50.5533 19.2298C50.652 19.1348 50.7691 19.0594 50.898 19.0081C51.027 18.9568 51.1652 18.9306 51.3046 18.9309H51.3195C52.9795 18.9301 54.6332 18.7337 56.2437 18.3461C57.6748 18.0014 59.1443 17.8272 60.6194 17.8274H62.3978C62.7664 17.8275 63.1235 17.9513 63.4077 18.1774C63.6918 18.4036 63.8854 18.7181 63.955 19.0669C64.0247 19.4157 63.9661 19.7769 63.7893 20.0886C63.6126 20.4002 63.3287 20.6428 62.9864 20.7747L62.0199 21.1477C60.9144 20.4131 59.6009 20.0243 58.2581 20.0343C55.1009 20.0343 52.5323 22.0139 52.5323 24.448C52.5323 26.8822 55.1009 28.8617 58.2581 28.8617C59.2012 28.888 60.1378 28.7023 60.9935 28.3193C61.8492 27.9362 62.6005 27.3663 63.188 26.6549H65.9306C67.5403 26.6549 69.0841 26.0387 70.2223 24.942C71.3606 23.8452 72 22.3577 72 20.8067V19.9041C71.9979 17.306 70.926 14.8148 69.0198 12.9774C67.1135 11.14 64.5285 10.1064 61.8321 10.1034ZM14.7419 22.2412C16.604 22.2412 18.1774 23.2519 18.1774 24.448C18.1774 25.6441 16.604 26.6549 14.7419 26.6549C12.8799 26.6549 11.3065 25.6441 11.3065 24.448C11.3065 23.2519 12.8799 22.2412 14.7419 22.2412ZM38.7903 60.8612C38.7903 61.4465 38.549 62.0078 38.1195 62.4217C37.69 62.8355 37.1074 63.068 36.5 63.068C35.8926 63.068 35.31 62.8355 34.8805 62.4217C34.451 62.0078 34.2097 61.4465 34.2097 60.8612V58.5131C35.7303 58.7014 37.2697 58.7014 38.7903 58.5131V60.8612ZM51.2886 59.206L56.5403 54.1457L58.3565 55.8958L53.1048 60.9561L51.2886 59.206ZM68.5645 67.2147C68.5644 67.9224 68.3466 68.6142 67.9385 69.2026C67.5304 69.791 66.9505 70.2496 66.2719 70.5205C65.5933 70.7913 64.8467 70.8621 64.1263 70.7241C63.406 70.586 62.7443 70.2453 62.2249 69.7449L54.7241 62.5163L59.9758 57.456L67.4778 64.6857C67.8236 65.0169 68.0978 65.4111 68.2843 65.8452C68.4709 66.2793 68.5661 66.7449 68.5645 67.2147ZM54.9211 52.5855L49.6694 57.6458L47.379 55.4389C49.4493 54.0901 51.233 52.3725 52.6342 50.3786L54.9211 52.5855ZM53.6774 39.896C53.6774 43.1696 52.67 46.3696 50.7825 49.0915C48.895 51.8134 46.2123 53.9348 43.0735 55.1876C39.9347 56.4403 36.4809 56.7681 33.1489 56.1294C29.8168 55.4908 26.756 53.9144 24.3537 51.5997C21.9514 49.2849 20.3154 46.3357 19.6526 43.1251C18.9898 39.9144 19.33 36.5864 20.6301 33.5621C21.9303 30.5377 24.1319 27.9527 26.9567 26.134C29.7815 24.3153 33.1026 23.3446 36.5 23.3446C41.0542 23.3496 45.4203 25.095 48.6406 28.1979C51.8609 31.3008 53.6723 35.5078 53.6774 39.896ZM42.2258 21.9686C38.4952 20.8608 34.5048 20.8608 30.7742 21.9686V18.9309C30.7742 18.0529 31.1361 17.2109 31.7804 16.5901C32.4247 15.9693 33.2985 15.6206 34.2097 15.6206H38.7903C39.7015 15.6206 40.5753 15.9693 41.2196 16.5901C41.8639 17.2109 42.2258 18.0529 42.2258 18.9309V21.9686ZM58.2581 26.6549C56.396 26.6549 54.8226 25.6441 54.8226 24.448C54.8226 23.2519 56.396 22.2412 58.2581 22.2412C60.1201 22.2412 61.6935 23.2519 61.6935 24.448C61.6935 25.6441 60.1201 26.6549 58.2581 26.6549ZM69.7097 20.8067C69.7097 21.7724 69.3115 22.6986 68.6028 23.3815C67.8941 24.0644 66.9329 24.448 65.9306 24.448H63.9839C63.9772 23.9158 63.8482 23.3916 63.606 22.9131L63.835 22.8238C64.6713 22.5015 65.3651 21.9087 65.7971 21.1471C66.2291 20.3856 66.3724 19.5028 66.2023 18.6505C66.0323 17.7982 65.5595 17.0296 64.8652 16.4767C64.171 15.9238 63.2985 15.6211 62.3978 15.6206H60.6194C58.9594 15.6216 57.3058 15.818 55.6952 16.2054C54.266 16.5497 52.7984 16.7239 51.3253 16.724H51.3092C50.8685 16.7231 50.432 16.806 50.0246 16.968C49.6172 17.1299 49.2469 17.3677 48.935 17.6677C48.6232 17.9677 48.3758 18.3241 48.207 18.7163C48.0382 19.1086 47.9515 19.5291 47.9516 19.9537V24.7603C46.8784 24.0024 45.7272 23.3527 44.5161 22.8216V18.9309C44.5143 17.4682 43.9105 16.0659 42.8371 15.0316C41.7637 13.9973 40.3083 13.4155 38.7903 13.4137H34.2097C32.6917 13.4155 31.2363 13.9973 30.1629 15.0316C29.0895 16.0659 28.4857 17.4682 28.4839 18.9309V22.8216C27.2728 23.3527 26.1216 24.0024 25.0484 24.7603V19.9537C25.0485 19.5296 24.9619 19.1095 24.7935 18.7176C24.6252 18.3257 24.3783 17.9696 24.067 17.6697C23.7557 17.3697 23.3861 17.1318 22.9794 16.9696C22.5727 16.8073 22.1367 16.7239 21.6965 16.724H21.6805C20.2073 16.7239 18.7397 16.5497 17.3105 16.2054C15.7 15.818 14.0463 15.6216 12.3863 15.6206H10.6022C9.70126 15.6206 8.82847 15.9229 8.1338 16.4756C7.43912 17.0284 6.96595 17.797 6.79561 18.6494C6.62526 19.5019 6.76837 20.3849 7.20035 21.1466C7.63234 21.9084 8.3262 22.5014 9.16271 22.8238L9.39174 22.9131C9.15033 23.3917 9.02205 23.9159 9.01613 24.448H7.06935C6.06709 24.448 5.10588 24.0644 4.39718 23.3815C3.68847 22.6986 3.29032 21.7724 3.29032 20.8067V19.9041C3.29184 17.8911 4.12217 15.9609 5.59907 14.5372C7.07598 13.1135 9.07878 12.3126 11.1679 12.3103C12.708 12.3127 14.2441 12.4605 15.7543 12.7517C18.0605 13.1944 20.4065 13.4162 22.7581 13.4137H25.2774C26.8501 13.4152 28.3877 12.9667 29.6955 12.1249C30.6249 11.5266 31.7176 11.2071 32.8355 11.2069H40.1645C41.2847 11.2058 42.38 11.5253 43.3114 12.1249C44.6172 12.9654 46.1523 13.4139 47.7226 13.4137H50.2637C52.6068 13.415 54.9444 13.1932 57.2423 12.7517C58.7536 12.4603 60.2909 12.3124 61.8321 12.3103C63.9206 12.3126 65.9229 13.1131 67.3997 14.5361C68.8765 15.9591 69.7073 17.8884 69.7097 19.9008V20.8067Z" fill="currentcolor"/>
<path d="M36.5 20.5312C33.5673 20.5312 30.7004 21.4009 28.2619 23.0302C25.8235 24.6596 23.9229 26.9754 22.8006 29.6849C21.6783 32.3944 21.3847 35.3758 21.9568 38.2522C22.5289 41.1286 23.9412 43.7707 26.0149 45.8444C28.0887 47.9182 30.7308 49.3304 33.6072 49.9026C36.4836 50.4747 39.465 50.1811 42.1745 49.0588C44.884 47.9365 47.1998 46.0359 48.8291 43.5974C50.4585 41.159 51.3281 38.2921 51.3281 35.3594C51.3236 31.4281 49.7599 27.6591 46.9801 24.8793C44.2002 22.0995 40.4313 20.5358 36.5 20.5312ZM36.5 47.9062C34.0185 47.9062 31.5927 47.1704 29.5293 45.7917C27.466 44.413 25.8578 42.4535 24.9082 40.1609C23.9586 37.8682 23.7101 35.3455 24.1942 32.9116C24.6783 30.4777 25.8733 28.2421 27.628 26.4874C29.3827 24.7327 31.6184 23.5377 34.0522 23.0536C36.4861 22.5695 39.0088 22.8179 41.3015 23.7676C43.5941 24.7172 45.5537 26.3254 46.9323 28.3887C48.311 30.452 49.0469 32.8778 49.0469 35.3594C49.043 38.6858 47.7198 41.8749 45.3677 44.227C43.0155 46.5792 39.8264 47.9023 36.5 47.9062Z" fill="currentcolor"/>
<path d="M43.3438 31.9375H39.9219V28.5156C39.9219 28.2131 39.8017 27.923 39.5878 27.7091C39.3739 27.4952 39.0838 27.375 38.7812 27.375H34.2188C33.9162 27.375 33.6261 27.4952 33.4122 27.7091C33.1983 27.923 33.0781 28.2131 33.0781 28.5156V31.9375H29.6562C29.3537 31.9375 29.0636 32.0577 28.8497 32.2716C28.6358 32.4855 28.5156 32.7756 28.5156 33.0781V37.6406C28.5156 37.9431 28.6358 38.2333 28.8497 38.4472C29.0636 38.6611 29.3537 38.7812 29.6562 38.7812H33.0781V42.2031C33.0781 42.5056 33.1983 42.7958 33.4122 43.0097C33.6261 43.2236 33.9162 43.3438 34.2188 43.3438H38.7812C39.0838 43.3438 39.3739 43.2236 39.5878 43.0097C39.8017 42.7958 39.9219 42.5056 39.9219 42.2031V38.7812H43.3438C43.6463 38.7812 43.9364 38.6611 44.1503 38.4472C44.3642 38.2333 44.4844 37.9431 44.4844 37.6406V33.0781C44.4844 32.7756 44.3642 32.4855 44.1503 32.2716C43.9364 32.0577 43.6463 31.9375 43.3438 31.9375ZM42.2031 36.5H38.7812C38.4787 36.5 38.1886 36.6202 37.9747 36.8341C37.7608 37.048 37.6406 37.3381 37.6406 37.6406V41.0625H35.3594V37.6406C35.3594 37.3381 35.2392 37.048 35.0253 36.8341C34.8114 36.6202 34.5213 36.5 34.2188 36.5H30.7969V34.2188H34.2188C34.5213 34.2188 34.8114 34.0986 35.0253 33.8847C35.2392 33.6708 35.3594 33.3806 35.3594 33.0781V29.6562H37.6406V33.0781C37.6406 33.3806 37.7608 33.6708 37.9747 33.8847C38.1886 34.0986 38.4787 34.2188 38.7812 34.2188H42.2031V36.5Z" fill="currentcolor"/>
</svg>
