<svg width="73" height="73" viewBox="0 0 73 73" fill="none" xmlns="http://www.w3.org/2000/svg">
<g clip-path="url(#clip0_95_320)">
<path d="M25.5514 20.2752C25.4895 20.2851 25.428 20.29 25.3673 20.29C24.8178 20.29 24.3336 19.8919 24.2428 19.3319C24.0232 17.9788 24.6842 16.6286 25.8876 15.9722C27.0911 15.3157 28.5841 15.4911 29.6031 16.408C30.0712 16.8295 30.1092 17.5508 29.6878 18.019C29.2662 18.4868 28.5452 18.525 28.0768 18.1037C27.7764 17.8332 27.3353 17.7816 26.98 17.975C26.625 18.1686 26.4299 18.5672 26.4947 18.9667C26.5955 19.5885 26.1731 20.1742 25.5514 20.2752ZM27.4526 25.4374C27.4951 25.4419 27.5373 25.4443 27.5791 25.4443C28.153 25.4442 28.647 25.0123 28.7115 24.4286C28.8241 23.4063 29.37 22.4787 30.2091 21.8837C31.0482 21.289 32.1041 21.0807 33.1059 21.3124C33.7209 21.4546 34.3325 21.0719 34.4743 20.4584C34.6163 19.8446 34.2338 19.2319 33.6203 19.0899C31.9836 18.7109 30.2593 19.0513 28.8895 20.0228C27.5195 20.9943 26.6281 22.5091 26.4439 24.1784C26.3747 24.8047 26.8264 25.3683 27.4526 25.4374ZM31.7304 31.4761C31.3483 31.8441 31.0967 31.8234 31.0016 31.8147C30.7231 31.7912 29.9358 31.5471 28.6425 29.7943C28.2685 29.2871 27.5544 29.1793 27.0473 29.5536C26.5404 29.9276 26.4326 30.6417 26.8066 31.1487C28.1838 33.0151 29.4929 33.9765 30.8089 34.0878C30.8866 34.0944 30.9692 34.0983 31.0559 34.0983C31.6702 34.0983 32.4961 33.9052 33.3122 33.1196C33.7661 32.6829 33.7798 31.9607 33.343 31.5068C32.9065 31.0529 32.1844 31.0394 31.7304 31.4761ZM36.5001 35.9717C35.733 37.169 34.5664 38.1148 33.12 38.6042C32.4269 38.8387 31.7209 38.9511 31.0266 38.9511C28.9386 38.9511 26.9556 37.9347 25.7367 36.1671C23.3825 36.27 21.216 34.6726 20.6932 32.2946C20.5109 31.4656 20.5459 30.6186 20.7816 29.8272C19.2822 29.3142 18.1745 27.9784 17.9703 26.3848C17.8094 25.1281 18.2348 23.8867 19.0693 22.9883C18.7594 22.5326 18.513 22.0219 18.3475 21.4641C17.6528 19.1234 18.5864 16.6952 20.5496 15.4098C20.0667 13.5602 20.5482 11.5371 21.88 10.1082C22.2514 9.7097 22.674 9.37464 23.1307 9.10531C22.7642 7.52312 23.1502 5.82887 24.2225 4.55465C25.0271 3.59838 26.1315 2.98486 27.3175 2.77499C28.3998 0.908781 30.5219 -0.194061 32.7047 0.0411932C34.2723 0.211146 35.6145 1.01244 36.5021 2.16889C37.391 1.01215 38.7336 0.210433 40.2952 0.0411932C42.4795 -0.194631 44.6002 0.908781 45.6823 2.77484C46.8684 2.98458 47.9728 3.59838 48.7773 4.55465C49.8495 5.82887 50.2355 7.52327 49.8691 9.10531C50.3256 9.37479 50.7483 9.7097 51.1198 10.1083C52.4514 11.5371 52.9328 13.5603 52.45 15.4098C54.4135 16.6952 55.3469 19.1236 54.6521 21.4643C54.4866 22.0219 54.2402 22.5326 53.9302 22.9883C54.7648 23.8865 55.1904 25.128 55.0295 26.3848C54.8252 27.9785 53.7175 29.3142 52.2183 29.8272C52.4539 30.6186 52.4888 31.4656 52.3066 32.2948C51.7837 34.6724 49.6183 36.2721 47.263 36.1671C46.0443 37.9345 44.0607 38.9509 41.9731 38.9511C41.2786 38.9511 40.5732 38.8387 39.8797 38.6042C38.4337 38.1148 37.2671 37.169 36.5001 35.9717ZM37.6467 5.73391C37.6534 5.84427 37.6433 5.95148 37.62 6.05428V27.6681C38.7967 26.6076 40.3617 25.9876 42.0628 26.0184C42.6927 26.0292 43.1945 26.5487 43.1836 27.1785C43.1727 27.8086 42.658 28.3119 42.0234 28.2993C39.9443 28.2695 38.1849 29.7217 37.8302 31.7665C37.4757 33.8114 38.6452 35.7783 40.611 36.4432C42.5765 37.1081 44.7005 36.2552 45.6602 34.4152C45.8981 33.9585 46.4125 33.7183 46.916 33.8285C48.3455 34.1429 49.7645 33.2342 50.0788 31.8047C50.2224 31.1523 50.1156 30.4792 49.7864 29.9087C48.805 29.647 47.9253 29.0345 47.3476 28.1516C47.0025 27.6246 47.1501 26.9176 47.6773 26.5727C48.2045 26.2272 48.9115 26.3754 49.2563 26.9025C49.6945 27.572 50.5128 27.9022 51.293 27.7222C52.073 27.5428 52.6653 26.8889 52.767 26.0952C52.8397 25.5277 52.6506 24.967 52.2782 24.5576C51.4528 25.0585 50.493 25.3373 49.4895 25.3373C49.1274 25.3373 48.7598 25.3012 48.3905 25.2262C47.7733 25.1007 47.3744 24.4986 47.4998 23.8813C47.6253 23.2639 48.2276 22.8657 48.8448 22.9906C49.8186 23.1883 50.775 22.9171 51.4803 22.3232C51.5106 22.2935 51.5425 22.2663 51.5754 22.2405C51.9825 21.8683 52.297 21.3843 52.4658 20.8154C52.9304 19.2502 52.1358 17.6172 50.6176 17.017C50.3216 16.9001 50.0879 16.6645 49.9731 16.3677C49.8582 16.0708 49.8728 15.7396 50.0128 15.4539C50.6257 14.2046 50.4 12.6816 49.4513 11.6639C48.5026 10.6462 46.9997 10.3138 45.7101 10.8375C44.4209 11.361 43.5747 12.6474 43.6043 14.0384C43.6179 14.6683 43.1181 15.1897 42.4884 15.2031C42.4799 15.2032 42.4718 15.2034 42.4635 15.2034C41.8448 15.2034 41.3369 14.7086 41.3236 14.0871C41.2739 11.7564 42.6917 9.60106 44.8516 8.72392C45.7661 8.35236 46.7449 8.23887 47.6905 8.35991C47.8135 7.5361 47.585 6.68077 47.032 6.02349C46.5162 5.4104 45.7823 5.04554 45.0103 4.98324C44.9349 4.98766 44.8599 4.98452 44.7861 4.97411C44.5134 4.97283 44.2382 5.00876 43.9682 5.08561C42.8534 5.40284 42.0247 6.34871 41.857 7.49575C41.7658 8.1191 41.186 8.55111 40.5636 8.45958C39.9402 8.36847 39.5088 7.78932 39.5997 7.16611C39.8765 5.27196 41.1704 3.68791 42.9433 3.0245C42.2836 2.48983 41.4222 2.21465 40.5412 2.30918C38.8134 2.49639 37.5419 4.00073 37.6467 5.73391ZM35.1698 31.7665C34.8151 29.7214 33.0473 28.2593 30.9766 28.2993C30.3475 28.3144 29.8273 27.8086 29.8164 27.1785C29.8056 26.5487 30.3073 26.0292 30.9373 26.0184C30.9756 26.0178 31.0144 26.0174 31.0527 26.0174C32.6895 26.0174 34.1936 26.6199 35.3389 27.6343V5.17258C35.1742 3.68463 34.0025 2.47643 32.4591 2.30904C31.5803 2.21351 30.718 2.48897 30.0573 3.0245C31.8299 3.68791 33.1237 5.27181 33.4006 7.16582C33.4917 7.78917 33.0602 8.36833 32.4369 8.45943C31.8135 8.54969 31.2344 8.1191 31.1433 7.49575C30.9756 6.34871 30.1469 5.40256 29.0321 5.08547C28.7618 5.00847 28.4865 4.97269 28.2137 4.97397C28.1403 4.98423 28.0657 4.98737 27.9906 4.98309C27.2182 5.0454 26.4841 5.41026 25.9683 6.02334C25.4152 6.68063 25.1866 7.53596 25.3097 8.35991C26.2553 8.23887 27.2342 8.35236 28.1487 8.72377C30.3086 9.60106 31.7264 11.7564 31.6765 14.087C31.6633 14.7085 31.1553 15.2032 30.5366 15.2032C30.5283 15.2032 30.5202 15.2031 30.5118 15.203C29.8819 15.1894 29.3823 14.668 29.3958 14.0382C29.4256 12.6472 28.5794 11.3609 27.2902 10.8374C26.0012 10.3137 24.4976 10.6456 23.549 11.6636C22.6003 12.6815 22.3747 14.2045 22.9875 15.4537C23.1275 15.7395 23.1421 16.0708 23.0272 16.3677C22.9124 16.6644 22.6788 16.8998 22.3827 17.0168C20.8647 17.6171 20.0701 19.25 20.5345 20.8153C20.7033 21.3841 21.0178 21.8683 21.425 22.2405C21.4577 22.2661 21.4893 22.2932 21.5194 22.3226C22.2249 22.917 23.1817 23.1883 24.1557 22.9904C24.7736 22.8657 25.3751 23.2637 25.5006 23.8811C25.6261 24.4985 25.2271 25.1006 24.6099 25.2261C24.2409 25.3009 23.8729 25.3371 23.5109 25.3371C22.5072 25.3371 21.5475 25.0584 20.7221 24.5575C20.3497 24.9668 20.1606 25.5275 20.2335 26.0951C20.3351 26.8889 20.9273 27.5427 21.7073 27.722C22.4871 27.9012 23.3058 27.5719 23.7439 26.9023C24.0888 26.3754 24.7956 26.2277 25.323 26.5726C25.8499 26.9176 25.9976 27.6245 25.6527 28.1516C25.0749 29.0343 24.1952 29.647 23.2138 29.9087C22.8847 30.4793 22.7779 31.1523 22.9214 31.8047C23.2358 33.2344 24.6548 34.1427 26.0843 33.8285C26.5878 33.7181 27.1022 33.9585 27.3403 34.4152C28.2998 36.2552 30.4233 37.1084 32.3891 36.4432C34.3548 35.7781 35.5244 33.8112 35.1698 31.7665ZM44.9235 18.1036C45.2243 17.8328 45.6649 17.781 46.02 17.9748C46.3752 18.1686 46.5704 18.5672 46.5055 18.9666C46.4045 19.5882 46.8267 20.1744 47.4485 20.2753C47.5104 20.2853 47.5718 20.2901 47.6327 20.2901C48.1822 20.2901 48.6663 19.8921 48.7572 19.3322C48.9771 17.9791 48.316 16.6289 47.1123 15.9722C45.9091 15.3159 44.416 15.4911 43.397 16.4083C42.9288 16.8298 42.891 17.5511 43.3125 18.0192C43.7342 18.4871 44.4554 18.5253 44.9235 18.1036ZM39.8943 21.3124C40.8962 21.0803 41.952 21.2889 42.7912 21.8839C43.6301 22.4787 44.1759 23.4062 44.2886 24.4286C44.353 25.0123 44.847 25.4443 45.4209 25.4443C45.4627 25.4443 45.5049 25.4419 45.5474 25.4374C46.1736 25.3683 46.6253 24.8046 46.5561 24.1785C46.3719 22.5089 45.4806 20.9943 44.1106 20.0229C42.7407 19.0516 41.0164 18.7117 39.3799 19.0901C38.7662 19.2321 38.3838 19.8447 38.5258 20.4585C38.6678 21.072 39.2796 21.4546 39.8943 21.3124ZM45.9527 29.5536C45.4456 29.1795 44.7317 29.2874 44.3576 29.7943C43.0641 31.5473 42.2769 31.7912 41.9985 31.8147C41.9039 31.8234 41.6517 31.8441 41.2696 31.4761C40.8156 31.0391 40.0938 31.0529 39.6568 31.5069C39.2198 31.9609 39.2336 32.6829 39.6876 33.1197C40.5038 33.9053 41.3296 34.0984 41.9439 34.0984C42.0305 34.0984 42.1131 34.0946 42.1907 34.088C43.5066 33.9766 44.8158 33.0154 46.1931 31.1489C46.5674 30.6419 46.4596 29.9277 45.9527 29.5536ZM64.5637 52.4392C63.3048 53.4031 62.0056 54.3975 60.6696 55.5414C60.1568 57.4061 59.6973 59.0804 59.2905 60.5666L61.43 61.8019C61.6921 61.9532 61.8831 62.2023 61.9615 62.4944C62.0398 62.7866 61.9989 63.0978 61.8475 63.3599L56.6166 72.4201C56.4054 72.786 56.0219 72.9906 55.6276 72.9906C55.4342 72.9906 55.2381 72.9412 55.0585 72.8376L38.3536 63.1932C38.0915 63.0419 37.9005 62.7928 37.8221 62.5007C37.7438 62.2085 37.7847 61.8973 37.9361 61.6352L43.167 52.575C43.4818 52.0295 44.1795 51.8423 44.7251 52.1575L45.0716 52.3575C45.9149 47.0049 46.377 44.9443 46.8964 44.1145L56.9402 28.0631C57.1618 27.7089 57.4298 27.3997 57.7312 27.138L57.7747 23.954C57.7978 22.258 59.1854 20.8941 60.8762 20.8941C60.8906 20.8941 60.9046 20.8941 60.919 20.8944C60.9568 20.895 60.9944 20.8974 61.0321 20.8994L61.0409 20.3229C61.067 18.6278 62.4541 17.2649 64.1423 17.2649C64.1567 17.2649 64.1709 17.2649 64.1853 17.2652C64.5416 17.27 64.8881 17.3398 65.2132 17.4612C65.6071 16.1371 66.7941 15.1873 68.1801 15.1873C68.194 15.1873 68.2077 15.1873 68.2217 15.1876C69.8474 15.2095 71.1326 16.4856 71.2774 18.2213L72.9372 38.1023C73.559 45.5528 69.3904 48.744 64.5637 52.4392ZM63.3222 20.3577L63.2166 27.2569C63.7991 27.8342 64.1779 28.5775 64.3235 29.3843L64.9443 20.195C64.9359 20.1561 64.9259 20.1173 64.9116 20.0795C64.7919 19.765 64.4874 19.5506 64.1544 19.546C64.1507 19.546 64.1468 19.546 64.1431 19.546C63.6963 19.546 63.3291 19.9077 63.3222 20.3577ZM59.3576 41.5058L63.7904 37.278L64.181 31.4934C64.1123 31.7112 64.0262 31.9277 63.9226 32.1404L59.3576 41.5058ZM60.0263 26.1455C60.3333 26.114 60.644 26.1174 60.9519 26.1567L60.9974 23.1848C60.9613 23.1793 60.925 23.1758 60.8878 23.1754C60.8842 23.1754 60.8802 23.1754 60.8765 23.1754C60.4292 23.1754 60.062 23.5362 60.0558 23.9852L60.0263 26.1455ZM59.3016 63.207L44.5721 54.7031L40.4819 61.7878L55.2113 70.2917L59.3016 63.207ZM70.6638 38.2921L69.004 18.411C68.9665 17.9618 68.6962 17.4752 68.1908 17.4685C67.6848 17.4657 67.3849 17.9121 67.356 18.3394L66.0366 37.8743C66.0173 38.1589 65.8921 38.4259 65.6858 38.6228L56.338 47.5382C55.9385 47.9191 55.3234 47.9594 54.8775 47.6336C54.4318 47.3078 54.2836 46.7094 54.5254 46.2131L61.8719 31.1408C62.2782 30.3074 62.2138 29.1806 61.3047 28.6391C60.474 28.1442 59.4062 28.4225 58.874 29.2728L48.8302 45.3243C48.3649 46.0838 47.5821 51.0361 47.1893 53.58L57.248 59.3873C57.6403 57.9557 58.0778 56.3623 58.5622 54.6016C58.6219 54.3847 58.7444 54.1902 58.9144 54.0428C60.3946 52.7576 61.8091 51.6749 63.177 50.6276C67.9974 46.9376 71.1821 44.4996 70.6638 38.2921ZM35.064 61.6351C35.2155 61.8971 35.2564 62.2084 35.1781 62.5005C35.0997 62.7928 34.9086 63.0419 34.6466 63.193L17.9417 72.8376C17.762 72.9414 17.5658 72.9906 17.3725 72.9906C16.9781 72.9906 16.5949 72.786 16.3836 72.4201L11.1527 63.3599C11.0013 63.0978 10.9603 62.7866 11.0386 62.4944C11.117 62.2021 11.3081 61.953 11.5702 61.8019L13.7097 60.5666C13.3028 59.0804 12.8432 57.4061 12.3305 55.5414C10.9947 54.3975 9.69539 53.4029 8.43643 52.4391C3.60959 48.744 -0.558968 45.5528 0.0629575 38.1023L1.72271 18.2212C1.86757 16.4854 3.15263 15.2095 4.77859 15.1876C4.79256 15.1873 4.80625 15.1873 4.82022 15.1873C6.20594 15.1873 7.3929 16.1371 7.78684 17.4612C8.11192 17.3398 8.45838 17.27 8.81454 17.2652C8.82894 17.2649 8.8432 17.2649 8.8576 17.2649C10.546 17.2649 11.9332 18.628 11.959 20.3229L11.9678 20.8994C12.0054 20.8974 12.0431 20.895 12.0807 20.8944C12.095 20.8941 12.1091 20.8941 12.1234 20.8941C13.8148 20.8941 15.2022 22.2579 15.2253 23.954L15.2688 27.1382C15.5702 27.3997 15.8382 27.709 16.0598 28.0632L26.1036 44.1147C26.6231 44.9448 27.0854 47.0051 27.9284 52.3577L28.275 52.1576C28.8208 51.8423 29.5183 52.0297 29.8331 52.5751L35.064 61.6351ZM12.0027 23.1846L12.0482 26.1567C12.3562 26.1176 12.6669 26.1142 12.9738 26.1457L12.9443 23.9851C12.9382 23.5362 12.5709 23.1752 12.1232 23.1752C12.1195 23.1752 12.1157 23.1752 12.1119 23.1752C12.075 23.1756 12.0387 23.1793 12.0027 23.1846ZM9.0776 32.1402C8.9738 31.9277 8.88797 31.7112 8.81911 31.4935L9.20977 37.278L13.6424 41.5058L9.0776 32.1402ZM8.08868 20.0797C8.07428 20.1172 8.06444 20.1561 8.05603 20.195L8.67681 29.3843C8.82239 28.5775 9.20122 27.8342 9.78365 27.2569L9.678 20.3577C9.67115 19.9079 9.30402 19.5462 8.85703 19.5462C8.85333 19.5462 8.84948 19.5462 8.84577 19.5462C8.51271 19.5506 8.20845 19.765 8.08868 20.0797ZM15.7521 59.3875L25.8107 53.5803C25.4179 51.0364 24.6353 46.0842 24.1698 45.3243L14.126 29.2728C13.5939 28.4225 12.5263 28.1439 11.6952 28.6391C10.7864 29.1806 10.722 30.3074 11.1282 31.1406L18.4745 46.2131C18.7163 46.7093 18.568 47.3078 18.1223 47.6336C17.6766 47.9596 17.0615 47.9196 16.6619 47.5382L7.31434 38.6228C7.10803 38.4259 6.98284 38.1589 6.9636 37.8743L5.64418 18.3394C5.61552 17.9154 5.31739 17.4685 4.82093 17.4685C4.81722 17.4685 4.81323 17.4685 4.80953 17.4685C4.30394 17.4754 4.03362 17.9618 3.99612 18.411L2.33637 38.2921C1.81795 44.4996 5.00258 46.9376 9.823 50.6278C11.191 51.675 12.6056 52.7577 14.0858 54.0429C14.2556 54.1904 14.3782 54.3847 14.4378 54.6017C14.9223 56.3623 15.3599 57.9559 15.7521 59.3875ZM32.5183 61.7879L28.428 54.7032L13.6986 63.207L17.7888 70.2917L32.5183 61.7879Z" fill="currentcolor"/>
</g>
<defs>
<clipPath id="clip0_95_320">
<rect width="73" height="73" fill="white"/>
</clipPath>
</defs>
</svg>
