<svg width="74" height="74" viewBox="0 0 74 74" fill="none" xmlns="http://www.w3.org/2000/svg">
<g clip-path="url(#clip0_95_418)">
<path d="M29.3626 37.737C29.9614 37.737 30.4466 37.2516 30.4466 36.653V35.3755L30.7907 35.4677C31.3703 35.6226 31.9636 35.2788 32.1184 34.7012C32.2733 34.123 31.9302 33.5285 31.3519 33.3736L27.8739 32.4416C27.2955 32.2868 26.7013 32.63 26.5462 33.2081C26.3913 33.7863 26.7344 34.3808 27.3127 34.5357L28.3357 34.8099C28.2993 34.9183 28.2786 35.0341 28.2786 35.1549V36.6531C28.2786 37.2516 28.7639 37.737 29.3626 37.737Z" fill="currentcolor"/>
<path d="M35.1916 37.0912C34.7983 37.5426 34.8453 38.2272 35.2966 38.6206C35.7476 39.0137 36.4324 38.9672 36.8261 38.5157C37.6535 37.5663 39.1243 37.5668 39.9508 38.5157C40.3441 38.9671 41.0289 39.014 41.4801 38.6208C41.9315 38.2275 41.9786 37.5428 41.5853 37.0913C39.894 35.1503 36.8819 35.1522 35.1916 37.0912Z" fill="currentcolor"/>
<path d="M44.6585 34.7011C44.7882 35.1854 45.2263 35.5048 45.7048 35.5048C45.7977 35.5048 45.8921 35.4928 45.9861 35.4677L46.3302 35.3755V36.653C46.3302 37.2516 46.8154 37.737 47.4142 37.737C48.013 37.737 48.4982 37.2516 48.4982 36.653V35.1548C48.4982 35.0341 48.4775 34.9183 48.4411 34.8099L49.4642 34.5358C50.0425 34.3808 50.3856 33.7864 50.2307 33.2081C50.0759 32.6298 49.4818 32.2867 48.903 32.4415L45.4248 33.3734C44.8467 33.5285 44.5036 34.1228 44.6585 34.7011Z" fill="currentcolor"/>
<path d="M66.7736 31.3984H63.2581C62.9092 31.3984 62.6016 31.1699 62.4926 30.8298C62.07 29.5092 61.5321 28.2131 60.8941 26.977C60.7338 26.6667 60.7796 26.2843 61.0321 26.0315L64.1437 22.9201C66.9507 20.1134 67.0163 15.4661 64.1293 12.6874C61.3841 10.0452 56.9587 10.0011 54.1761 12.7841L50.9674 15.993C50.723 16.2375 50.3529 16.2826 50.0524 16.1269C48.8599 15.5094 47.5448 14.9542 46.1638 14.5135C45.8348 14.4085 45.6137 14.1107 45.6137 13.7727V7.22685C45.6137 3.18215 42.3281 -0.0809347 38.3678 0.00159268C34.5248 0.0750146 31.3983 3.26294 31.3983 7.1079V13.4942C31.3983 13.8948 31.1893 14.2723 30.8528 14.4793C30.3429 14.7929 30.1838 15.4607 30.4976 15.9706C30.8112 16.4806 31.4788 16.6393 31.9887 16.3258C32.9617 15.7272 33.5663 14.6422 33.5663 13.4942V7.1079C33.5663 4.40185 35.7938 2.16826 38.5019 2.16826C41.1816 2.16826 43.4456 4.48481 43.4456 7.22685V13.773C43.4456 15.0583 44.2729 16.1859 45.5043 16.5792C46.7209 16.9674 47.9155 17.463 49.0548 18.0522C49.0551 18.0524 49.0554 18.0527 49.0557 18.0528C50.1706 18.6295 51.5669 18.4594 52.5002 17.5263L55.709 14.3173C57.6446 12.3814 60.7198 12.4152 62.6256 14.2496C64.6249 16.1738 64.5708 19.4272 62.6106 21.3873L59.4986 24.4989C58.558 25.44 58.3872 26.8486 58.9674 27.9719C59.5501 29.1008 60.0415 30.2846 60.4274 31.4908C60.8247 32.7323 61.962 33.5665 63.2576 33.5665H66.7732C69.5277 33.5665 71.8814 35.8598 71.8308 38.603C71.7798 41.2734 69.5642 43.446 66.8922 43.446H63.5176C62.0798 43.446 60.8119 44.36 60.3628 45.7202C60.0094 46.7904 59.5719 47.8443 59.063 48.853C58.8306 49.3135 58.7078 49.8293 58.7078 50.345C58.7078 51.2333 59.0541 52.069 59.6826 52.6975C61.2268 54.242 61.5085 56.5029 60.655 58.3062C60.3989 58.8473 60.6298 59.4935 61.1709 59.7498C61.7119 60.0061 62.3582 59.7749 62.6143 59.234C63.8434 56.638 63.4363 53.3855 61.2157 51.1646C60.9963 50.9454 60.8756 50.6543 60.8756 50.345C60.8756 50.1645 60.9169 49.9911 60.9983 49.8299C61.5555 48.726 62.0343 47.572 62.4215 46.4C62.5767 45.9299 63.0173 45.6141 63.5176 45.6141H66.8922C70.7854 45.6141 73.9996 42.4102 73.9996 38.5104C74.0001 34.5888 70.7582 31.3984 66.7736 31.3984Z" fill="currentcolor"/>
<path d="M58.1596 60.6979C57.5562 60.9468 56.9094 61.0731 56.2369 61.0731C54.8708 61.0731 53.5496 60.5356 52.6125 59.5983C51.6779 58.6641 50.2027 58.3736 48.9534 59.0115C47.8795 59.5603 46.7552 60.0267 45.6117 60.398C44.3158 60.8188 43.4452 62.0246 43.4452 63.3988V66.892C43.4452 69.6035 41.2119 71.8316 38.5097 71.8316C35.8298 71.8316 33.5659 69.5151 33.5659 66.773V64.7746C33.5659 62.6737 32.244 60.7553 30.2768 60.001C29.8936 59.854 29.5103 59.695 29.1374 59.5284C27.2288 58.6757 24.9554 59.0415 23.424 60.5729L21.3022 62.6946C19.3667 64.6302 16.2918 64.5971 14.3857 62.7624C12.3903 60.8422 12.4358 57.5896 14.4007 55.6247L17.2607 52.7646C17.9136 52.1119 18.2732 51.2437 18.2732 50.3197C18.2732 49.7865 18.147 49.2521 17.9085 48.7738C17.9081 48.7728 17.9078 48.7718 17.9072 48.7709C17.429 47.8143 17.0152 46.8167 16.677 45.806C16.2045 44.3939 14.8868 43.4454 13.3981 43.4454H7.10697C4.4129 43.4454 2.16747 41.2325 2.16747 38.5096C2.16747 35.8299 4.48387 33.5659 7.22592 33.5659H13.4934C14.9316 33.5659 16.1988 32.6539 16.6465 31.2965C16.9997 30.2258 17.4373 29.1707 17.9472 28.1603C18.5729 26.9198 18.3794 25.3655 17.3278 24.3138C15.4042 22.3896 15.4151 19.3149 17.2606 17.3974C19.2125 15.3689 22.4858 15.4805 24.4166 17.4311C25.3342 18.3585 26.7054 18.5775 27.8547 18.0933C28.4064 17.861 28.6652 17.2252 28.433 16.6736C28.2004 16.1217 27.5644 15.863 27.0133 16.0953C26.6626 16.2432 26.2365 16.1879 25.9575 15.9061C23.1952 13.1151 18.519 12.963 15.6986 15.894C13.0456 18.6505 13.0241 23.0754 15.7947 25.8465C16.1529 26.2048 16.2354 26.7403 16.0118 27.1836C15.4536 28.2895 14.9745 29.4449 14.5878 30.6172C14.4337 31.0841 13.9939 31.3978 13.4934 31.3978H7.22606C3.25347 31.3978 -0.0590378 34.5869 0.000798161 38.6436C0.0743646 42.4867 3.262 45.6132 7.10711 45.6132H13.3981C13.9533 45.6132 14.4447 45.9672 14.621 46.4938C14.9914 47.6007 15.4444 48.6927 15.9677 49.74C15.9677 49.7401 15.9679 49.7403 15.968 49.7404C16.0589 49.9225 16.105 50.1172 16.105 50.3196C16.105 50.6643 15.9711 50.988 15.7277 51.2314L12.8675 54.0917C10.0612 56.8982 9.9947 61.5455 12.8821 64.3244C15.6316 66.9704 20.0557 67.007 22.8353 64.2275L24.957 62.1058C25.8504 61.2123 27.1657 61.022 28.253 61.5077C28.6612 61.6901 29.0808 61.8642 29.5003 62.0253C30.6354 62.4605 31.3979 63.5654 31.3979 64.7747V66.7733C31.3979 70.8208 34.6871 74.0815 38.6438 73.9986C42.4868 73.9251 45.6133 70.7372 45.6133 66.8923V63.3991C45.6133 62.9674 45.8817 62.59 46.2813 62.4603C47.5335 62.0538 48.7645 61.543 49.94 60.9425C50.3068 60.7547 50.784 60.8362 51.0797 61.1318C52.4204 62.4725 54.3002 63.2414 56.2372 63.2414C57.1947 63.2414 58.1197 63.06 58.9866 62.7024C59.54 62.4741 59.8035 61.8403 59.5751 61.287C59.3468 60.7332 58.7127 60.4694 58.1596 60.6979Z" fill="currentcolor"/>
<path d="M7.57837 29.0994C9.9692 29.0994 11.9143 27.1543 11.9143 24.7634C11.9143 22.3726 9.9692 20.4275 7.57837 20.4275C5.18753 20.4275 3.24243 22.3726 3.24243 24.7634C3.24243 27.1543 5.18753 29.0994 7.57837 29.0994ZM7.57837 22.5955C8.77379 22.5955 9.74634 23.568 9.74634 24.7634C9.74634 25.9588 8.77379 26.9314 7.57837 26.9314C6.38295 26.9314 5.4104 25.9588 5.4104 24.7634C5.4104 23.568 6.38281 22.5955 7.57837 22.5955Z" fill="currentcolor"/>
<path d="M51.9495 64.7986C49.5586 64.7986 47.6135 66.7437 47.6135 69.1345C47.6135 71.5254 49.5586 73.4705 51.9495 73.4705C54.3403 73.4705 56.2854 71.5254 56.2854 69.1345C56.2854 66.7437 54.3403 64.7986 51.9495 64.7986ZM51.9495 71.3025C50.754 71.3025 49.7815 70.3299 49.7815 69.1345C49.7815 67.9391 50.754 66.9666 51.9495 66.9666C53.1449 66.9666 54.1174 67.9391 54.1174 69.1345C54.1174 70.3299 53.1449 71.3025 51.9495 71.3025Z" fill="currentcolor"/>
<path d="M51.01 11.5433C52.8031 11.5433 54.262 10.0845 54.262 8.29132C54.262 6.49812 52.8031 5.03937 51.01 5.03937C49.217 5.03937 47.7581 6.49812 47.7581 8.29132C47.7581 10.0845 49.2168 11.5433 51.01 11.5433ZM51.01 7.20734C51.6078 7.20734 52.094 7.69354 52.094 8.29132C52.094 8.8891 51.6078 9.3753 51.01 9.3753C50.4122 9.3753 49.926 8.8891 49.926 8.29132C49.926 7.69354 50.4122 7.20734 51.01 7.20734Z" fill="currentcolor"/>
<path d="M68.7874 29.3206C70.5804 29.3206 72.0393 27.8619 72.0393 26.0687C72.0393 24.2755 70.5804 22.8167 68.7874 22.8167C66.9943 22.8167 65.5354 24.2755 65.5354 26.0687C65.5354 27.8619 66.9942 29.3206 68.7874 29.3206ZM68.7874 24.9847C69.3851 24.9847 69.8713 25.4709 69.8713 26.0687C69.8713 26.6664 69.3851 27.1526 68.7874 27.1526C68.1896 27.1526 67.7034 26.6664 67.7034 26.0687C67.7034 25.4709 68.1896 24.9847 68.7874 24.9847Z" fill="currentcolor"/>
<path d="M52.1224 42.7335C51.6992 42.3102 51.0128 42.3104 50.5895 42.7335C50.1661 43.1569 50.1661 43.8433 50.5896 44.2666C51.8577 45.5347 53.9209 45.5341 55.1886 44.2666C56.4563 42.9986 56.4563 40.9356 55.1886 39.6676C54.7653 39.2444 54.0789 39.2443 53.6557 39.6676C53.2322 40.0909 53.2322 40.7773 53.6555 41.2006C54.0783 41.6233 54.0783 42.3111 53.6557 42.7335C53.2325 43.1563 52.545 43.1562 52.1224 42.7335Z" fill="currentcolor"/>
<path d="M47.699 22.3238C47.2755 22.7472 47.2755 23.4336 47.6988 23.8569C48.1222 24.2801 48.8085 24.2802 49.2317 23.8569C49.6545 23.4343 50.3422 23.4341 50.7648 23.8569C51.1875 24.2795 51.1875 24.9673 50.7648 25.3899C50.3414 25.8133 50.3414 26.4996 50.7649 26.923C51.1878 27.346 51.8743 27.3463 52.2978 26.923C53.5655 25.655 53.5655 23.592 52.2977 22.324C51.0298 21.056 48.9665 21.0562 47.699 22.3238Z" fill="currentcolor"/>
<path d="M8.30103 65.3767C6.50797 65.3767 5.04907 66.8355 5.04907 68.6287C5.04907 70.4219 6.50797 71.8806 8.30103 71.8806C10.0941 71.8806 11.553 70.4219 11.553 68.6287C11.553 66.8355 10.0941 65.3767 8.30103 65.3767ZM8.30103 69.7126C7.70324 69.7126 7.21704 69.2264 7.21704 68.6287C7.21704 68.0309 7.70324 67.5447 8.30103 67.5447C8.89881 67.5447 9.38501 68.0309 9.38501 68.6287C9.38501 69.2264 8.89866 69.7126 8.30103 69.7126Z" fill="currentcolor"/>
<path d="M29.7738 21.5574C28.0835 23.248 28.0835 25.9987 29.7738 27.6893C30.197 28.1125 30.8835 28.1128 31.3067 27.6893C31.7302 27.266 31.7302 26.5797 31.3069 26.1564C30.4615 25.3112 30.4615 23.9357 31.3067 23.0905C32.1522 22.2452 33.5274 22.2452 34.373 23.0905C34.7961 23.5139 35.4825 23.5138 35.9058 23.0905C36.3292 22.6671 36.3292 21.9807 35.9057 21.5576C34.2156 19.8668 31.4644 19.867 29.7738 21.5574Z" fill="currentcolor"/>
<path d="M41.4241 53.6174C41.0009 53.1939 40.3145 53.194 39.8912 53.6174C39.4679 54.0407 39.4679 54.7271 39.8914 55.1502C41.5815 56.8407 44.3328 56.841 46.0232 55.1502C47.7177 53.4561 47.7182 50.7131 46.0234 49.0184C45.5999 48.595 44.9137 48.595 44.4903 49.0184C44.067 49.4417 44.067 50.1281 44.4903 50.5513C45.3373 51.3982 45.3379 52.7697 44.4905 53.6172C43.6448 54.4624 42.2695 54.4624 41.4241 53.6174Z" fill="currentcolor"/>
<path d="M21.8687 41.0253C21.4452 40.602 20.759 40.602 20.3356 41.0253C18.2224 43.1385 18.2224 46.5771 20.3356 48.6902C22.4537 50.8084 25.8822 50.8086 28.0006 48.6902C28.4239 48.2669 28.4239 47.5805 28.0004 47.1572C27.5772 46.7339 26.8908 46.734 26.4675 47.1572C25.1968 48.4281 23.1397 48.4282 21.8688 47.1572C20.6008 45.8892 20.6008 43.8262 21.8688 42.5582C22.2919 42.1349 22.2919 41.4485 21.8687 41.0253Z" fill="currentcolor"/>
</g>
<defs>
<clipPath id="clip0_95_418">
<rect width="74" height="74" fill="white"/>
</clipPath>
</defs>
</svg>
