<svg width="73" height="73" viewBox="0 0 73 73" fill="none" xmlns="http://www.w3.org/2000/svg">
<path d="M17.2904 27.1252C16.554 26.7216 15.6295 26.9915 15.2258 27.7282L15.1952 27.7835C14.7916 28.5201 15.0614 29.4445 15.7982 29.8482C16.0302 29.9753 16.2807 30.0355 16.5278 30.0355C17.0653 30.0355 17.5863 29.7499 17.8629 29.2452L17.8934 29.1899C18.297 28.4533 18.027 27.5288 17.2904 27.1252Z" fill="currentcolor"/>
<path d="M65.9606 31.9607C63.569 22.6521 56.8636 14.9139 47.8157 11.2979C46.2528 6.41714 41.6573 3.04132 36.5001 3.04132C31.2111 3.04132 26.72 6.51624 25.1853 11.3023C19.7361 13.4849 15.0697 17.1668 11.6556 21.9904C9.49884 25.0378 7.94388 28.4067 7.03338 31.9612C3.10635 32.2544 0 35.541 0 39.5416C0 43.5445 3.10949 46.8328 7.03965 47.1228C10.4169 60.2387 22.3446 69.9585 36.5001 69.9585C50.6554 69.9585 62.5831 60.2387 65.9602 47.1228C69.8904 46.8328 73 43.5445 73 39.5413C73 35.5389 69.8907 32.251 65.9606 31.9607ZM3.0419 39.5413C3.0419 37.4427 4.46669 35.6706 6.39948 35.1408C6.26887 36.0459 6.17791 36.9598 6.12858 37.8807C6.12772 37.8935 6.1273 37.9061 6.12658 37.9189C6.11774 38.0866 6.1099 38.2544 6.10391 38.4225C6.10149 38.4862 6.1002 38.55 6.09849 38.6137C6.09479 38.7343 6.09094 38.8548 6.08866 38.9756C6.08538 39.1642 6.08338 39.3528 6.08338 39.5415C6.08338 39.7717 6.08695 40.0019 6.09236 40.2323C6.09393 40.3044 6.09593 40.3763 6.09821 40.4481C6.10306 40.6157 6.10961 40.7832 6.11731 40.9506C6.12045 41.0216 6.1233 41.0927 6.12687 41.1639C6.13799 41.3729 6.15139 41.5816 6.16665 41.7904C6.17392 41.8884 6.18247 41.986 6.19046 42.0838C6.20087 42.2075 6.2117 42.3314 6.22354 42.455C6.23394 42.564 6.24464 42.673 6.25619 42.7816C6.26959 42.9087 6.28484 43.0358 6.29981 43.1627C6.31963 43.3289 6.34088 43.4947 6.36326 43.66C6.37609 43.7546 6.38793 43.8492 6.40162 43.9433C4.46769 43.4142 3.0419 41.6411 3.0419 39.5413ZM36.5001 6.08323C39.5124 6.08323 42.2674 7.6302 43.8754 10.0516C43.8452 10.0513 43.8148 10.0512 43.7845 10.0512C43.7648 10.0512 43.7457 10.0526 43.726 10.0527C43.7184 10.053 43.7107 10.0529 43.703 10.0533C38.9676 10.0974 35.1288 13.9615 35.1288 18.707C35.1288 20.5536 35.709 22.3093 36.7514 23.7579C36.6677 23.7602 36.5837 23.7615 36.5001 23.7615C31.6264 23.7615 27.6613 19.7964 27.6613 14.9226C27.6612 10.0485 31.6263 6.08323 36.5001 6.08323ZM63.8652 40.2621C63.8643 40.2991 63.8622 40.3359 63.861 40.373C63.8548 40.5767 63.8473 40.7806 63.8366 40.9844C63.8348 41.0207 63.8319 41.0571 63.8298 41.0934C63.8183 41.2969 63.8054 41.5005 63.7895 41.7038C63.7863 41.7449 63.7819 41.7856 63.7785 41.8267C63.7622 42.0232 63.7444 42.2195 63.724 42.4156C63.7185 42.4702 63.7113 42.5245 63.7053 42.5789C63.6854 42.7586 63.6646 42.938 63.6412 43.1172C63.6313 43.1922 63.6202 43.2667 63.6097 43.3415C63.5883 43.4964 63.5663 43.6513 63.5419 43.8057C63.5261 43.9062 63.509 44.006 63.492 44.1062C63.4711 44.2313 63.4501 44.3562 63.4273 44.4808C63.4042 44.6076 63.3795 44.7336 63.3546 44.8595C63.3361 44.9539 63.3175 45.0484 63.2978 45.1426C60.7059 57.5599 49.6752 66.9166 36.4999 66.9166C23.3148 66.9166 12.2775 57.5467 9.69602 45.1158C9.67264 45.0032 9.65111 44.8899 9.6293 44.7766C9.6082 44.6686 9.58667 44.5605 9.56699 44.452C9.53905 44.2983 9.51353 44.1439 9.48815 43.9896C9.4766 43.9188 9.46391 43.848 9.45293 43.777C9.4227 43.5817 9.39504 43.3861 9.36881 43.19C9.36439 43.1568 9.35897 43.1237 9.35484 43.0905C9.32489 42.8597 9.29752 42.6281 9.27342 42.3966C9.27342 42.3956 9.27314 42.3943 9.27314 42.3933C9.17462 41.4466 9.12486 40.494 9.12486 39.5419C9.12486 39.327 9.12842 39.112 9.13355 38.8972C9.13541 38.8266 9.13755 38.7561 9.13983 38.6857C9.14425 38.5411 9.15024 38.3966 9.15708 38.252C9.16093 38.1679 9.16464 38.0836 9.16934 37.9996C9.17661 37.8716 9.18574 37.7436 9.19472 37.6157C9.21055 37.3947 9.22837 37.1741 9.24933 36.9541C9.25175 36.9289 9.25375 36.9036 9.25617 36.8785C10.1909 27.4128 16.0533 19.0126 24.6205 14.8747C24.6205 14.8908 24.6194 14.9067 24.6194 14.9228C24.6194 16.0115 24.7694 17.0652 25.045 18.0675C22.3152 19.5211 19.918 21.4579 17.9087 23.8391C17.3669 24.4811 17.4483 25.4406 18.0903 25.9821C18.3758 26.2231 18.7239 26.3406 19.0704 26.3406C19.503 26.3406 19.9327 26.1569 20.2334 25.8005C21.9308 23.789 23.9441 22.1405 26.2302 20.8847C28.2908 24.4202 32.1213 26.8034 36.5001 26.8034C37.8429 26.8034 39.1624 26.5801 40.421 26.14C40.9693 25.9482 41.3605 25.461 41.4292 24.8841C41.4979 24.3074 41.232 23.7418 40.7441 23.4269C39.1327 22.3859 38.1706 20.6216 38.1706 18.7072C38.1706 15.6745 40.5883 13.1974 43.5975 13.0981C53.6998 15.8009 61.2129 23.9694 63.2944 33.925C63.3288 34.0897 63.3623 34.2547 63.3935 34.4201C63.4098 34.5065 63.4247 34.5934 63.4406 34.6801C63.4648 34.8154 63.4886 34.951 63.5109 35.0868C63.5243 35.168 63.5369 35.2494 63.5496 35.331C63.5732 35.4837 63.5957 35.6365 63.6165 35.7897C63.6253 35.8534 63.6345 35.9171 63.6429 35.981C63.7008 36.4256 63.748 36.8718 63.7843 37.319C63.7885 37.3701 63.7917 37.4218 63.7956 37.4732C63.8087 37.6452 63.82 37.8174 63.8298 37.9896C63.8335 38.0565 63.8371 38.1237 63.8404 38.1907C63.8486 38.3546 63.8548 38.5187 63.8599 38.6827C63.862 38.7462 63.8643 38.8096 63.866 38.8729C63.8714 39.0959 63.8749 39.3189 63.8749 39.5416C63.8747 39.7819 63.8714 40.0221 63.8652 40.2621ZM66.5984 43.9433C66.6151 43.8284 66.6302 43.7129 66.6456 43.5975C66.6618 43.4758 66.6775 43.3537 66.6925 43.2314C66.7112 43.078 66.729 42.9243 66.7454 42.7706C66.7561 42.6699 66.7659 42.569 66.7753 42.4679C66.7882 42.3354 66.7999 42.203 66.8108 42.0705C66.8184 41.9787 66.8265 41.8872 66.8332 41.7951C66.8489 41.5839 66.8623 41.3727 66.8736 41.1611C66.8774 41.093 66.8797 41.0247 66.883 40.9564C66.8907 40.7863 66.8972 40.6164 66.9022 40.4461C66.9044 40.3753 66.9063 40.3043 66.9082 40.2333C66.9132 40.0027 66.9169 39.7722 66.9169 39.5413C66.9169 39.3407 66.9145 39.1401 66.9106 38.9395C66.9091 38.8666 66.9066 38.7939 66.9046 38.7211C66.9014 38.5952 66.8975 38.4693 66.8928 38.3432C66.8892 38.2537 66.8847 38.1642 66.8807 38.0748C66.8754 37.9664 66.87 37.8583 66.8634 37.7503C66.8579 37.653 66.8517 37.5561 66.845 37.4591C66.8382 37.3593 66.8308 37.2598 66.8229 37.1601C66.8151 37.059 66.8073 36.9578 66.7983 36.857C66.7896 36.7595 66.78 36.6624 66.7705 36.565C66.7608 36.4648 66.7514 36.3644 66.7407 36.2642C66.7286 36.151 66.7147 36.0383 66.7012 35.9253C66.6862 35.7996 66.671 35.6743 66.6544 35.5491C66.6363 35.4125 66.6185 35.276 66.5987 35.1398C68.5329 35.6688 69.9584 37.4416 69.9584 39.541C69.9581 41.6414 68.5326 43.4142 66.5984 43.9433Z" fill="currentcolor"/>
<path d="M31.0898 41.302C30.3783 38.6472 27.9622 36.793 25.2137 36.793C22.4656 36.793 20.0492 38.6472 19.3376 41.302C19.1202 42.1134 19.6017 42.9474 20.4129 43.1648C21.2245 43.3819 22.0583 42.9007 22.2757 42.0895C22.6316 40.7619 23.8397 39.8347 25.2135 39.8347C26.5876 39.8347 27.7956 40.7619 28.1514 42.0895C28.3334 42.7688 28.9481 43.217 29.6195 43.217C29.7497 43.217 29.8823 43.2001 30.0142 43.1648C30.8258 42.9474 31.3072 42.1134 31.0898 41.302Z" fill="currentcolor"/>
<path d="M47.7865 36.793C45.038 36.793 42.6216 38.6473 41.9103 41.3021C41.693 42.1136 42.1745 42.9475 42.9859 43.1648C43.797 43.3824 44.6311 42.9006 44.8484 42.0893C45.2041 40.7619 46.4122 39.8347 47.7864 39.8347C49.1604 39.8347 50.3685 40.7619 50.7242 42.0895C50.9063 42.7688 51.5206 43.217 52.1923 43.217C52.3225 43.217 52.4551 43.2001 52.587 43.1648C53.3984 42.9474 53.8797 42.1133 53.6623 41.302C52.9508 38.6473 50.5347 36.793 47.7865 36.793Z" fill="currentcolor"/>
<path d="M41.3008 51.9727C40.4897 51.7554 39.6554 52.2366 39.438 53.0482C39.0821 54.3757 37.8741 55.3029 36.5002 55.3029C35.126 55.3029 33.9179 54.3757 33.5624 53.0482C33.3449 52.2367 32.511 51.7553 31.6996 51.9727C30.8882 52.1901 30.4068 53.0241 30.6242 53.8355C31.3357 56.4906 33.7518 58.3446 36.5003 58.3446C39.2485 58.3446 41.6649 56.4904 42.3764 53.8355C42.5935 53.0242 42.1121 52.1901 41.3008 51.9727Z" fill="currentcolor"/>
</svg>
