<svg width="58" height="78" viewBox="0 0 58 78" fill="none" xmlns="http://www.w3.org/2000/svg">
<path d="M36.7241 38.2452C35.7987 38.2452 34.8884 38.0126 34.0691 37.5524C32.6127 36.7382 31.6215 35.3273 31.3485 33.6838C31.0096 31.6509 29.8516 29.8708 28.1676 28.8088L8.14173 16.1561C7.57534 15.7971 7.4034 15.0486 7.76245 14.4822C8.1215 13.9158 8.86994 13.7439 9.43633 14.103L29.4622 26.7557C31.7277 28.1868 33.2904 30.5687 33.7404 33.2843C33.8921 34.1996 34.4434 34.9835 35.2575 35.4386C36.6229 36.2022 38.3727 35.7875 39.2476 34.4879C39.4549 34.1844 39.6015 33.8507 39.6825 33.5017C40.0263 32.0706 40.8152 30.8266 41.9581 29.9011C42.2363 29.6736 42.4739 29.4005 42.661 29.0819C43.455 27.7367 43.0808 25.9718 41.8064 25.0666C40.9265 24.4446 39.8089 24.3283 38.8228 24.7632C36.8151 25.6482 34.5344 25.4914 32.7189 24.3435L11.4541 10.9069C10.8877 10.5479 10.7158 9.79942 11.0748 9.23304C11.4339 8.66665 12.1823 8.49471 12.7487 8.85376L34.0135 22.2903C35.1463 23.0033 36.5724 23.0994 37.8417 22.5381C39.6167 21.7543 41.6244 21.9565 43.2072 23.0792C44.3248 23.8681 45.0985 25.0464 45.3868 26.3916C45.675 27.7367 45.4475 29.1274 44.7547 30.3057C44.4209 30.8721 43.9961 31.3677 43.4904 31.7773C42.7622 32.3639 42.2666 33.1579 42.0441 34.0681C41.8924 34.7003 41.6294 35.297 41.2603 35.8431C40.4966 36.9759 39.3386 37.7749 37.9985 38.0935C37.5737 38.1947 37.1489 38.2452 36.7241 38.2452Z" fill="#615B5B"/>
<path d="M38.4842 73.0073C38.4184 73.0073 38.3476 73.0023 38.2819 72.9921C37.6194 72.8809 37.1744 72.2538 37.2907 71.5913L39.7585 57.0473C40.3148 53.6894 42.014 50.6704 44.5324 48.5464C45.0735 48.0913 45.4174 47.4491 45.4983 46.736C45.6601 45.32 44.6892 44.0002 43.2884 43.722C42.9091 43.6462 42.5298 43.6512 42.1556 43.7321C40.8812 44.0153 39.5714 43.7928 38.4538 43.1152C38.1302 42.9179 37.7711 42.7915 37.3868 42.741C35.9759 42.5488 34.6307 43.4894 34.3222 44.8801C34.1351 45.7347 34.3475 46.6096 34.9139 47.2721C36.5271 49.1684 37.2149 51.702 36.7951 54.2255L33.948 71.0452C33.8368 71.7077 33.2097 72.1527 32.5472 72.0414C31.8847 71.9302 31.4397 71.3031 31.551 70.6406L34.393 53.826C34.6965 52.0156 34.2059 50.2001 33.058 48.8448C31.996 47.5957 31.5914 45.9623 31.9454 44.3592C32.5219 41.7447 35.0504 39.9798 37.7054 40.3389C38.4235 40.4349 39.0961 40.6726 39.708 41.0468C40.2845 41.3958 40.9621 41.5121 41.6195 41.3654C42.3225 41.2087 43.0355 41.2036 43.7485 41.3452C46.3782 41.8661 48.1987 44.3541 47.9004 47.0141C47.7487 48.3441 47.1064 49.5477 46.0849 50.4074C44.0065 52.1572 42.6057 54.6604 42.1404 57.4519L39.6726 72.001C39.5765 72.5876 39.0657 73.0073 38.4842 73.0073Z" fill="currentcolor"/>
<path d="M49.1597 40.5765C49.0434 40.5765 48.9271 40.5715 48.8108 40.5563L45.286 40.1366C44.1937 40.0051 43.2834 39.287 42.9041 38.2554C42.5249 37.2237 42.7575 36.0859 43.5059 35.2818C44.2139 34.5233 44.9725 33.704 45.6198 33.0112C46.262 32.3235 47.1976 31.9897 48.1281 32.1111C49.0586 32.2375 49.8778 32.8089 50.3127 33.6383L51.7236 36.3286C52.2243 37.2844 52.1535 38.4324 51.5416 39.3224C51.0005 40.1113 50.1054 40.5765 49.1597 40.5765ZM47.7437 34.5081C47.6476 34.5081 47.5162 34.5334 47.3998 34.6598C46.7525 35.3577 45.994 36.1719 45.286 36.9304C45.1141 37.1175 45.1495 37.3148 45.1899 37.4159C45.2253 37.517 45.3265 37.694 45.5793 37.7244L49.1041 38.1441C49.3519 38.1744 49.4884 38.0329 49.5491 37.9418C49.6098 37.8559 49.6957 37.6738 49.5794 37.4513L48.1685 34.761C48.0674 34.5738 47.9005 34.5233 47.8095 34.5132C47.7892 34.5081 47.769 34.5081 47.7437 34.5081Z" fill="currentcolor"/>
<path d="M49.3619 77.675C49.281 77.675 49.2051 77.6649 49.1242 77.6497C48.4668 77.5182 48.042 76.881 48.1735 76.2236L55.223 41.0368C56.6895 33.7041 53.3923 26.1539 47.0154 22.2448L14.3369 2.24933C13.7654 1.90039 13.5834 1.15195 13.9373 0.580505C14.2913 0.00906043 15.0347 -0.172993 15.6062 0.181L48.2797 20.1765C51.8499 22.3612 54.6212 25.542 56.2951 29.3803C57.9689 33.2135 58.4241 37.4109 57.5998 41.5172L50.5503 76.704C50.439 77.2755 49.9283 77.675 49.3619 77.675Z" fill="currentcolor"/>
<path d="M22.5038 74.0441C22.3774 74.0441 22.2459 74.0238 22.1144 73.9783C21.4773 73.7659 21.1384 73.0731 21.3508 72.441C21.3913 72.3196 25.5026 59.9956 24.2586 53.6136C23.6619 50.5744 24.1221 47.0597 25.624 43.1608C26.2106 41.6335 26.8478 40.3541 27.3181 39.4843C23.1714 37.7194 19.2522 35.7724 15.6465 33.6788C12.4606 31.833 9.51231 29.8709 6.88265 27.8481C2.36672 24.384 0.354022 21.9414 0.27311 21.8403C-0.151681 21.3194 -0.070769 20.5558 0.445048 20.131C0.965923 19.7062 1.72954 19.7871 2.14927 20.303C2.1695 20.3282 4.12151 22.6848 8.45033 25.9972C12.4504 29.0567 19.3482 33.5878 29.5179 37.775C29.8517 37.9116 30.1045 38.1897 30.2158 38.5336C30.322 38.8774 30.2765 39.2517 30.0793 39.5551C30.0338 39.6259 25.4217 46.9384 26.6405 53.1484C28.0109 60.1625 23.8338 72.6888 23.6518 73.2198C23.4798 73.7255 23.0095 74.0441 22.5038 74.0441Z" fill="currentcolor"/>
</svg>
