<svg width="73" height="73" viewBox="0 0 73 73" fill="none" xmlns="http://www.w3.org/2000/svg">
<path d="M69.8061 52.925C68.8472 54.197 67.6067 55.2297 66.1819 55.9421C64.7571 56.6545 63.1866 57.0273 61.5936 57.0312H57.0311C56.8713 57.0312 56.7132 57.0649 56.5671 57.1299C56.4211 57.1949 56.2903 57.29 56.1834 57.4088L52.1494 61.891L53.845 63.4166L57.5392 59.3125H61.5936C63.5406 59.3077 65.4601 58.8521 67.2015 57.9814C68.943 57.1107 70.4591 55.8485 71.6311 54.2937L69.8061 52.925Z" fill="currentcolor"/>
<path d="M47.3289 67.2468C47 67.6131 46.5993 67.9078 46.1516 68.1126C45.704 68.3174 45.219 68.428 44.7268 68.4375C42.7121 68.4755 41.0632 66.773 41.0632 64.758V64.6969C41.0632 64.2247 41.1562 63.7571 41.3369 63.3209C41.5176 62.8846 41.7825 62.4882 42.1164 62.1544L42.1464 62.1244L52.1354 52.1354L50.5223 50.5223L40.5325 60.512C40.1029 60.9414 39.5742 61.2586 38.9931 61.4355C38.412 61.6124 37.7962 61.6436 37.2002 61.5263C36.7001 61.4317 36.226 61.231 35.8099 60.9379C35.3652 60.6291 34.9936 60.2264 34.7214 59.7584C34.4492 59.2904 34.2829 58.7684 34.2344 58.2291C34.1858 57.6899 34.2562 57.1465 34.4404 56.6374C34.6247 56.1283 34.9184 55.6658 35.3008 55.2825L45.2916 45.2916L43.6785 43.6785L33.6342 53.7213C32.9756 54.3799 32.0823 54.7499 31.1509 54.75C30.1913 54.7596 29.2635 54.4057 28.5541 53.7593C27.9146 53.1655 27.5063 52.3642 27.4016 51.4978C27.297 50.6314 27.5028 49.7559 27.9825 49.0269L36.2991 40.9296C36.7408 41.0179 37.1902 41.0625 37.6406 41.0625H50.816L52.7806 43.2724C55.033 45.8047 57.7959 47.8317 60.8875 49.2201C63.9792 50.6085 67.3297 51.3269 70.7188 51.3281V49.0469C67.6518 49.0457 64.6198 48.3956 61.822 47.1392C59.0242 45.8828 56.5239 44.0485 54.4855 41.757L52.1806 39.1641C52.0736 39.0437 51.9423 38.9473 51.7954 38.8813C51.6484 38.8153 51.4892 38.7812 51.3281 38.7812H37.7314C35.1793 38.7812 33.0354 36.6923 33.0788 34.14C33.1008 32.9442 33.5909 31.8047 34.4439 30.9664C35.2969 30.128 36.4446 29.6576 37.6406 29.6562H59.3125V27.375H50.2193L58.4195 19.3906H70.7188V17.1094H60.7624L65.496 12.5005C67.7786 10.2779 67.8583 6.39161 65.6326 4.09069C64.8113 3.26869 63.7707 2.70049 62.6352 2.45395C61.4997 2.20742 60.3172 2.29298 59.229 2.70041C56.8237 3.64556 55.3366 6.00052 53.4126 7.73342L54.8564 9.48142C55.9542 8.67315 56.7641 7.5435 57.7028 6.55472C58.6415 5.56594 59.8157 4.66884 61.1776 4.57103C61.7686 4.53833 62.3586 4.65142 62.8956 4.90034C63.4326 5.14927 63.9002 5.52639 64.2573 5.99853C64.7937 6.71647 65.0534 7.60376 64.9886 8.49766C64.9237 9.39155 64.5388 10.2321 63.9044 10.8651L46.9494 27.375H37.6406C37.4054 27.375 37.1704 27.387 36.9364 27.4111L53.1454 11.2021L51.5323 9.58893L44.0119 17.1094H35.5219C33.8736 17.1048 32.2407 17.4272 30.7178 18.058C29.1948 18.6887 27.8122 19.6152 26.6497 20.7839L24.3722 23.0616L25.9851 24.6748L28.2621 22.3977C30.1875 20.4723 32.799 19.3906 35.5219 19.3906H41.7306L33.4122 27.709L20.9255 40.1957C20.5721 40.5564 20.1505 40.8432 19.6853 41.0395C19.22 41.2357 18.7204 41.3375 18.2155 41.3389C17.6504 41.3347 17.0939 41.2007 16.5888 40.9473C16.0838 40.6939 15.6437 40.3277 15.3026 39.8772C14.9146 39.3712 14.6669 38.7719 14.5843 38.1396C14.5067 37.5746 14.5612 36.9993 14.7435 36.4589C14.9257 35.9185 15.2308 35.4278 15.6347 35.0252L23.9531 26.7064L22.3406 25.0937L14.0216 33.4122C13.2276 34.2057 12.6731 35.2067 12.4214 36.3007C12.1698 37.3946 12.2312 38.5373 12.5986 39.598C12.9661 40.6587 13.6247 41.5945 14.4992 42.2984C15.3736 43.0022 16.4285 43.4457 17.5432 43.578L2.61531 58.5059C2.5094 58.6118 2.42538 58.7376 2.36806 58.876C2.31074 59.0144 2.28124 59.1627 2.28125 59.3125V69.5781C2.28125 69.8801 2.40097 70.1697 2.61417 70.3835C2.82737 70.5973 3.11665 70.7179 3.4186 70.7187C6.10143 70.7265 8.75915 70.2019 11.2379 69.1754C13.7166 68.1489 15.967 66.6409 17.8589 64.7387L23.6191 58.9786C23.725 58.8726 23.809 58.7469 23.8663 58.6084C23.9237 58.47 23.9531 58.3217 23.9531 58.1719V52.9501L25.1408 51.7936C25.3212 53.2398 26.0238 54.5702 27.1163 55.5347C28.2088 56.4993 29.6161 57.0315 31.0735 57.0312H32.0018C31.8774 57.8804 31.9374 58.7465 32.1776 59.5705C32.4178 60.3945 32.8326 61.157 33.3939 61.8064C33.9551 62.4557 34.6496 62.9766 35.4302 63.3335C36.2107 63.6905 37.0589 63.8751 37.9172 63.875C38.2293 63.8748 38.5409 63.85 38.8491 63.801C38.804 64.0973 38.7813 64.3965 38.7812 64.6962V64.7304C38.7812 67.9544 41.3311 70.663 44.5547 70.7176C45.3953 70.7325 46.2293 70.5666 47.0003 70.2313C47.7713 69.8959 48.4612 69.3989 49.0235 68.7738L52.4839 64.9292L50.7882 63.4036L47.3289 67.2468ZM22.0168 51.6516C21.9076 51.7579 21.8209 51.8849 21.7617 52.0253C21.7024 52.1656 21.6719 52.3164 21.6719 52.4687V57.6995L16.2458 63.1255C13.1308 66.2584 8.9725 68.1366 4.5625 68.4024V59.7848L30.8329 33.5145C30.7023 34.7816 30.928 36.0601 31.4847 37.2058C32.0414 38.3516 32.907 39.3191 33.9839 39.9994L22.0168 51.6516Z" fill="currentcolor"/>
<path d="M54.4158 12.8809L52.8027 14.494L55.0839 16.7752L56.697 15.1621L54.4158 12.8809Z" fill="currentcolor"/>
<path d="M50.9939 16.3028L49.3809 17.9159L51.6621 20.1971L53.2752 18.584L50.9939 16.3028Z" fill="currentcolor"/>
<path d="M57.8377 9.45906L56.2246 11.0721L58.5058 13.3534L60.1189 11.7403L57.8377 9.45906Z" fill="currentcolor"/>
<path d="M47.5721 19.7247L45.959 21.3378L48.2402 23.619L49.8533 22.0059L47.5721 19.7247Z" fill="currentcolor"/>
<path d="M44.1502 23.1466L42.5371 24.7597L44.8183 27.0409L46.4314 25.4278L44.1502 23.1466Z" fill="currentcolor"/>
<path d="M29.3221 37.9746L27.709 39.5877L29.9902 41.8689L31.6033 40.2558L29.3221 37.9746Z" fill="currentcolor"/>
<path d="M25.9002 41.3965L24.2871 43.0096L26.5683 45.2908L28.1814 43.6777L25.9002 41.3965Z" fill="currentcolor"/>
<path d="M12.2291 59.5007C10.5527 60.9706 8.59901 62.09 6.48315 62.7928L7.2046 64.9572C9.608 64.1587 11.8272 62.8872 13.7314 61.2175L20.1419 55.6085L18.6397 53.8915L12.2291 59.5007Z" fill="currentcolor"/>
</svg>
