<svg width="73" height="73" viewBox="0 0 73 73" fill="none" xmlns="http://www.w3.org/2000/svg">
<g clip-path="url(#clip0_95_435)">
<path d="M36.5 0C16.3727 0 0 16.3742 0 36.5C0 56.6258 16.3727 73 36.5 73C56.6273 73 73 56.6258 73 36.5C73 16.3742 56.6273 0 36.5 0ZM36.5 69.9584C18.051 69.9584 3.04162 54.949 3.04162 36.5C3.04162 18.051 18.051 3.04162 36.5 3.04162C54.949 3.04162 69.9584 18.051 69.9584 36.5C69.9584 54.949 54.949 69.9584 36.5 69.9584Z" fill="currentcolor"/>
<path d="M51.0103 35.2213L29.7187 21.5338C29.2523 21.2294 28.6494 21.213 28.1682 21.4773C27.678 21.7446 27.375 22.2556 27.375 22.8125V50.1875C27.375 50.7445 27.678 51.2555 28.1682 51.5228C28.3939 51.6461 28.6464 51.7084 28.8959 51.7084C29.181 51.7084 29.4692 51.6282 29.7187 51.4663L51.0103 37.7788C51.444 37.4997 51.7084 37.0169 51.7084 36.5C51.7084 35.9832 51.444 35.5006 51.0103 35.2213ZM30.4166 47.4013V25.5988L47.3746 36.5L30.4166 47.4013Z" fill="currentcolor"/>
</g>
<defs>
<clipPath id="clip0_95_435">
<rect width="73" height="73" fill="white"/>
</clipPath>
</defs>
</svg>
