<svg width="74" height="74" viewBox="0 0 74 74" fill="none" xmlns="http://www.w3.org/2000/svg">
<path d="M70.3294 49.2055C70.2885 49.1405 70.2407 49.0801 70.1869 49.0252C70.1269 48.9664 70.0601 48.9151 69.9879 48.8724C68.1698 47.1146 65.8783 45.9255 63.3944 45.4509C64.935 43.6778 65.7237 41.3741 65.5931 39.0288C65.4624 36.6836 64.4227 34.4817 62.6947 32.8907C60.9666 31.2997 58.6865 30.4451 56.3385 30.5083C53.9904 30.5714 51.7595 31.5474 50.1195 33.229L46.0414 37.4286V34.9572C46.0351 31.5172 44.8894 28.1762 42.7834 25.4563L35.7467 16.3949V12.7395H36.4954C36.6336 12.7396 36.7705 12.7124 36.8982 12.6596C37.0259 12.6067 37.1419 12.5292 37.2396 12.4315C37.3374 12.3337 37.4149 12.2177 37.4677 12.09C37.5206 11.9623 37.5478 11.8254 37.5477 11.6872V1.44965C37.5478 1.31144 37.5206 1.17457 37.4677 1.04686C37.4149 0.919149 37.3374 0.803111 37.2396 0.705379C37.1419 0.607647 37.0259 0.530137 36.8982 0.477281C36.7705 0.424425 36.6336 0.39726 36.4954 0.397339H12.2921C12.1539 0.39726 12.017 0.424425 11.8893 0.477281C11.7616 0.530137 11.6456 0.607647 11.5478 0.705379C11.4501 0.803111 11.3726 0.919149 11.3197 1.04686C11.2669 1.17457 11.2397 1.31144 11.2398 1.44965V11.6872C11.2397 11.8254 11.2669 11.9623 11.3197 12.09C11.3726 12.2177 11.4501 12.3337 11.5478 12.4315C11.6456 12.5292 11.7616 12.6067 11.8893 12.6596C12.017 12.7124 12.1539 12.7396 12.2921 12.7395H13.0407V16.3949L6.00527 25.4545C3.89844 28.1748 2.75233 31.5165 2.74609 34.9572V66.5928C2.74753 67.8283 3.23898 69.0129 4.11263 69.8865C4.98629 70.7602 6.17081 71.2516 7.40635 71.2531H41.3811C42.6167 71.2516 43.8012 70.7602 44.6748 69.8865C45.5485 69.0129 46.0399 67.8283 46.0414 66.5928V62.8989C46.7243 62.494 47.351 62.0011 47.9055 61.4328L48.2777 61.0492C48.7087 63.0153 49.5899 64.8547 50.8521 66.4226C52.1142 67.9905 53.723 69.2442 55.5517 70.0852C57.3804 70.9261 59.3793 71.3313 61.3912 71.2689C63.403 71.2066 65.373 70.6783 67.1461 69.7257C68.9192 68.7731 70.4472 67.4222 71.6098 65.7791C72.7725 64.136 73.538 62.2456 73.8464 60.2565C74.1548 58.2675 73.9975 56.234 73.3869 54.316C72.7763 52.3981 71.7291 50.6479 70.3276 49.2031L70.3294 49.2055ZM51.6283 34.6944C52.2611 34.0381 53.0174 33.5132 53.8536 33.1498C54.6898 32.7864 55.5895 32.5916 56.5011 32.5767C57.4128 32.5618 58.3184 32.727 59.166 33.0629C60.0136 33.3988 60.7866 33.8987 61.4406 34.534C62.0946 35.1693 62.6168 35.9274 62.9771 36.7649C63.3374 37.6025 63.5289 38.5029 63.5405 39.4146C63.552 40.3262 63.3835 41.2312 63.0445 42.0776C62.7055 42.924 62.2028 43.6952 61.5651 44.3469L60.4563 45.4894C60.4334 45.5104 60.4124 45.5327 60.3913 45.5561L54.7155 51.4004L44.7798 41.7479L51.6283 34.6944ZM42.5453 41.0275L42.5363 41.0366L42.529 41.0462L34.9524 48.8496C33.7661 50.0677 32.949 51.5968 32.5957 53.26C32.2424 54.9232 32.3673 56.6525 32.956 58.2476H4.85073V36.413H43.9367V39.5934L42.5453 41.0275ZM13.3444 2.50197H35.4431V10.6349H34.7064H34.695H34.683H32.707V6.56872C32.707 6.28963 32.5962 6.02197 32.3988 5.82462C32.2015 5.62727 31.9338 5.5164 31.6547 5.5164C31.3756 5.5164 31.108 5.62727 30.9106 5.82462C30.7133 6.02197 30.6024 6.28963 30.6024 6.56872V10.6349H27.8664V6.56872C27.8664 6.28963 27.7555 6.02197 27.5582 5.82462C27.3608 5.62727 27.0932 5.5164 26.8141 5.5164C26.535 5.5164 26.2673 5.62727 26.07 5.82462C25.8726 6.02197 25.7617 6.28963 25.7617 6.56872V10.6349H23.0257V6.56872C23.0257 6.28963 22.9149 6.02197 22.7175 5.82462C22.5202 5.62727 22.2525 5.5164 21.9734 5.5164C21.6943 5.5164 21.4267 5.62727 21.2293 5.82462C21.032 6.02197 20.9211 6.28963 20.9211 6.56872V10.6349H18.1851V6.56872C18.1851 6.28963 18.0742 6.02197 17.8769 5.82462C17.6795 5.62727 17.4118 5.5164 17.1328 5.5164C16.8537 5.5164 16.586 5.62727 16.3887 5.82462C16.1913 6.02197 16.0804 6.28963 16.0804 6.56872V10.6349H14.1051H14.0931H14.0816H13.3444V2.50197ZM33.6421 12.7395V15.7028H15.1454V12.7395H33.6421ZM7.66492 26.7449L14.6084 17.8075H34.1791L41.1213 26.7449C42.8019 28.9219 43.775 31.5615 43.9097 34.3084H4.88079C5.01457 31.5618 5.98663 28.9222 7.66612 26.7449H7.66492ZM43.9367 66.5928C43.9361 67.2704 43.6666 67.9201 43.1875 68.3992C42.7084 68.8783 42.0587 69.1478 41.3811 69.1484H7.40635C6.72875 69.1478 6.07909 68.8783 5.59995 68.3992C5.12082 67.9201 4.85136 67.2704 4.85073 66.5928V60.3511H34.054C34.3752 60.8062 34.7375 61.2309 35.1364 61.6199C36.8172 63.2617 39.0753 64.1783 41.425 64.1725H41.5615C42.3664 64.1583 43.1657 64.037 43.9385 63.8117L43.9367 66.5928ZM46.3968 59.9668C45.7639 60.6229 45.0077 61.1476 44.1716 61.5109C43.3354 61.8741 42.4358 62.0687 41.5244 62.0836C40.6129 62.0984 39.7074 61.9332 38.8599 61.5974C38.0124 61.2615 37.2396 60.7617 36.5856 60.1266C35.9317 59.4915 35.4096 58.7335 35.0492 57.8961C34.6888 57.0588 34.4972 56.1586 34.4855 55.247C34.4738 54.3355 34.6421 53.4306 34.9808 52.5843C35.3195 51.7379 35.8219 50.9668 36.4593 50.315L43.3144 43.2579L53.2512 52.9097L46.3968 59.9668ZM55.4906 53.6241H55.4942V53.6205L61.5856 47.3505C63.9028 47.4758 66.1185 48.3422 67.9061 49.8219L52.5549 65.1713C51.1476 63.4611 50.2981 61.3609 50.1207 59.1532L55.4906 53.6241ZM60.9843 69.1484C58.4511 69.1522 55.996 68.2722 54.042 66.6602L69.3944 51.3078C70.7144 52.9014 71.5532 54.8382 71.8125 56.8912C72.0718 58.9443 71.7409 61.0287 70.8585 62.9006C69.9762 64.7724 68.5788 66.3541 66.8301 67.4606C65.0814 68.5671 63.0536 69.1526 60.9843 69.1484Z" fill="currentcolor"/>
<path d="M11.0866 26.5074C11.1957 26.5922 11.3205 26.6547 11.4537 26.6912C11.587 26.7278 11.7261 26.7377 11.8632 26.7204C12.0003 26.7032 12.1327 26.6591 12.2527 26.5906C12.3728 26.5222 12.4781 26.4308 12.5628 26.3216L15.7956 22.1599C15.8836 22.0511 15.9491 21.9258 15.9881 21.7913C16.0272 21.6569 16.039 21.5161 16.0229 21.377C16.0068 21.2379 15.9632 21.1035 15.8945 20.9815C15.8258 20.8596 15.7335 20.7525 15.6229 20.6667C15.5123 20.5808 15.3858 20.5179 15.2506 20.4816C15.1154 20.4453 14.9743 20.4363 14.8356 20.4552C14.6969 20.4741 14.5634 20.5204 14.4428 20.5915C14.3223 20.6627 14.2171 20.7571 14.1335 20.8694L10.9014 25.0312C10.8166 25.1403 10.7541 25.265 10.7175 25.3982C10.6809 25.5314 10.6709 25.6706 10.6881 25.8077C10.7053 25.9448 10.7494 26.0771 10.8177 26.1972C10.8861 26.3173 10.9775 26.4227 11.0866 26.5074Z" fill="currentcolor"/>
<path d="M30.6138 43.573H28.152V41.1112C28.1521 40.9729 28.1249 40.8361 28.0721 40.7084C28.0192 40.5806 27.9417 40.4646 27.844 40.3669C27.7462 40.2691 27.6302 40.1916 27.5025 40.1388C27.3748 40.0859 27.2379 40.0588 27.0997 40.0588H21.6878C21.5496 40.0588 21.4127 40.0859 21.285 40.1388C21.1573 40.1916 21.0412 40.2691 20.9435 40.3669C20.8458 40.4646 20.7683 40.5806 20.7154 40.7084C20.6626 40.8361 20.6354 40.9729 20.6355 41.1112V43.573H18.1737C18.0354 43.5729 17.8986 43.6001 17.7709 43.6529C17.6431 43.7058 17.5271 43.7833 17.4294 43.881C17.3316 43.9787 17.2541 44.0948 17.2013 44.2225C17.1484 44.3502 17.1213 44.4871 17.1213 44.6253V50.0372C17.1213 50.1754 17.1484 50.3123 17.2013 50.44C17.2541 50.5677 17.3316 50.6837 17.4294 50.7815C17.5271 50.8792 17.6431 50.9567 17.7709 51.0096C17.8986 51.0624 18.0354 51.0896 18.1737 51.0895H20.6355V53.5513C20.6355 53.8304 20.7463 54.0981 20.9437 54.2954C21.141 54.4928 21.4087 54.6036 21.6878 54.6036H27.0997C27.3788 54.6036 27.6465 54.4928 27.8438 54.2954C28.0411 54.0981 28.152 53.8304 28.152 53.5513V51.0895H30.6138C30.752 51.0896 30.8889 51.0624 31.0166 51.0096C31.1443 50.9567 31.2604 50.8792 31.3581 50.7815C31.4558 50.6837 31.5333 50.5677 31.5862 50.44C31.6391 50.3123 31.6662 50.1754 31.6661 50.0372V44.6253C31.6662 44.4871 31.6391 44.3502 31.5862 44.2225C31.5333 44.0948 31.4558 43.9787 31.3581 43.881C31.2604 43.7833 31.1443 43.7058 31.0166 43.6529C30.8889 43.6001 30.752 43.5729 30.6138 43.573ZM29.5615 48.9849H27.0997C26.9615 48.9848 26.8246 49.012 26.6969 49.0648C26.5692 49.1177 26.4532 49.1952 26.3554 49.2929C26.2577 49.3907 26.1802 49.5067 26.1273 49.6344C26.0745 49.7621 26.0473 49.899 26.0474 50.0372V52.499H22.7401V50.0372C22.7402 49.899 22.713 49.7621 22.6602 49.6344C22.6073 49.5067 22.5298 49.3907 22.4321 49.2929C22.3343 49.1952 22.2183 49.1177 22.0906 49.0648C21.9629 49.012 21.826 48.9848 21.6878 48.9849H19.226V45.6776H21.6878C21.826 45.6777 21.9629 45.6505 22.0906 45.5977C22.2183 45.5448 22.3343 45.4673 22.4321 45.3696C22.5298 45.2718 22.6073 45.1558 22.6602 45.0281C22.713 44.9004 22.7402 44.7635 22.7401 44.6253V42.1635H26.0474V44.6253C26.0473 44.7635 26.0745 44.9004 26.1273 45.0281C26.1802 45.1558 26.2577 45.2718 26.3554 45.3696C26.4532 45.4673 26.5692 45.5448 26.6969 45.5977C26.8246 45.6505 26.9615 45.6777 27.0997 45.6776H29.5615V48.9849Z" fill="currentcolor"/>
</svg>
