<svg width="302" height="254" viewBox="0 0 302 254" fill="none" xmlns="http://www.w3.org/2000/svg">
<path d="M189.798 7.55103C189.798 3.40803 186.441 0.0510254 182.298 0.0510254H102.845C98.7019 0.0510254 95.3449 3.40803 95.3449 7.55103V55.238C95.3449 59.381 98.7019 62.738 102.845 62.738H174.798V83.924L102.845 155.9L84.3129 137.36C82.7419 135.789 80.5439 134.998 78.3429 135.192C76.1299 135.389 74.1179 136.557 72.8499 138.381L1.34194 241.221C-0.252059 243.513 -0.440059 246.501 0.853941 248.976C2.14694 251.452 4.70894 253.002 7.50094 253.002H293.536C293.544 253.003 293.552 253.003 293.556 253.002C297.699 253.002 301.056 249.645 301.056 245.502C301.056 243.719 300.434 242.081 299.395 240.794L189.798 84.66V7.55103ZM110.345 47.738V15.051H174.798V47.738H110.345ZM21.8499 238.003L80.0449 154.309L97.5399 171.812C98.9469 173.218 100.855 174.009 102.845 174.009C104.834 174.009 106.742 173.218 108.149 171.812L181.29 98.647L279.108 238.004H21.8499V238.003Z" fill="currentcolor"/>
</svg>
