<svg width="27" height="27" viewBox="0 0 27 27" fill="none" xmlns="http://www.w3.org/2000/svg">
<g clip-path="url(#clip0_728_1545)">
<path d="M27 13.5C27 6.04631 20.9593 0.00336838 13.5062 -5.72205e-06H13.3605C12.7061 0.00681305 12.053 0.0607643 11.4064 0.16143C10.8769 0.24328 10.3528 0.357113 9.837 0.502306C7.00524 1.30138 4.51193 3.00343 2.73629 5.34959C0.960648 7.69576 -0.00015853 10.5576 1.96194e-08 13.5C1.96194e-08 20.9548 6.04238 27 13.5 27H13.5062C15.3428 27.0016 17.1603 26.6273 18.8469 25.9002C20.5334 25.173 22.0532 24.1083 23.3128 22.7717C25.6818 20.2661 27.0013 16.9483 27 13.5Z" fill="white"/>
<path d="M10.0922 17.5149V16.9074H8.12969L2.61719 21.4913C2.95792 21.9548 3.32806 22.3959 3.72531 22.812L10.0922 17.5149Z" fill="#C8102E"/>
<path d="M24.3987 21.4666L18.9183 16.9104H16.9062V17.474L23.2951 22.7891L23.312 22.7716C23.6802 22.3834 24.0247 21.9734 24.3436 21.5437L24.3987 21.4666Z" fill="#C8102E"/>
<path d="M10.0936 10.0933V9.48576L3.7267 4.18757C3.67045 4.24382 3.6142 4.30457 3.56133 4.36364C3.2264 4.72754 2.91186 5.10968 2.61914 5.50832L8.13164 10.0933H10.0936Z" fill="#C8102E"/>
<path d="M24.3993 5.53364C24.06 5.06978 23.6913 4.62807 23.2957 4.2112L16.9062 9.52682V10.0933H18.9183L24.3993 5.53364Z" fill="#C8102E"/>
<path d="M5.39147 16.9077H0.433594C0.715253 17.9878 1.13098 19.0285 1.67109 20.0054L5.39147 16.9077Z" fill="#012169"/>
<path d="M5.27953 10.0938L1.63116 7.05962C1.10979 8.01841 0.707616 9.03734 0.433594 10.0938H5.27953Z" fill="#012169"/>
<path d="M10.0926 7.24072V0.434472C10.0071 0.456409 9.92389 0.479472 9.8367 0.50366C8.06777 1.0018 6.41969 1.85714 4.99414 3.01691L10.0926 7.24072Z" fill="#012169"/>
<path d="M10.0929 26.5664V19.867L5.07031 24.0453C6.54834 25.2299 8.25987 26.089 10.0929 26.5664Z" fill="#012169"/>
<path d="M22.0059 23.9824L16.9062 19.7552V26.5659L16.9833 26.5462C18.8199 26.0563 20.5318 25.1824 22.0059 23.9824Z" fill="#012169"/>
<path d="M26.566 16.9075H21.7285L25.3685 19.936C25.8893 18.979 26.2915 17.962 26.566 16.9075Z" fill="#012169"/>
<path d="M22.0503 3.05005C20.5461 1.81677 18.7925 0.92421 16.9102 0.433859V7.32617L22.0503 3.05005Z" fill="#012169"/>
<path d="M26.5668 10.0938C26.2986 9.06285 25.9087 8.06753 25.4052 7.12881L21.8418 10.0938H26.5668Z" fill="#012169"/>
<path d="M27 13.6412V13.3718C26.9942 12.7423 26.9447 12.114 26.8521 11.4913H15.5087V0.148502C14.89 0.0562019 14.2656 0.00658417 13.6401 0H13.3588C12.7331 0.00644684 12.1085 0.0562515 11.4896 0.149063V11.4913H0.1485C0.0561951 12.1108 0.00657821 12.7359 0 13.3622C0 13.4505 0 13.5394 0 13.6283C0.00581923 14.2579 0.0552501 14.8864 0.147938 15.5093H11.4913V26.8515C12.0803 26.9396 12.6745 26.9892 13.2699 27H13.7053C14.2736 26.9919 14.8408 26.9479 15.4035 26.8684L15.5087 26.8526V15.5093H26.8515C26.9438 14.8907 26.9934 14.2665 27 13.6412Z" fill="#C8102E"/>
</g>
<defs>
<clipPath id="clip0_728_1545">
<rect width="27" height="27" fill="white" transform="matrix(1 0 0 -1 0 27)"/>
</clipPath>
</defs>
</svg>
