<svg width="30" height="30" viewBox="0 0 30 30" fill="none" xmlns="http://www.w3.org/2000/svg">
<path d="M12.267 16.3995C11.6107 16.2109 10.9154 16.1481 10.2287 16.2154C9.54206 16.2827 8.88024 16.4785 8.28848 16.7894C7.64152 17.1094 7.08739 17.5545 6.66883 18.0904C6.25027 18.6264 5.97838 19.2388 5.87409 19.8806C5.76979 20.5225 5.83591 21.1766 6.06728 21.7927C6.29865 22.4088 6.68918 22.9704 7.20875 23.4344C7.81889 24.0555 8.63033 24.5012 9.53659 24.713C10.4428 24.9248 11.4015 24.8927 12.2864 24.621C13.2055 24.387 14.0235 23.9191 14.6353 23.2773C15.2471 22.6354 15.6249 21.849 15.7202 21.0188C15.7771 20.6083 15.7998 20.1947 15.7883 19.7813V1.13457C15.7883 -0.162221 15.691 0.0072798 17.0334 0.0072798C18.3758 0.0072798 19.5626 0.0072798 20.8271 0.0072798C21.4205 0.0072798 21.654 0.134433 21.7999 0.659932C22.1061 2.37182 23.0552 3.9469 24.4985 5.13859C25.9419 6.33027 27.798 7.0713 29.7763 7.24564C29.7763 7.24564 29.7763 7.2456 30 7.42359C30 8.77972 30 10.263 30 11.7378C30 12.3565 29.9223 12.4074 29.1246 12.348C26.9868 12.2365 24.9054 11.7064 23.0353 10.797C22.7051 10.5786 22.328 10.4201 21.9263 10.3308C21.7318 10.5597 21.8193 10.8394 21.8193 11.0936C21.8193 14.1619 21.8193 17.2301 21.8193 20.2983C21.8646 21.7366 21.5272 23.1645 20.8337 24.4703C20.1401 25.776 19.109 26.9241 17.8213 27.8248C16.5509 28.7401 15.0584 29.3921 13.4566 29.7315C11.8548 30.0708 10.1856 30.0888 8.57465 29.7839C6.96374 29.4791 5.45334 28.8593 4.15742 27.9716C2.8615 27.0838 1.81393 25.9512 1.09374 24.6592C0.37355 23.3671 -0.000438516 21.9494 3.85865e-07 20.5131C0.000439288 19.0767 0.375254 17.6592 1.09623 16.3675C1.81721 15.0758 2.86547 13.9436 4.16193 13.0564C5.4584 12.1693 6.96913 11.5503 8.58023 11.2462C9.62709 11.0445 10.7043 10.9902 11.7709 11.0851C12.121 11.0851 12.3448 11.1869 12.3351 11.5768C12.2573 13.1278 12.267 14.6789 12.267 16.3995Z" fill="white"/>
</svg>
