<svg width="23" height="23" viewBox="0 0 23 23" fill="none" xmlns="http://www.w3.org/2000/svg">
<path d="M17.2496 0H5.74986C2.58772 0 0 2.58772 0 5.74986V17.2501C0 20.4114 2.58772 23 5.74986 23H17.2496C20.4117 23 22.9994 20.4114 22.9994 17.2501V5.74986C22.9994 2.58772 20.4117 0 17.2496 0ZM21.0827 17.2501C21.0827 19.3632 19.3638 21.0833 17.2496 21.0833H5.74986C3.63651 21.0833 1.91671 19.3632 1.91671 17.2501V5.74986C1.91671 3.63623 3.63651 1.91671 5.74986 1.91671H17.2496C19.3638 1.91671 21.0827 3.63623 21.0827 5.74986V17.2501Z" fill="white"/>
<g clip-path="url(#clip0_47_9)">
<path d="M10.7136 12.1939C10.4079 12.0997 10.0841 12.0683 9.76425 12.1019C9.44441 12.1356 9.13616 12.2334 8.86054 12.3888C8.5592 12.5487 8.3011 12.7711 8.10615 13.0388C7.9112 13.3066 7.78456 13.6126 7.73598 13.9333C7.6874 14.254 7.7182 14.5808 7.82596 14.8886C7.93373 15.1965 8.11563 15.4771 8.35763 15.7089C8.64181 16.0192 9.01976 16.2419 9.44187 16.3477C9.86397 16.4536 10.3105 16.4376 10.7227 16.3018C11.1508 16.1849 11.5317 15.9511 11.8167 15.6304C12.1017 15.3097 12.2776 14.9168 12.322 14.502C12.3485 14.2968 12.3591 14.0902 12.3537 13.8837V4.56689C12.3537 3.91895 12.3084 4.00364 12.9337 4.00364C13.5589 4.00364 14.1117 4.00364 14.7007 4.00364C14.977 4.00364 15.0858 4.06717 15.1537 4.32973C15.2964 5.18507 15.7384 5.97205 16.4107 6.56748C17.083 7.1629 17.9475 7.53315 18.8689 7.62025C18.8689 7.62025 18.8689 7.62024 18.9731 7.70917C18.9731 8.38675 18.9731 9.12787 18.9731 9.86474C18.9731 10.1739 18.9369 10.1993 18.5654 10.1696C17.5697 10.1139 16.6002 9.84906 15.7292 9.39468C15.5754 9.28557 15.3997 9.20638 15.2126 9.16176C15.122 9.27611 15.1628 9.41584 15.1628 9.54289C15.1628 11.0759 15.1628 12.6089 15.1628 14.142C15.1839 14.8606 15.0268 15.5741 14.7037 16.2265C14.3807 16.8789 13.9004 17.4525 13.3006 17.9026C12.7089 18.3599 12.0138 18.6857 11.2677 18.8552C10.5216 19.0248 9.74414 19.0337 8.99382 18.8814C8.24351 18.7291 7.54001 18.4195 6.93641 17.9759C6.3328 17.5323 5.84488 16.9664 5.50943 16.3209C5.17399 15.6753 4.9998 14.9669 5 14.2493C5.0002 13.5316 5.17478 12.8233 5.51059 12.1779C5.84641 11.5325 6.33465 10.9669 6.93851 10.5236C7.54236 10.0803 8.24602 9.77106 8.99642 9.61911C9.48402 9.51836 9.98574 9.4912 10.4825 9.53865C10.6456 9.53865 10.7499 9.58948 10.7453 9.78428C10.7091 10.5593 10.7136 11.3343 10.7136 12.1939Z" fill="white"/>
</g>
<defs>
<clipPath id="clip0_47_9">
<rect width="14" height="15" fill="white" transform="translate(5 4)"/>
</clipPath>
</defs>
</svg>
