<svg width="169" height="41" viewBox="0 0 169 41" fill="none" xmlns="http://www.w3.org/2000/svg">
<path d="M160.882 40.601H7.98099C6.9329 40.601 5.89507 40.3946 4.92676 39.9936C3.95844 39.5925 3.07861 39.0046 2.33749 38.2635C1.59638 37.5224 1.00849 36.6426 0.607422 35.6743C0.206352 34.7059 -3.67675e-05 33.6681 4.91298e-09 32.62V7.98102C-3.54541e-05 6.93293 0.206352 5.8951 0.607422 4.92679C1.00849 3.95847 1.59638 3.07864 2.33749 2.33752C3.07861 1.59641 3.95844 1.00852 4.92676 0.607452C5.89507 0.206382 6.9329 -3.54541e-05 7.98099 4.91212e-09H160.882C161.93 -3.67675e-05 162.968 0.206383 163.936 0.607452C164.905 1.00852 165.784 1.59641 166.525 2.33752C167.267 3.07864 167.854 3.95844 168.256 4.92676C168.657 5.89507 168.863 6.93293 168.863 7.98102V32.62C168.863 33.6681 168.657 34.7059 168.256 35.6743C167.854 36.6426 167.267 37.5224 166.525 38.2635C165.784 39.0046 164.905 39.5925 163.936 39.9936C162.968 40.3946 161.93 40.6011 160.882 40.601Z" fill="#26D367"/>
<path d="M29.9374 8.69727H29.9314C27.7933 8.6965 25.6966 9.28686 23.8731 10.4031C22.0496 11.5194 20.5701 13.1181 19.5983 15.0226C18.6266 16.9271 18.2002 19.0631 18.3665 21.1947C18.5327 23.3263 19.2851 25.3705 20.5404 27.1013L19.0944 31.4113L23.5544 29.9863C25.0644 30.981 26.7861 31.609 28.582 31.8201C30.378 32.0312 32.1983 31.8195 33.8979 31.202C35.5975 30.5845 37.1292 29.5783 38.3707 28.2636C39.6123 26.9489 40.5293 25.3622 41.0486 23.6301C41.568 21.898 41.6752 20.0685 41.3618 18.2876C41.0484 16.5067 40.323 14.8237 39.2435 13.373C38.1641 11.9223 36.7604 10.744 35.1446 9.93213C33.5288 9.1203 31.7456 8.69744 29.9374 8.69727ZM36.6884 25.0822C36.4538 25.5067 36.1278 25.8738 35.734 26.1569C35.3402 26.44 34.8885 26.6321 34.4114 26.7193C33.8054 26.8493 33.0134 26.9523 30.3474 25.8463C27.9977 24.6964 26.0018 22.9338 24.5704 20.7443C23.7831 19.735 23.3048 18.5194 23.1934 17.2443C23.1782 16.7163 23.2762 16.1913 23.4808 15.7043C23.6853 15.2174 23.9917 14.78 24.3794 14.4213C24.7061 14.1345 25.131 13.9851 25.5654 14.0042C25.7094 14.0042 25.8384 14.0122 25.9544 14.0172C26.2954 14.0322 26.4664 14.0522 26.6914 14.5902C26.9714 15.2652 27.6524 16.9303 27.7344 17.1013C27.7916 17.1946 27.8259 17.3002 27.8344 17.4094C27.8429 17.5185 27.8254 17.6282 27.7834 17.7292C27.6878 17.9258 27.5608 18.1056 27.4074 18.2613C27.2364 18.4583 27.0744 18.6093 26.9034 18.8213C26.7464 19.0053 26.5694 19.2022 26.7664 19.5432C27.2762 20.4111 27.9106 21.1995 28.6494 21.8832C29.4425 22.609 30.3658 23.1784 31.3704 23.5612C31.5039 23.6245 31.6533 23.646 31.7993 23.623C31.9452 23.5999 32.0808 23.5335 32.1884 23.4323C32.5113 23.0481 32.8137 22.6473 33.0944 22.2313C33.177 22.0932 33.3081 21.9908 33.4621 21.9441C33.616 21.8973 33.7819 21.9095 33.9274 21.9782C34.2404 22.0872 35.8984 22.9063 36.2384 23.0763C36.5794 23.2473 36.8044 23.3293 36.8874 23.4723C36.976 24.0169 36.9069 24.5755 36.6884 25.0822Z" fill="white"/>
<path d="M54.778 13.895H56.2711V25.1328H54.778V13.895Z" fill="white"/>
<path d="M59.9313 18.4539C60.1423 17.9759 60.4968 17.5755 60.9456 17.308C61.3945 17.0406 61.9154 16.9194 62.4362 16.9612V18.4221C61.7995 18.3748 61.1685 18.5697 60.6696 18.968C60.4078 19.2082 60.2051 19.5055 60.077 19.8368C59.949 20.1681 59.8991 20.5245 59.9313 20.8782V25.1326H58.5348V17.1057H59.9313V18.4539Z" fill="white"/>
<path d="M74.4596 17.1058H75.856V25.1327H74.4596V23.7518C74.1392 24.2611 73.6897 24.6765 73.1568 24.9556C72.6238 25.2348 72.0264 25.3678 71.4254 25.3412C70.8871 25.3487 70.3532 25.2434 69.8582 25.0318C69.3632 24.8203 68.918 24.5074 68.5514 24.1132C67.7886 23.3028 67.3639 22.2319 67.3639 21.1191C67.3639 20.0062 67.7886 18.9353 68.5514 18.1249C68.9181 17.7308 69.3633 17.4179 69.8583 17.2064C70.3533 16.9949 70.8871 16.8895 71.4254 16.8969C72.0264 16.8703 72.6238 17.0033 73.1568 17.2825C73.6897 17.5617 74.1392 17.977 74.4596 18.4863V17.1058ZM71.6021 23.9931C71.9806 24.0028 72.357 23.9343 72.7079 23.792C73.0587 23.6497 73.3765 23.4366 73.6412 23.1659C74.1666 22.6139 74.4596 21.8811 74.4596 21.119C74.4596 20.357 74.1666 19.6241 73.6412 19.0722C73.0979 18.5421 72.369 18.2455 71.61 18.2455C70.851 18.2455 70.122 18.5421 69.5787 19.0722C69.0533 19.6241 68.7603 20.357 68.7603 21.119C68.7603 21.8811 69.0533 22.6139 69.5787 23.1659C69.8409 23.4356 70.156 23.6482 70.5042 23.7905C70.8523 23.9328 71.2261 24.0018 71.6021 23.9931Z" fill="white"/>
<path d="M84.4742 25.1328L81.3307 13.895H82.9L85.4723 23.1416L88.2018 13.895H89.7106L92.4401 23.1436L95.0084 13.895H96.4957L93.3551 25.1328H91.6217L88.9479 16.1313L86.274 25.1328H84.4742Z" fill="white"/>
<path d="M101.735 16.897C102.154 16.8781 102.572 16.9477 102.962 17.1013C103.352 17.2548 103.705 17.4888 103.999 17.7881C104.591 18.449 104.897 19.3178 104.85 20.2041V25.1328H103.453V20.2847C103.47 20.0093 103.432 19.7332 103.341 19.4726C103.251 19.2121 103.108 18.9723 102.923 18.7676C102.73 18.5827 102.5 18.4396 102.249 18.3471C101.997 18.2545 101.73 18.2145 101.463 18.2295C101.152 18.2163 100.842 18.2672 100.552 18.3791C100.262 18.491 99.9982 18.6615 99.777 18.8799C99.5438 19.1544 99.367 19.4722 99.2567 19.8152C99.1465 20.1581 99.1049 20.5194 99.1344 20.8784V25.1328H97.7379V13.895H99.1344V18.2617C99.4035 17.82 99.7877 17.4596 100.246 17.2193C100.704 16.9789 101.219 16.8675 101.735 16.897Z" fill="white"/>
<path d="M113.439 17.1058H114.836V25.1327H113.439V23.7518C113.119 24.2611 112.669 24.6765 112.136 24.9556C111.603 25.2348 111.006 25.3678 110.405 25.3412C109.867 25.3487 109.333 25.2434 108.838 25.0318C108.343 24.8203 107.898 24.5074 107.531 24.1132C106.768 23.3028 106.343 22.2319 106.343 21.1191C106.343 20.0062 106.768 18.9353 107.531 18.1249C107.898 17.7308 108.343 17.4179 108.838 17.2064C109.333 16.9949 109.867 16.8895 110.405 16.8969C111.006 16.8703 111.603 17.0033 112.136 17.2825C112.669 17.5617 113.119 17.977 113.439 18.4863V17.1058ZM110.582 23.9931C110.96 24.0028 111.337 23.9343 111.687 23.792C112.038 23.6497 112.356 23.4366 112.621 23.1659C113.146 22.6139 113.439 21.8811 113.439 21.119C113.439 20.357 113.146 19.6241 112.621 19.0722C112.077 18.5421 111.349 18.2455 110.59 18.2455C109.831 18.2455 109.102 18.5421 108.558 19.0722C108.033 19.6241 107.74 20.357 107.74 21.119C107.74 21.8811 108.033 22.6139 108.558 23.1659C108.821 23.4356 109.136 23.6482 109.484 23.7905C109.832 23.9328 110.206 24.0018 110.582 23.9931Z" fill="white"/>
<path d="M121.322 18.4541H119.186V22.8052C119.157 23.1052 119.24 23.4053 119.419 23.6479C119.514 23.7372 119.627 23.8061 119.749 23.8503C119.872 23.8944 120.003 23.913 120.133 23.9048C120.455 23.9102 120.851 23.902 121.322 23.8804V25.1328C120.42 25.3367 119.476 25.2321 118.64 24.8359C118.334 24.6009 118.094 24.2899 117.945 23.9337C117.796 23.5775 117.742 23.1884 117.79 22.8052V18.4541H116.2V17.106H117.79V15.2754L119.186 14.8584V17.106H121.322L121.322 18.4541Z" fill="white"/>
<path d="M123.81 19.249C123.813 19.4027 123.859 19.5525 123.942 19.6816C124.026 19.8106 124.144 19.9136 124.283 19.979C124.639 20.179 125.017 20.3357 125.41 20.4458C125.846 20.5742 126.285 20.7031 126.726 20.8325C127.163 20.9596 127.553 21.2131 127.846 21.5611C128.162 21.9468 128.326 22.4353 128.305 22.9336C128.315 23.2714 128.244 23.6067 128.097 23.9111C127.951 24.2156 127.733 24.4803 127.463 24.6831C126.839 25.1417 126.077 25.3739 125.303 25.3413C124.599 25.3617 123.904 25.1837 123.297 24.8277C122.764 24.513 122.347 24.0344 122.108 23.4634L123.312 22.773C123.437 23.1538 123.693 23.478 124.035 23.6879C124.416 23.9202 124.857 24.0372 125.303 24.0249C125.7 24.0402 126.094 23.949 126.443 23.7607C126.587 23.6787 126.706 23.558 126.786 23.412C126.865 23.2661 126.902 23.1009 126.892 22.935C126.891 22.78 126.846 22.6285 126.764 22.4971C126.682 22.3656 126.565 22.2593 126.426 22.1899C126.074 21.985 125.698 21.8248 125.306 21.7129C124.87 21.582 124.431 21.4503 123.99 21.3179C123.555 21.1895 123.165 20.9428 122.863 20.6055C122.545 20.2425 122.378 19.7713 122.397 19.289C122.391 18.9596 122.461 18.6332 122.601 18.3352C122.742 18.0372 122.949 17.7758 123.208 17.5713C123.782 17.1101 124.503 16.8708 125.239 16.897C125.849 16.8861 126.45 17.0386 126.981 17.3384C127.479 17.6223 127.879 18.0506 128.129 18.5669L126.957 19.2251C126.818 18.8922 126.577 18.6127 126.267 18.4276C125.958 18.2425 125.598 18.1618 125.239 18.1973C124.882 18.1864 124.53 18.2821 124.227 18.4722C124.095 18.5533 123.987 18.668 123.914 18.8044C123.841 18.9408 123.805 19.0942 123.81 19.249Z" fill="white"/>
<path d="M137.505 25.1328L136.588 22.6123H131.534L130.617 25.1328H129.028L133.217 13.895H134.903L139.093 25.1328H137.505ZM132.042 21.2158H136.079L134.06 15.6675L132.042 21.2158Z" fill="white"/>
<path d="M144.712 16.8969C145.25 16.8895 145.784 16.9949 146.279 17.2064C146.774 17.4179 147.219 17.7308 147.586 18.1249C148.348 18.9352 148.773 20.0062 148.773 21.119C148.773 22.2319 148.348 23.3028 147.586 24.1132C147.219 24.5074 146.774 24.8203 146.279 25.0318C145.784 25.2434 145.25 25.3487 144.712 25.3412C144.11 25.3678 143.513 25.2348 142.98 24.9556C142.447 24.6764 141.998 24.2611 141.677 23.7518V28.3436H140.281V17.1059H141.677V18.4863C141.998 17.977 142.447 17.5616 142.98 17.2825C143.513 17.0033 144.11 16.8703 144.712 16.8969ZM144.535 23.9931C144.911 24.0018 145.285 23.9329 145.633 23.7905C145.981 23.6482 146.296 23.4356 146.558 23.1659C147.084 22.6139 147.377 21.8811 147.377 21.1191C147.377 20.357 147.084 19.6242 146.558 19.0722C146.015 18.5422 145.286 18.2455 144.527 18.2455C143.769 18.2455 143.04 18.5422 142.497 19.0722C141.971 19.6239 141.677 20.3568 141.677 21.1191C141.677 21.8813 141.971 22.6142 142.497 23.1659C142.761 23.4366 143.079 23.6498 143.429 23.7922C143.78 23.9345 144.156 24.0029 144.535 23.9931Z" fill="white"/>
<path d="M154.874 16.8969C155.412 16.8895 155.946 16.9949 156.441 17.2064C156.936 17.4179 157.381 17.7308 157.748 18.1249C158.51 18.9352 158.935 20.0062 158.935 21.119C158.935 22.2319 158.51 23.3028 157.748 24.1132C157.381 24.5074 156.936 24.8203 156.441 25.0318C155.946 25.2434 155.412 25.3487 154.874 25.3412C154.273 25.3678 153.675 25.2348 153.142 24.9556C152.609 24.6764 152.16 24.2611 151.839 23.7518V28.3436H150.443V17.1059H151.839V18.4863C152.16 17.977 152.609 17.5616 153.142 17.2825C153.675 17.0033 154.273 16.8703 154.874 16.8969ZM154.697 23.9931C155.073 24.0018 155.447 23.9329 155.795 23.7905C156.143 23.6482 156.458 23.4356 156.72 23.1659C157.246 22.6139 157.539 21.8811 157.539 21.1191C157.539 20.357 157.246 19.6242 156.72 19.0722C156.177 18.5422 155.448 18.2455 154.69 18.2455C153.931 18.2455 153.202 18.5422 152.659 19.0722C152.133 19.6239 151.839 20.3568 151.839 21.1191C151.839 21.8813 152.133 22.6142 152.659 23.1659C152.923 23.4366 153.241 23.6498 153.591 23.7922C153.942 23.9345 154.319 24.0029 154.697 23.9931Z" fill="white"/>
</svg>
