<svg width="169" height="41" viewBox="0 0 169 41" fill="none" xmlns="http://www.w3.org/2000/svg">
<path d="M160.882 40.6972H7.98099C6.9329 40.6972 5.89507 40.4908 4.92676 40.0898C3.95844 39.6887 3.07861 39.1008 2.33749 38.3597C1.59638 37.6186 1.00849 36.7388 0.607422 35.7704C0.206352 34.8021 -3.54545e-05 33.7643 4.56834e-09 32.7162V8.07721C-3.54545e-05 7.02912 0.206352 5.9913 0.607422 5.02298C1.00849 4.05466 1.59638 3.17483 2.33749 2.43372C3.07861 1.6926 3.95844 1.10471 4.92676 0.703644C5.89507 0.302574 6.9329 0.096156 7.98099 0.0961914H160.882C161.93 0.0961533 162.968 0.302574 163.936 0.703644C164.905 1.10471 165.784 1.69257 166.525 2.43369C167.267 3.1748 167.854 4.05463 168.256 5.02295C168.657 5.99127 168.863 7.02912 168.863 8.07721V32.7162C168.863 33.7643 168.657 34.8021 168.256 35.7704C167.854 36.7388 167.267 37.6186 166.525 38.3597C165.784 39.1008 164.905 39.6887 163.936 40.0898C162.968 40.4908 161.93 40.6972 160.882 40.6972Z" fill="#000738"/>
<path d="M36.5347 23.7037C36.3973 23.5451 36.2274 23.4178 36.0365 23.3306C35.8455 23.2434 35.6381 23.1982 35.4282 23.1982C35.2183 23.1982 35.0109 23.2434 34.82 23.3306C34.6291 23.4178 34.4591 23.5451 34.3217 23.7037C33.8037 24.2167 33.2867 24.7297 32.7777 25.2517C32.755 25.2851 32.726 25.3136 32.6922 25.3355C32.6585 25.3575 32.6207 25.3726 32.581 25.3799C32.5414 25.3871 32.5007 25.3864 32.4613 25.3778C32.422 25.3692 32.3847 25.3529 32.3517 25.3297C32.0167 25.1477 31.6597 24.9997 31.3377 24.7997C29.8639 23.8451 28.5566 22.6553 27.4677 21.2777C26.9017 20.6067 26.4346 19.8581 26.0807 19.0548C26.0423 18.9888 26.0291 18.9111 26.0434 18.8362C26.0577 18.7612 26.0987 18.6939 26.1587 18.6467C26.6767 18.1467 27.1807 17.6328 27.6897 17.1198C27.8562 16.9816 27.9903 16.8084 28.0821 16.6124C28.1739 16.4165 28.2213 16.2027 28.2209 15.9863C28.2206 15.7699 28.1724 15.5563 28.0799 15.3607C27.9873 15.165 27.8527 14.9923 27.6857 14.8547C27.2807 14.4457 26.8767 14.0458 26.4717 13.6368C26.0547 13.2198 25.6417 12.7977 25.2197 12.3847C25.0812 12.2276 24.9108 12.1018 24.7198 12.0157C24.5289 11.9297 24.3218 11.8854 24.1123 11.8857C23.9028 11.8861 23.6959 11.9312 23.5052 12.0179C23.3146 12.1047 23.1446 12.2311 23.0067 12.3887C22.4847 12.9017 21.9847 13.4277 21.4537 13.9327C20.9812 14.3766 20.6979 14.9854 20.6627 15.6328C20.6168 16.6948 20.8067 17.7538 21.2187 18.7337C22.0027 20.7699 23.1341 22.6546 24.5627 24.3037C26.4415 26.5567 28.7778 28.3844 31.4167 29.6657C32.5948 30.2855 33.886 30.661 35.2127 30.7697C35.6542 30.8203 36.1014 30.7642 36.5167 30.6062C36.932 30.4482 37.3034 30.1929 37.5997 29.8618C38.0437 29.3658 38.5437 28.9138 39.0137 28.4398C39.1772 28.3014 39.3088 28.1292 39.3993 27.935C39.4898 27.7408 39.537 27.5293 39.5378 27.3151C39.5386 27.1009 39.4928 26.889 39.4037 26.6942C39.3146 26.4994 39.1843 26.3263 39.0217 26.1867C38.1957 25.3557 37.3667 24.5281 36.5347 23.7037Z" fill="white"/>
<path d="M35.7041 20.2382L37.3091 19.9642C37.05 18.4609 36.3203 17.0787 35.2254 16.0166C34.1304 14.9545 32.7266 14.2674 31.2161 14.0542L30.9901 15.6682C32.1589 15.8316 33.2455 16.3625 34.0929 17.1839C34.9403 18.0054 35.5045 19.075 35.7041 20.2382Z" fill="white"/>
<path d="M38.2133 13.2629C36.3841 11.4217 34.0004 10.233 31.4293 9.87988L31.2032 11.4929C33.3684 11.797 35.3812 12.7809 36.9512 14.3026C38.5212 15.8243 39.5675 17.8052 39.9392 19.9599L41.5443 19.6859C41.1263 17.2514 39.9624 15.007 38.2133 13.2629Z" fill="white"/>
<path d="M58.566 23.7446H63.4147V25.1573H57.0729V13.9194H58.566L58.566 23.7446Z" fill="white"/>
<path d="M64.7623 25.1573V13.4375H66.1588V25.1573H64.7623Z" fill="white"/>
<path d="M74.941 17.1302H76.3375V25.1571H74.941V23.7762C74.6207 24.2855 74.1712 24.7009 73.6382 24.98C73.1053 25.2592 72.5079 25.3922 71.9068 25.3656C71.3686 25.3731 70.8347 25.2677 70.3397 25.0562C69.8446 24.8447 69.3995 24.5318 69.0328 24.1376C68.2701 23.3272 67.8453 22.2563 67.8453 21.1434C67.8453 20.0306 68.2701 18.9597 69.0328 18.1493C69.3995 17.7552 69.8447 17.4423 70.3397 17.2308C70.8347 17.0193 71.3686 16.9139 71.9068 16.9213C72.5079 16.8947 73.1053 17.0277 73.6382 17.3069C74.1712 17.586 74.6207 18.0014 74.941 18.5107V17.1302ZM72.0836 24.0174C72.4621 24.0272 72.8385 23.9587 73.1893 23.8164C73.5402 23.6741 73.8579 23.4609 74.1227 23.1903C74.648 22.6383 74.941 21.9054 74.941 21.1434C74.941 20.3814 74.648 19.6485 74.1227 19.0965C73.5793 18.5665 72.8504 18.2699 72.0914 18.2699C71.3324 18.2699 70.6035 18.5665 70.0602 19.0965C69.5348 19.6485 69.2418 20.3814 69.2418 21.1434C69.2418 21.9054 69.5348 22.6383 70.0602 23.1903C70.3224 23.4599 70.6374 23.6726 70.9856 23.8149C71.3338 23.9572 71.7076 24.0262 72.0836 24.0174Z" fill="white"/>
<path d="M87.1255 16.9212C87.5306 16.9052 87.9344 16.9749 88.3107 17.1257C88.687 17.2764 89.0272 17.5049 89.3091 17.7962C89.8898 18.444 90.19 19.2956 90.1441 20.1643V25.157H88.7477V20.2122C88.7803 19.6863 88.6074 19.1682 88.2652 18.7674C88.1 18.5953 87.9 18.4605 87.6786 18.3719C87.4571 18.2833 87.2193 18.243 86.981 18.2537C86.7121 18.2422 86.4439 18.2902 86.1956 18.3943C85.9472 18.4983 85.725 18.6559 85.5445 18.8557C85.1461 19.3819 84.9546 20.0361 85.0064 20.6941V25.157H83.61V20.2122C83.6426 19.6905 83.4797 19.1754 83.153 18.7674C82.9959 18.5956 82.8029 18.4605 82.5877 18.3717C82.3725 18.2829 82.1404 18.2427 81.9078 18.2537C81.6339 18.2467 81.3616 18.2974 81.1085 18.4026C80.8555 18.5077 80.6274 18.665 80.4391 18.8641C80.0125 19.3743 79.8022 20.031 79.8531 20.6941V25.157H78.4567V17.1302H79.8531V18.2054C80.1 17.7963 80.4524 17.4613 80.8734 17.2353C81.2944 17.0094 81.7684 16.9009 82.2457 16.9212C82.7291 16.8948 83.2096 17.0098 83.6287 17.2522C84.0477 17.4946 84.387 17.8538 84.6051 18.2859C84.86 17.8495 85.2298 17.4914 85.6743 17.2507C86.1187 17.0101 86.6207 16.8961 87.1255 16.9212Z" fill="white"/>
<path d="M98.733 17.1302H100.13V25.1571H98.733V23.7762C98.4127 24.2855 97.9632 24.7009 97.4302 24.98C96.8973 25.2592 96.2999 25.3922 95.6989 25.3656C95.1606 25.3731 94.6267 25.2677 94.1317 25.0562C93.6366 24.8447 93.1914 24.5318 92.8248 24.1376C92.0621 23.3272 91.6373 22.2563 91.6373 21.1434C91.6373 20.0306 92.0621 18.9597 92.8248 18.1493C93.1915 17.7552 93.6368 17.4423 94.1318 17.2308C94.6268 17.0193 95.1606 16.9139 95.6989 16.9213C96.2999 16.8947 96.8973 17.0277 97.4302 17.3069C97.9632 17.586 98.4127 18.0014 98.733 18.5107V17.1302ZM95.8756 24.0174C96.2541 24.0272 96.6305 23.9587 96.9814 23.8164C97.3322 23.6741 97.6499 23.4609 97.9147 23.1903C98.44 22.6383 98.733 21.9054 98.733 21.1434C98.733 20.3814 98.44 19.6485 97.9147 19.0965C97.3714 18.5665 96.6424 18.2699 95.8834 18.2699C95.1244 18.2699 94.3955 18.5665 93.8522 19.0965C93.3268 19.6485 93.0338 20.3814 93.0338 21.1434C93.0338 21.9054 93.3268 22.6383 93.8522 23.1903C94.1144 23.4599 94.4295 23.6726 94.7776 23.8149C95.1258 23.9572 95.4996 24.0262 95.8756 24.0174Z" fill="white"/>
<path d="M103.645 18.4783C103.856 18.0004 104.211 17.5999 104.659 17.3325C105.108 17.065 105.629 16.9438 106.15 16.9856V18.4466C105.513 18.3992 104.882 18.5942 104.383 18.9925C104.122 19.2326 103.919 19.5299 103.791 19.8612C103.663 20.1925 103.613 20.5489 103.645 20.9026V25.157H102.249V17.1302H103.645L103.645 18.4783Z" fill="white"/>
<path d="M118.174 17.1302H119.571V25.1571H118.174V23.7762C117.854 24.2855 117.405 24.7009 116.872 24.98C116.339 25.2592 115.741 25.3922 115.14 25.3656C114.602 25.3731 114.068 25.2677 113.573 25.0562C113.078 24.8447 112.633 24.5318 112.266 24.1376C111.503 23.3272 111.079 22.2563 111.079 21.1434C111.079 20.0306 111.503 18.9597 112.266 18.1493C112.633 17.7552 113.078 17.4423 113.573 17.2308C114.068 17.0193 114.602 16.9139 115.14 16.9213C115.741 16.8947 116.339 17.0277 116.872 17.3069C117.405 17.586 117.854 18.0014 118.174 18.5107V17.1302ZM115.317 24.0174C115.696 24.0272 116.072 23.9587 116.423 23.8164C116.774 23.6741 117.091 23.4609 117.356 23.1903C117.881 22.6383 118.174 21.9054 118.174 21.1434C118.174 20.3814 117.881 19.6485 117.356 19.0965C116.813 18.5665 116.084 18.2699 115.325 18.2699C114.566 18.2699 113.837 18.5665 113.294 19.0965C112.768 19.6485 112.475 20.3814 112.475 21.1434C112.475 21.9054 112.768 22.6383 113.294 23.1903C113.556 23.4599 113.871 23.6726 114.219 23.8149C114.567 23.9572 114.941 24.0262 115.317 24.0174Z" fill="white"/>
<path d="M125.687 16.9214C126.106 16.9025 126.524 16.9722 126.914 17.1257C127.304 17.2792 127.657 17.5133 127.951 17.8125C128.543 18.4734 128.849 19.3422 128.802 20.2285V25.1573H127.405V20.3091C127.422 20.0337 127.385 19.7576 127.294 19.4971C127.203 19.2365 127.061 18.9968 126.876 18.792C126.682 18.6072 126.452 18.4641 126.201 18.3715C125.95 18.279 125.682 18.2389 125.415 18.2539C125.104 18.2407 124.794 18.2916 124.504 18.4035C124.214 18.5154 123.95 18.6859 123.729 18.9043C123.496 19.1789 123.319 19.4967 123.209 19.8396C123.099 20.1826 123.057 20.5439 123.087 20.9029V25.1573H121.69V13.9194H123.087V18.2861C123.356 17.8444 123.74 17.4841 124.198 17.2437C124.656 17.0033 125.171 16.8919 125.687 16.9214Z" fill="white"/>
<path d="M137.518 24.1462C136.716 24.9283 135.64 25.366 134.52 25.366C133.4 25.366 132.324 24.9283 131.522 24.1462C130.925 23.5561 130.518 22.8015 130.352 21.9788C130.186 21.1562 130.269 20.3027 130.59 19.5274C130.912 18.7521 131.457 18.0902 132.156 17.626C132.855 17.1619 133.677 16.9167 134.516 16.9216C135.073 16.9112 135.626 17.0139 136.142 17.2237C136.658 17.4334 137.127 17.7458 137.518 18.1418C138.31 18.9403 138.755 20.0194 138.755 21.144C138.755 22.2687 138.31 23.3477 137.518 24.1462ZM134.516 24.0017C135.162 23.9949 135.785 23.7649 136.281 23.3506C136.776 22.9364 137.113 22.3636 137.233 21.7293C137.354 21.0951 137.252 20.4385 136.944 19.8711C136.636 19.3037 136.141 18.8604 135.543 18.6164C134.945 18.3725 134.281 18.343 133.664 18.5329C133.047 18.7227 132.515 19.1203 132.157 19.6581C131.8 20.1959 131.64 20.8408 131.704 21.4833C131.768 22.1258 132.053 22.7263 132.509 23.1829C132.771 23.4482 133.084 23.6576 133.429 23.7984C133.774 23.9392 134.144 24.0083 134.516 24.0017Z" fill="white"/>
<path d="M141.805 18.4783C142.016 18.0004 142.371 17.5999 142.82 17.3325C143.269 17.065 143.789 16.9438 144.31 16.9856V18.4466C143.674 18.3992 143.043 18.5942 142.544 18.9925C142.282 19.2326 142.079 19.5299 141.951 19.8612C141.823 20.1925 141.773 20.5489 141.805 20.9026V25.157H140.409V17.1302H141.805V18.4783Z" fill="white"/>
<path d="M151.903 17.1302H153.299V25.1571H151.903V23.7762C151.583 24.2855 151.133 24.7009 150.6 24.98C150.067 25.2592 149.47 25.3922 148.869 25.3656C148.331 25.3731 147.797 25.2677 147.302 25.0562C146.807 24.8447 146.361 24.5318 145.995 24.1376C145.232 23.3272 144.807 22.2563 144.807 21.1434C144.807 20.0306 145.232 18.9597 145.995 18.1493C146.361 17.7552 146.807 17.4423 147.302 17.2308C147.797 17.0193 148.331 16.9139 148.869 16.9213C149.47 16.8947 150.067 17.0277 150.6 17.3069C151.133 17.586 151.583 18.0014 151.903 18.5107V17.1302ZM149.046 24.0174C149.424 24.0272 149.8 23.9587 150.151 23.8164C150.502 23.6741 150.82 23.4609 151.085 23.1903C151.61 22.6383 151.903 21.9054 151.903 21.1434C151.903 20.3814 151.61 19.6485 151.085 19.0965C150.541 18.5665 149.812 18.2699 149.053 18.2699C148.294 18.2699 147.565 18.5665 147.022 19.0965C146.497 19.6485 146.204 20.3814 146.204 21.1434C146.204 21.9054 146.497 22.6383 147.022 23.1903C147.284 23.4599 147.599 23.6726 147.948 23.8149C148.296 23.9572 148.67 24.0262 149.046 24.0174Z" fill="white"/>
<path d="M160.882 40.6972H7.98099C6.9329 40.6972 5.89507 40.4908 4.92676 40.0898C3.95844 39.6887 3.07861 39.1008 2.33749 38.3597C1.59638 37.6186 1.00849 36.7388 0.607422 35.7704C0.206352 34.8021 -3.54545e-05 33.7643 4.56834e-09 32.7162V8.07721C-3.54545e-05 7.02912 0.206352 5.9913 0.607422 5.02298C1.00849 4.05466 1.59638 3.17483 2.33749 2.43372C3.07861 1.6926 3.95844 1.10471 4.92676 0.703644C5.89507 0.302574 6.9329 0.096156 7.98099 0.0961914H160.882C161.93 0.0961533 162.968 0.302574 163.936 0.703644C164.905 1.10471 165.784 1.69257 166.525 2.43369C167.267 3.1748 167.854 4.05463 168.256 5.02295C168.657 5.99127 168.863 7.02912 168.863 8.07721V32.7162C168.863 33.7643 168.657 34.8021 168.256 35.7704C167.854 36.7388 167.267 37.6186 166.525 38.3597C165.784 39.1008 164.905 39.6887 163.936 40.0898C162.968 40.4908 161.93 40.6972 160.882 40.6972Z" fill="#3B2E80"/>
<path d="M36.5347 23.7037C36.3973 23.5451 36.2274 23.4178 36.0365 23.3306C35.8455 23.2434 35.6381 23.1982 35.4282 23.1982C35.2183 23.1982 35.0109 23.2434 34.82 23.3306C34.6291 23.4178 34.4591 23.5451 34.3217 23.7037C33.8037 24.2167 33.2867 24.7297 32.7777 25.2517C32.755 25.2851 32.726 25.3136 32.6922 25.3355C32.6585 25.3575 32.6207 25.3726 32.581 25.3799C32.5414 25.3871 32.5007 25.3864 32.4613 25.3778C32.422 25.3692 32.3847 25.3529 32.3517 25.3297C32.0167 25.1477 31.6597 24.9997 31.3377 24.7997C29.8639 23.8451 28.5566 22.6553 27.4677 21.2777C26.9017 20.6067 26.4346 19.8581 26.0807 19.0548C26.0423 18.9888 26.0291 18.9111 26.0434 18.8362C26.0577 18.7612 26.0987 18.6939 26.1587 18.6467C26.6767 18.1467 27.1807 17.6328 27.6897 17.1198C27.8562 16.9816 27.9903 16.8084 28.0821 16.6124C28.1739 16.4165 28.2213 16.2027 28.2209 15.9863C28.2206 15.7699 28.1724 15.5563 28.0799 15.3607C27.9873 15.165 27.8527 14.9923 27.6857 14.8547C27.2807 14.4457 26.8767 14.0458 26.4717 13.6368C26.0547 13.2198 25.6417 12.7977 25.2197 12.3847C25.0812 12.2276 24.9108 12.1018 24.7198 12.0157C24.5289 11.9297 24.3218 11.8854 24.1123 11.8857C23.9028 11.8861 23.6959 11.9312 23.5052 12.0179C23.3146 12.1047 23.1446 12.2311 23.0067 12.3887C22.4847 12.9017 21.9847 13.4277 21.4537 13.9327C20.9812 14.3766 20.6979 14.9854 20.6627 15.6328C20.6168 16.6948 20.8067 17.7538 21.2187 18.7337C22.0027 20.7699 23.1341 22.6546 24.5627 24.3037C26.4415 26.5567 28.7778 28.3844 31.4167 29.6657C32.5948 30.2855 33.886 30.661 35.2127 30.7697C35.6542 30.8203 36.1014 30.7642 36.5167 30.6062C36.932 30.4482 37.3034 30.1929 37.5997 29.8618C38.0437 29.3658 38.5437 28.9138 39.0137 28.4398C39.1772 28.3014 39.3088 28.1292 39.3993 27.935C39.4898 27.7408 39.537 27.5293 39.5378 27.3151C39.5386 27.1009 39.4928 26.889 39.4037 26.6942C39.3146 26.4994 39.1843 26.3263 39.0217 26.1867C38.1957 25.3557 37.3667 24.5281 36.5347 23.7037Z" fill="white"/>
<path d="M35.7041 20.2382L37.3091 19.9642C37.05 18.4609 36.3203 17.0787 35.2254 16.0166C34.1304 14.9545 32.7266 14.2674 31.2161 14.0542L30.9901 15.6682C32.1589 15.8316 33.2455 16.3625 34.0929 17.1839C34.9403 18.0054 35.5045 19.075 35.7041 20.2382Z" fill="white"/>
<path d="M38.2133 13.2629C36.3841 11.4217 34.0004 10.233 31.4293 9.87988L31.2032 11.4929C33.3684 11.797 35.3812 12.7809 36.9512 14.3026C38.5212 15.8243 39.5675 17.8052 39.9392 19.9599L41.5443 19.6859C41.1263 17.2514 39.9624 15.007 38.2133 13.2629Z" fill="white"/>
<path d="M58.567 23.7476H63.4156V25.1602H57.0739V13.9224H58.567V23.7476Z" fill="white"/>
<path d="M64.7633 25.1602V13.4404H66.1598V25.1602H64.7633Z" fill="white"/>
<path d="M74.942 17.1332H76.3385V25.16H74.942V23.7792C74.6217 24.2884 74.1721 24.7038 73.6392 24.983C73.1062 25.2621 72.5089 25.3951 71.9078 25.3685C71.3695 25.3761 70.8357 25.2707 70.3406 25.0592C69.8456 24.8476 69.4004 24.5347 69.0338 24.1405C68.271 23.3302 67.8463 22.2592 67.8463 21.1464C67.8463 20.0335 68.271 18.9626 69.0338 18.1522C69.4005 17.7581 69.8457 17.4453 70.3407 17.2337C70.8357 17.0222 71.3696 16.9168 71.9078 16.9242C72.5089 16.8976 73.1062 17.0306 73.6392 17.3098C74.1721 17.589 74.6217 18.0043 74.942 18.5136V17.1332ZM72.0846 24.0204C72.463 24.0301 72.8395 23.9616 73.1903 23.8193C73.5412 23.677 73.8589 23.4639 74.1236 23.1932C74.649 22.6412 74.942 21.9084 74.942 21.1463C74.942 20.3843 74.649 19.6515 74.1236 19.0995C73.5803 18.5695 72.8514 18.2728 72.0924 18.2728C71.3334 18.2728 70.6044 18.5695 70.0611 19.0995C69.5358 19.6515 69.2428 20.3843 69.2428 21.1463C69.2428 21.9084 69.5358 22.6412 70.0611 23.1932C70.3234 23.4629 70.6384 23.6755 70.9866 23.8179C71.3347 23.9602 71.7085 24.0291 72.0846 24.0204Z" fill="white"/>
<path d="M87.1266 16.9242C87.5316 16.9082 87.9355 16.9779 88.3117 17.1286C88.688 17.2794 89.0282 17.5079 89.3102 17.7992C89.8908 18.447 90.1911 19.2986 90.1452 20.1673V25.16H88.7487V20.2152C88.7814 19.6892 88.6084 19.1711 88.2663 18.7703C88.1011 18.5983 87.9011 18.4634 87.6797 18.3749C87.4582 18.2863 87.2204 18.246 86.9821 18.2567C86.7131 18.2452 86.4449 18.2932 86.1966 18.3973C85.9483 18.5013 85.726 18.6589 85.5456 18.8587C85.1471 19.3849 84.9556 20.0391 85.0074 20.6971V25.16H83.611V20.2152C83.6436 19.6935 83.4807 19.1783 83.154 18.7703C82.9969 18.5986 82.8039 18.4635 82.5887 18.3747C82.3735 18.2859 82.1414 18.2456 81.9088 18.2567C81.6349 18.2497 81.3626 18.3004 81.1095 18.4055C80.8565 18.5107 80.6284 18.6679 80.4401 18.867C80.0135 19.3773 79.8032 20.034 79.8541 20.6971V25.16H78.4576V17.1331H79.8541V18.2083C80.101 17.7993 80.4534 17.4642 80.8744 17.2382C81.2954 17.0123 81.7694 16.9038 82.2467 16.9241C82.7301 16.8977 83.2106 17.0127 83.6296 17.2551C84.0487 17.4975 84.388 17.8567 84.6061 18.2889C84.861 17.8524 85.2308 17.4943 85.6753 17.2537C86.1198 17.013 86.6218 16.899 87.1266 16.9242Z" fill="white"/>
<path d="M98.734 17.1332H100.13V25.16H98.734V23.7792C98.4137 24.2884 97.9642 24.7038 97.4312 24.983C96.8983 25.2621 96.3009 25.3951 95.6998 25.3685C95.1616 25.3761 94.6277 25.2707 94.1327 25.0592C93.6377 24.8476 93.1924 24.5347 92.8258 24.1405C92.063 23.3302 91.6383 22.2592 91.6383 21.1464C91.6383 20.0335 92.063 18.9626 92.8258 18.1522C93.1925 17.7581 93.6377 17.4453 94.1328 17.2337C94.6278 17.0222 95.1616 16.9168 95.6998 16.9242C96.3009 16.8976 96.8983 17.0306 97.4312 17.3098C97.9642 17.589 98.4137 18.0043 98.734 18.5136V17.1332ZM95.8766 24.0204C96.2551 24.0301 96.6315 23.9616 96.9824 23.8193C97.3332 23.677 97.6509 23.4639 97.9156 23.1932C98.441 22.6412 98.734 21.9084 98.734 21.1463C98.734 20.3843 98.441 19.6515 97.9156 19.0995C97.3723 18.5695 96.6434 18.2728 95.8844 18.2728C95.1254 18.2728 94.3965 18.5695 93.8531 19.0995C93.3278 19.6515 93.0348 20.3843 93.0348 21.1463C93.0348 21.9084 93.3278 22.6412 93.8531 23.1932C94.1154 23.4629 94.4305 23.6755 94.7786 23.8179C95.1268 23.9602 95.5006 24.0291 95.8766 24.0204Z" fill="white"/>
<path d="M103.646 18.4812C103.857 18.0033 104.212 17.6028 104.661 17.3354C105.109 17.0679 105.63 16.9467 106.151 16.9886V18.4495C105.514 18.4021 104.883 18.5971 104.384 18.9954C104.123 19.2355 103.92 19.5328 103.792 19.8641C103.664 20.1954 103.614 20.5518 103.646 20.9055V25.1599H102.25V17.1331H103.646V18.4812Z" fill="white"/>
<path d="M118.175 17.1332H119.572V25.16H118.175V23.7792C117.855 24.2884 117.406 24.7038 116.873 24.983C116.34 25.2621 115.742 25.3951 115.141 25.3685C114.603 25.3761 114.069 25.2707 113.574 25.0592C113.079 24.8476 112.634 24.5347 112.267 24.1405C111.504 23.3302 111.08 22.2592 111.08 21.1464C111.08 20.0335 111.504 18.9626 112.267 18.1522C112.634 17.7581 113.079 17.4453 113.574 17.2337C114.069 17.0222 114.603 16.9168 115.141 16.9242C115.742 16.8976 116.34 17.0306 116.873 17.3098C117.406 17.589 117.855 18.0043 118.175 18.5136V17.1332ZM115.318 24.0204C115.696 24.0301 116.073 23.9616 116.424 23.8193C116.775 23.677 117.092 23.4639 117.357 23.1932C117.882 22.6412 118.175 21.9084 118.175 21.1463C118.175 20.3843 117.882 19.6515 117.357 19.0995C116.814 18.5695 116.085 18.2728 115.326 18.2728C114.567 18.2728 113.838 18.5695 113.295 19.0995C112.769 19.6515 112.476 20.3843 112.476 21.1463C112.476 21.9084 112.769 22.6412 113.295 23.1932C113.557 23.4629 113.872 23.6755 114.22 23.8179C114.568 23.9602 114.942 24.0291 115.318 24.0204Z" fill="white"/>
<path d="M125.688 16.9243C126.107 16.9055 126.525 16.9751 126.915 17.1286C127.305 17.2822 127.658 17.5162 127.952 17.8154C128.544 18.4763 128.85 19.3451 128.803 20.2314V25.1601H127.406V20.312C127.423 20.0366 127.386 19.7605 127.295 19.4999C127.204 19.2394 127.062 18.9997 126.877 18.7949C126.683 18.6101 126.453 18.4669 126.202 18.3744C125.951 18.2818 125.683 18.2418 125.416 18.2568C125.105 18.2436 124.795 18.2945 124.505 18.4064C124.215 18.5183 123.951 18.6888 123.73 18.9072C123.497 19.1817 123.32 19.4996 123.21 19.8425C123.1 20.1854 123.058 20.5467 123.088 20.9057V25.1601H121.691V13.9224H123.088V18.2891C123.357 17.8473 123.741 17.487 124.199 17.2466C124.657 17.0062 125.172 16.8948 125.688 16.9243Z" fill="white"/>
<path d="M137.519 24.1492C136.717 24.9312 135.641 25.3689 134.521 25.3689C133.401 25.3689 132.325 24.9312 131.523 24.1492C130.926 23.559 130.519 22.8044 130.353 21.9818C130.187 21.1591 130.27 20.3057 130.592 19.5304C130.913 18.7551 131.458 18.0931 132.157 17.629C132.856 17.1648 133.678 16.9196 134.517 16.9246C135.074 16.9141 135.627 17.0169 136.143 17.2266C136.659 17.4364 137.127 17.7487 137.519 18.1448C138.311 18.9433 138.755 20.0223 138.755 21.147C138.755 22.2716 138.311 23.3507 137.519 24.1492ZM134.517 24.0046C135.163 23.9978 135.786 23.7678 136.282 23.3535C136.777 22.9393 137.114 22.3665 137.234 21.7322C137.355 21.098 137.253 20.4414 136.945 19.874C136.637 19.3066 136.142 18.8633 135.544 18.6194C134.946 18.3754 134.282 18.3459 133.665 18.5358C133.048 18.7257 132.516 19.1233 132.158 19.6611C131.801 20.1989 131.641 20.8438 131.705 21.4863C131.769 22.1287 132.054 22.7292 132.51 23.1858C132.772 23.4511 133.085 23.6606 133.43 23.8013C133.775 23.9421 134.145 24.0113 134.517 24.0046Z" fill="white"/>
<path d="M141.806 18.4812C142.017 18.0033 142.372 17.6028 142.821 17.3354C143.269 17.0679 143.79 16.9467 144.311 16.9886V18.4495C143.675 18.4021 143.043 18.5971 142.545 18.9954C142.283 19.2355 142.08 19.5328 141.952 19.8641C141.824 20.1954 141.774 20.5518 141.806 20.9055V25.1599H140.41V17.1331H141.806V18.4812Z" fill="white"/>
<path d="M151.904 17.1332H153.3V25.16H151.904V23.7792C151.584 24.2884 151.134 24.7038 150.601 24.983C150.068 25.2621 149.471 25.3951 148.87 25.3685C148.331 25.3761 147.798 25.2707 147.303 25.0592C146.808 24.8476 146.362 24.5347 145.996 24.1405C145.233 23.3302 144.808 22.2592 144.808 21.1464C144.808 20.0335 145.233 18.9626 145.996 18.1522C146.362 17.7581 146.808 17.4453 147.303 17.2337C147.798 17.0222 148.331 16.9168 148.87 16.9242C149.471 16.8976 150.068 17.0306 150.601 17.3098C151.134 17.589 151.584 18.0043 151.904 18.5136V17.1332ZM149.047 24.0204C149.425 24.0301 149.801 23.9616 150.152 23.8193C150.503 23.677 150.821 23.4639 151.086 23.1932C151.611 22.6412 151.904 21.9084 151.904 21.1463C151.904 20.3843 151.611 19.6515 151.086 19.0995C150.542 18.5695 149.813 18.2728 149.054 18.2728C148.295 18.2728 147.566 18.5695 147.023 19.0995C146.498 19.6515 146.205 20.3843 146.205 21.1463C146.205 21.9084 146.498 22.6412 147.023 23.1932C147.285 23.4629 147.6 23.6755 147.949 23.8179C148.297 23.9602 148.67 24.0291 149.047 24.0204Z" fill="white"/>
</svg>
