<svg xmlns="http://www.w3.org/2000/svg" xmlns:xlink="http://www.w3.org/1999/xlink" viewBox="0 0 500 500"><defs><style>.cls-1{isolation:isolate;}.cls-2{fill:#283794;}.cls-3{fill:#385fb0;}.cls-4,.cls-6{fill:#180e42;}.cls-5{fill:#231f20;}.cls-5,.cls-6{mix-blend-mode:soft-light;}.cls-7{fill:#5c9fdc;}</style></defs><title>Artboard 1</title><g class="cls-1"><g id="OBJECTS"><rect class="cls-2" x="62.81806" y="68.1761" width="388.36389" height="281.2917" rx="15.859"/><rect class="cls-3" x="54.81806" y="68.1761" width="388.36389" height="281.2917" rx="15.859"/><image width="6014" height="4003" transform="translate(80.67886 87.248) scale(0.05706)" xlink:href="../1.PROYECTOS/COSAS/FOTOS%20MULTIMEDICA/dr2.png"/><rect class="cls-4" x="188.1072" y="349.4678" width="123.2599" height="55.6533"/><path class="cls-3" d="M149.917,405.1211H349.55739a5.8843,5.8843,0,0,1,5.8843,5.8843v16.3605a5.8844,5.8844,0,0,1-5.8844,5.8844H149.917a5.8843,5.8843,0,0,1-5.8843-5.8843V411.0054A5.8843,5.8843,0,0,1,149.917,405.1211Z"/><path class="cls-5" d="M349.55739,405.1212h-18.4798a5.88428,5.88428,0,0,1,5.88441,5.8843V427.366a5.88434,5.88434,0,0,1-5.88441,5.8843h18.4798a5.88431,5.88431,0,0,0,5.8843-5.8843V411.0055A5.88425,5.88425,0,0,0,349.55739,405.1212Z"/><rect class="cls-6" x="295.84179" y="349.4678" width="15.5253" height="55.6533"/><path class="cls-7" d="M444.80289,450.4368H54.6715a8.56383,8.56383,0,0,1-8.5639-8.5638h0a8.56391,8.56391,0,0,1,8.5639-8.5639H444.80289a8.56383,8.56383,0,0,1,8.5638,8.5639h0A8.56374,8.56374,0,0,1,444.80289,450.4368Z"/></g></g></svg>